<svg xmlns="http://www.w3.org/2000/svg">
        <symbol id="logo" viewBox="0 0 289.133858 158.740157">
            <g id="Ebene_1">
                <rect id="uuid-37dacb34-c3d7-4e39-a056-dd5fca2da1c9" style="fill: none" width="100%" height="100%"/>
                <path style="fill:var(--unimr-logo-color)" d="M136.86480713,70.33280182c0,1.08999634-.23899841,2.0719986-.71699524,2.9469986-.477005.875-1.19900513,1.56600189-2.16200256,2.07400513-.96400452.50899506-2.18200684.76199341-3.65299988.76199341-2.08799744,0-3.6780014-.53399658-4.76600647-1.59999847-1.08999634-1.06700134-1.63399506-2.47499847-1.63399506-4.22599792v-10.15200043h3.33300018v9.64399719c0,1.2950058.26399994,2.20700073.79400635,2.73699951.5289917.52899933,1.31599426.79299927,2.36099243.79299927,1.08900452,0,1.8809967-.28499603,2.3730011-.85999298.49200439-.57300568.74000549-1.47100067.74000549-2.69200134v-9.62200165h3.33099365v10.19499969ZM147.30450439,63.62500763c-.75100708,0-1.46000671.13999939-2.13000488.41799927-.66999817.28099823-1.19599915.73000336-1.57899475,1.34700012h-.17599487l-.44100952-1.54399872h-2.51599121v12.04899597h3.28799438v-5.67199707c0-1.27999878.18499756-2.26300049.55299377-2.94499969.36601257-.68399811,1.05101013-1.02700043,2.05101013-1.02700043.67700195,0,1.17098999.21700287,1.47999573.65200043.30900574.43199921.46299744,1.08399963.46299744,1.95200348v7.03999329h3.28800964v-7.85699463c0-1.54499817-.39100647-2.66600037-1.17001343-3.36399841-.77999878-.69900513-1.81599426-1.0490036-3.11099243-1.0490036M156.61599731,59.1230011c-.50099182,0-.92300415.11500549-1.26799011.34300232-.3460083.22800446-.51901245.65000153-.51901245,1.26799774,0,.60300446.17300415,1.02300262.51901245,1.25900269.34498596.23500061.76699829.35199738,1.26799011.35199738.48500061,0,.90499878-.11699677,1.25700378-.35199738.35400391-.23600006.52999878-.65599823.52999878-1.25900269,0-.61799622-.17599487-1.03999329-.52999878-1.26799774-.352005-.22799683-.77200317-.34300232-1.25700378-.34300232M158.24899292,63.8460083h-3.28799438v12.04899597h3.28799438v-12.04899597ZM167.93749576,75.89470673l4.5909924-12.0490036h-3.44299316l-2.31700134,6.86200714c-.27999878.85499573-.44200134,1.67799377-.48600769,2.47299957h-.08898926c-.01400757-.35300446-.06199646-.75-.14300537-1.19200134-.08099365-.44200134-.18699646-.86800385-.31999207-1.28099823l-2.31700134-6.86200714h-3.44200134l4.58999634,12.0490036h3.37600284ZM179.21470642,63.62530518c-1.13400269,0-2.1269989.23500061-2.98001099.70599365-.85299683.47000122-1.51899719,1.1720047-1.99699402,2.10800171-.47799683.93400574-.71600342,2.10700226-.71600342,3.52000427,0,1.38299561.26400757,2.52999878.79299927,3.44099426.52999878.91200256,1.25900269,1.59300232,2.18600464,2.04200745.92700195.4489975,1.9940033.67299652,3.19999695.67299652.92700195,0,1.71699524-.06999969,2.3730011-.20999908.65299988-.13999939,1.2749939-.35500336,1.86399841-.65000153v-2.53800201c-.67700195.32400513-1.33299255.56300354-1.96499634.71700287s-1.33799744.23200226-2.11700439.23200226c-.92700195,0-1.6519928-.26600647-2.17500305-.79400635-.522995-.52999878-.79699707-1.25899506-.82798767-2.18599701h7.76899719v-1.58899689c0-1.74900055-.48699951-3.1000061-1.45600891-4.05000305-.97200012-.94799805-2.28799438-1.42199707-3.95098877-1.42199707M179.23770142,65.96330261c.77900696,0,1.352005.24099731,1.72099304.71800232.36801147.47799683.55801392,1.08499908.57400513,1.82099915h-4.61399841c.07400513-.8690033.32000732-1.50800323.74000549-1.92100525.41899109-.41099548.94499207-.61799622,1.57899475-.61799622M194.02180481,63.62500763c-.80799866,0-1.522995.22100067-2.14100647.66300201-.61799622.43999481-1.10198975.96899414-1.45599365,1.58699799h-.15499878l-.48500061-2.02899933h-2.4940033v12.04899597h3.28800964v-6.13499451c0-.76499939.1579895-1.3690033.47599792-1.81000519.31599426-.43999481.73098755-.76199341,1.24699402-.95899963.51300049-.19999695,1.05000305-.29899597,1.61000061-.29899597.147995,0,.32000732.01100159.51899719.03299713.19799805.02300262.34899902.04800415.45300293.07700348l.24200439-3.08900452c-.13200378-.02899933-.30799866-.05199432-.52900696-.06599426-.22099304-.01499939-.41299438-.02200317-.57499695-.02200317M205.71859741,72.31910706c0-.72000122-.13600159-1.30599976-.40800476-1.75499725-.272995-.44700623-.65899658-.82200623-1.1579895-1.12400055-.50100708-.30200195-1.09700012-.59300232-1.78900146-.8730011-.70600891-.29199982-1.23899841-.52899933-1.5980072-.70500183-.36099243-.1760025-.60400391-.34199524-.72900391-.4960022-.12599182-.15499878-.18699646-.32899475-.18699646-.51899719,0-.52999878.48500061-.79399872,1.45600891-.79399872.54499817,0,1.08200073.08399963,1.61099243.25299835.52999878.16899872,1.08900452.3789978,1.67800903.6289978l.99099731-2.36199951c-.72000122-.33699799-1.41900635-.58000183-2.0960083-.72699738-.67700195-.14700317-1.38999939-.22100067-2.13999939-.22100067-1.44299316,0-2.59700012.27999878-3.46499634.83899689-.8690033.55800629-1.30200195,1.39700317-1.30200195,2.51600647,0,.67699432.11700439,1.23899841.35400391,1.68799591.23500061.4489975.59399414.83100128,1.08099365,1.14700317.48500061.31700134,1.10299683.63600159,1.85299683.95999908.78001404.32299805,1.35301208.58899689,1.7210083.79499817.36799622.20500183.60699463.38999939.71800232.5510025.11000061.16199493.16600037.34500122.16600037.55199432,0,.30900574-.13700867.55800629-.40800476.75-.272995.19100189-.73300171.28600311-1.3789978.28600311-.57499695,0-1.23800659-.09500122-1.98699951-.28600311-.75-.19199371-1.44900513-.43399811-2.09700012-.72899628v2.71600342c.60299683.24899292,1.20700073.42899323,1.80999756.53999329.60299683.11000061,1.32400513.16600037,2.16200256.16600037,1.70599365,0,2.99000549-.32699585,3.85099792-.98299408.86199951-.65399933,1.29100037-1.59300232,1.29100037-2.81400299M209.93400574,59.1230011c-.50100708,0-.92300415.11500549-1.26800537.34300232-.34700012.22800446-.51899719.65000153-.51899719,1.26799774,0,.60300446.17199707,1.02300262.51899719,1.25900269.34500122.23500061.76699829.35199738,1.26800537.35199738.48500061,0,.90499878-.11699677,1.25698853-.35199738.35400391-.23600006.52999878-.65599823.52999878-1.25900269,0-.61799622-.17599487-1.03999329-.52999878-1.26799774-.35198975-.22799683-.77198792-.34300232-1.25698853-.34300232M211.56599426,63.8460083h-3.28799438v12.04899597h3.28799438v-12.04899597ZM220.08599854,73.49000549c-.42700195,0-.77200317-.11499786-1.03799438-.34300232-.26400757-.22799683-.39700317-.56900024-.39700317-1.0249939v-5.80500031h3.37599182v-2.47100067h-3.37599182v-2.56100464h-2.0960083l-.94999695,2.53800201-1.80799866,1.10399628v1.39000702h1.56599426v5.80500031c0,1.02899933.16500854,1.83499908.49700928,2.41499329.33099365.58200073.77999878.99000549,1.34500122,1.2250061.56599426.23500061,1.21099854.35399628,1.93099976.35399628.61799622,0,1.18899536-.05599976,1.71099854-.16600037.52099609-.11100006.95899963-.23799896,1.31300354-.38600159v-2.4489975c-.33900452.10199738-.67700195.19000244-1.01400757.26399994-.33999634.07299805-.69400024.11100006-1.05999756.11100006M229.53109741,63.60310364c-.85299683,0-1.67399597.09600067-2.46099854.28600311-.78599548.19199371-1.50498962.45599365-2.15100098.79499817l1.08100891,2.22899628c.55799866-.24900055,1.11700439-.45999908,1.67700195-.62799835.55899048-.17099762,1.13299561-.25499725,1.72099304-.25499725.58900452,0,1.04899597.14699554,1.3789978.44100189.33200073.29499817.49700928.75799561.49700928,1.38999939v.52999878l-2.09700012.06700134c-1.79400635.05899811-3.14100647.39299774-4.03700256,1.0039978-.897995.61000061-1.34700012,1.55500031-1.34700012,2.83499908,0,1.29499817.35299683,2.2559967,1.05900574,2.8809967.70599365.625,1.59700012.93800354,2.67098999.93800354,1,0,1.78700256-.14800262,2.36100769-.44200134.57299805-.29499817,1.11799622-.76499939,1.63299561-1.41200256h.08799744l.63900757,1.63300323h2.29499817v-8.03399658c0-1.44200134-.42900085-2.51200104-1.28900146-3.21100616-.86199951-.69799805-2.10099792-1.04699707-3.7190094-1.04699707M225.82411194,60.75510406c0,.48699951.14498901.84799957.43998718,1.08300018.29400635.23500061.64801025.35199738,1.05900574.35199738.41200256,0,.76899719-.11699677,1.07099915-.35199738s.45199585-.59600067.45199585-1.08300018c0-.51399994-.1499939-.88500214-.45199585-1.11299896-.30200195-.22900391-.65899658-.34300232-1.07099915-.34300232-.41099548,0-.76499939.11399841-1.05900574.34300232-.29499817.22799683-.43998718.59899902-.43998718,1.11299896M231.27410889,70.31110382v.99300385c0,.76499939-.24200439,1.35799408-.72900391,1.77599335-.48500061.42100525-1.08099365.62900543-1.78700256.62900543-.47000122,0-.85299683-.10600281-1.14700317-.31999969-.29499817-.21200562-.44200134-.56900024-.44200134-1.06999969,0-.57300568.20700073-1.03600311.61801147-1.38999939.41099548-.352005,1.14700317-.54400635,2.20700073-.57300568l1.27999878-.04499817ZM230.17010498,60.75510406c0,.48699951.14700317.84799957.44200134,1.08300018.29399109.23500061.65499878.35199738,1.08099365.35199738.41101074,0,.76901245-.11699677,1.07000732-.35199738.30200195-.23500061.45300293-.59600067.45300293-1.08300018,0-.51399994-.15100098-.88500214-.45300293-1.11299896-.30099487-.22900391-.65899658-.34300232-1.07000732-.34300232-.42599487,0-.78700256.11399841-1.08099365.34300232-.29499817.22799683-.44200134.59899902-.44200134,1.11299896M242.99290466,73.49000549c-.42700195,0-.77200317-.11499786-1.03799438-.34300232-.26400757-.22799683-.39700317-.56900024-.39700317-1.0249939v-5.80500031h3.37599182v-2.47100067h-3.37599182v-2.56100464h-2.0960083l-.94999695,2.53800201-1.80799866,1.10399628v1.39000702h1.56599426v5.80500031c0,1.02899933.16500854,1.83499908.49700928,2.41499329.33099365.58200073.77999878.99000549,1.34500122,1.2250061.56599426.23500061,1.21099854.35399628,1.93099976.35399628.61799622,0,1.18899536-.05599976,1.71099854-.16600037.52099609-.11100006.95899963-.23799896,1.31300354-.38600159v-2.4489975c-.33900452.10199738-.67700195.19000244-1.01400757.26399994-.33999634.07299805-.69400024.11100006-1.05999756.11100006M133.77540588,97.96300507l4.06100464-12.33599854h.08799744c-.01400757.29399872-.03199768.73300171-.05599976,1.31299591-.02099609.58200073-.04299927,1.19599915-.06600952,1.84200287-.02198792.64900208-.03199768,1.22100067-.03199768,1.72299957v7.45800018h3.11199951v-15.75699615h-4.54699707l-3.94999695,12.04999542h-.06600952l-3.72999573-12.04999542h-4.54599762v15.75699615h2.98000336v-7.32700348c0-.54499817-.01499939-1.1519928-.0450058-1.81999969-.02899933-.66899872-.05899811-1.29799652-.08799744-1.88700104-.02899933-.58899689-.05200195-1.0289917-.06700134-1.3239975h.08800507l3.79699707,12.35800171h3.06700134ZM149.53359985,85.67140961c-.85299683,0-1.67399597.09600067-2.46099854.28599548-.78601074.19200134-1.50500488.45600128-2.15100098.7950058l1.08099365,2.22899628c.55799866-.24900055,1.11700439-.45999908,1.67700195-.62799835.55900574-.17099762,1.13299561-.25500488,1.7210083-.25500488.58898926,0,1.04899597.14700317,1.3789978.44100189.33200073.2950058.49699402.75800323.49699402,1.38999939v.53000641l-2.09700012.06699371c-1.79400635.05900574-3.14099121.39300537-4.03700256,1.00400543-.897995.61000061-1.34700012,1.55500031-1.34700012,2.83499908,0,1.29499817.35299683,2.2559967,1.05900574,2.8809967.70599365.625,1.59700012.93800354,2.67100525.93800354,1,0,1.7869873-.14800262,2.36099243-.44200134.57299805-.29500198,1.11799622-.76499939,1.63299561-1.41200256h.08799744l.63900757,1.63300323h2.29499817v-8.03400421c0-1.44199371-.42900085-2.51200104-1.28900146-3.21099854-.86199951-.69799805-2.10099792-1.04699707-3.71899414-1.04699707M151.27659607,92.37940979v.99299622c0,.76499939-.24200439,1.35800171-.72900391,1.77600098-.48500061.42100143-1.08099365.62900162-1.7869873.62900162-.47000122,0-.85301208-.10599899-1.14700317-.31999969-.29499817-.2120018-.44200134-.56900406-.44200134-1.07000351,0-.57299805.20700073-1.03599548.61799622-1.38999939.41099548-.35199738,1.14700317-.54399872,2.20700073-.57299805l1.27999878-.04499817ZM164.64950562,85.69330597c-.80799866,0-1.522995.22100067-2.14100647.66300201-.61799622.43999481-1.10198975.96899414-1.45599365,1.58699799h-.15499878l-.48500061-2.02899933h-2.4940033v12.04899979h3.28800964v-6.13499832c0-.76499939.1579895-1.3690033.47599792-1.81000519.31599426-.43999481.73100281-.76199341,1.2460022-.95899963.51399231-.19999695,1.05099487-.29899597,1.61099243-.29899597.14799083,0,.32000732.01100159.51899719.03299713.19799805.02300262.34899902.04800415.45300293.07700348l.24200439-3.08900452c-.13200378-.02899933-.30799866-.05199432-.52900696-.06599426-.22099304-.01499939-.41299438-.02200317-.57499695-.02200317M171.22579956,81.19091034h-3.28799438v16.77199936h2.51599121l.55101013-1.32400131h.22099304c.32400513.39699936.74000549.75500107,1.24899292,1.07099915.50601196.31600189,1.20100403.47399902,2.08500671.47399902,1.38200378,0,2.5-.52999878,3.35400391-1.58899689.85299683-1.06000137,1.2789917-2.6190033,1.2789917-4.67900085,0-2.04399872-.41799927-3.59300232-1.25698853-4.64600372-.83900452-1.04999542-1.93400574-1.57699585-3.28800964-1.57699585-.86799622,0-1.57499695.17299652-2.11999512.51899719-.54400635.34500122-.97799683.76900482-1.30200195,1.26800537h-.1309967c.0289917-.24900055.05799866-.59600067.08799744-1.03600311.0289917-.44200134.04299927-.89099884.04299927-1.34700012v-3.90599823ZM173.58779907,88.31890869c.69099426,0,1.23899841.29799652,1.64500427.89399719.4039917.59700012.60699463,1.48200226.60699463,2.66000366,0,1.1760025-.19900513,2.07800293-.59599304,2.70300293-.39700317.62499619-.93600464.93699646-1.61100769.93699646-.91200256,0-1.54100037-.31200027-1.88800049-.93699646-.34399414-.625-.51899719-1.51900482-.51899719-2.68100739v-.35399628c.03100586-1.08799744.21800232-1.89800262.56399536-2.4260025.34500122-.52999878.94500732-.79599762,1.79800415-.79599762M189.67601013,85.91420746v5.67199707c0,1.27799988-.18501282,2.26100159-.55200195,2.94499969-.36799622.68400192-1.05200195,1.02700424-2.05200195,1.02700424-.67700195,0-1.16999817-.22100067-1.47799683-.6629982-.30900574-.44100189-.46400452-1.08800507-.46400452-1.94100189v-7.04000092h-3.28799438v7.85500336c0,1.54499817.38999939,2.666996,1.16899109,3.36599731.77900696.6989975,1.81700134,1.04899979,3.11100769,1.04899979.75,0,1.45999146-.13999939,2.12998962-.42100143.66900635-.27799988,1.19599915-.72699738,1.57800293-1.34500122h.17601013l.44198608,1.54500198h2.51600647v-12.04899979h-3.28799438ZM203.13609314,85.69330597c-.80799866,0-1.522995.22100067-2.14100647.66300201-.61799622.43999481-1.10198975.96899414-1.45599365,1.58699799h-.15499878l-.48500061-2.02899933h-2.4940033v12.04899979h3.28800964v-6.13499832c0-.76499939.1579895-1.3690033.47599792-1.81000519.31599426-.43999481.73098755-.76199341,1.24699402-.95899963.51300049-.19999695,1.05000305-.29899597,1.61000061-.29899597.147995,0,.32000732.01100159.51899719.03299713.19799805.02300262.34899902.04800415.45300293.07700348l.24200439-3.08900452c-.13200378-.02899933-.30799866-.05199432-.52900696-.06599426-.22099304-.01499939-.41299438-.02200317-.57499695-.02200317M210.10971069,85.69281006c-1.44200134,0-2.57400513.55199432-3.39801025,1.65499878-.82398987,1.10399628-1.23599243,2.64099884-1.23599243,4.61299896,0,1.95600128.40100098,3.48300171,1.20399475,4.57799911.80099487,1.09700012,1.91600037,1.64500046,3.34199524,1.64500046.72200012,0,1.36801147-.13999939,1.94300842-.41999817.57299805-.27899933,1.06500244-.73500061,1.47799683-1.36700058h.08799744c-.01399231.20499802-.03199768.43999863-.05499268.70599747-.02200317.26399994-.03300476.52300262-.03300476.77200317v.24299622c0,1.82400131-.84599304,2.73700333-2.53700256,2.73700333-1.64900208,0-3.21499634-.30900192-4.70199585-.92700195v2.62599945c.69099426.26400375,1.4019928.44900131,2.13000488.5510025.72898865.10200119,1.51899719.15399933,2.37199402.15399933,1.98600769,0,3.48800659-.44900131,4.50300598-1.34500122,1.01399231-.89799881,1.522995-2.20699692,1.522995-3.92899704v-12.07099915h-2.78100586l-.26499939,1.54499817h-.08799744c-.83900452-1.1760025-2.00099182-1.76599884-3.48799133-1.76599884M211.14770508,88.36380768c.88200378,0,1.522995.27799988,1.91999817.83899689.39700317.55800629.5960083,1.48500061.5960083,2.78000641v.39699554c0,1.19200134-.20300293,2.02700043-.60700989,2.50500488-.4059906.47799683-1.0269928.71699524-1.86399841.71699524-1.57499695,0-2.36199951-1.19799805-2.36199951-3.59799957,0-2.4260025.772995-3.63999939,2.31700134-3.63999939"/>
                <path style="fill: var(--unimr-logo-color)" d="M104.17178274,94.1825005l.00063931-.00128846c.34162761-.66392838.74127506-1.43291016.77349629-1.51025684,0,0-6.34719783-7.00725101-15.62917294-12.3534172,0,0-2.3204987-1.36522198-2.95734492-1.89957697-1.08805157-.91337732-1.34266417-1.88798087-1.2923849-3.62577306.58012467-.32229094,2.81618035-1.75455195,3.66960514-3.608374,4.44761594.5118021,10.33973323-.7625395,10.56727842-6.70043138,1.20021114-1.49348724,1.7403691-3.41692523,1.52442985-5.14117389-.61686533-4.91752357-3.42788202-7.15873798-7.55320703-9.85823934-5.03547627-5.15665502-13.89267412-7.18902161-22.05243392-5.64202903-3.74180292.04963996-6.742975.45378226-9.27424438,1.28142319-3.66445132,1.19828338-6.35815708,3.22807305-9.00867745,5.89213695-1.09192186.66004335-6.53735077,4.01057869-6.95439483,9.57009739-.30875478,4.11888764,1.5850266,7.03754447,4.55783791,7.40173481,2.02463339,2.70725176,3.77144969,3.44206487,6.54444219,3.39694925,1.00168079-.01612045,1.80675899-.13600583,2.41975895-.26685784-.14954445.76125104-.07476977,1.43291016.22302576,1.97693349.58012467,1.06355616,1.40905406,1.14542719,1.77066748,1.16411471.36160851.01804821,1.06162348-.13665498,1.06162348-.13665498,0,1.97177966.70517372,2.9992394,1.22857192,3.61739319-.18112637.84633829-.23913638,2.09554025.69743806,3.24547212,1.33492852,1.63788279,4.40636077.6536109,5.38612798.36032497v.00257691l-.02642809,1.68686377c-1.81514379.22560759-3.88876554.70969315-5.93595428,1.48447789-8.92036906,3.37502584-18.71930256,10.75678466-18.71930256,10.75678466,0,0,.66778637.94431009.88694431,1.25112973l-2.74140567,2.01625597c1.81256442,3.41692523,5.34874064,6.48191521,5.34874064,6.48191521,0,0,1.03519785-1.2388894,1.22405987-1.47029504,1.1106143.97460847,3.66767,3.11011051,6.25437739,4.51916457-.2139992.4808595-.67229843,1.3942319-.79219119,1.59082957l1.50380964.84504491c1.21503822-2.3121139,2.0149626-3.94484286,2.70466501-5.57692268.5382302,1.10997007,1.19634578,1.93181295,1.72039312,2.47326429-.86052113.4234888-1.55086778,1.3433084-1.81127842,2.23605076-.40608481,1.39036162.28941565,2.58090442,1.50638655,2.97861428.98750286.32357939,2.36046049.11022197,3.05145136-1.36458267.4054455-.86502581.29586285-1.85961518.01031256-2.89674817.80959763-.09797672,1.89249538-.36934416,3.10881714-1.03842145l-.00128846.00322114c-.07734668.25138654-1.18796098,4.14144053-1.65012803,6.80034078l1.75971069.3480748c.10377477-.50857605.23204987-1.11125853.3815894-1.77388862,1.77518199.37836826,6.23439895,1.03842144,9.5649534.79283296-.04770236.34227184-.28039646,2.13421359-.28039646,2.13421359,22.63449619-2.09360265,30.16579455-18.72833158,30.16579455-18.72833158l-2.93671488-2.71497265ZM102.77368056,92.89849057c-2.58284202,5.48217202-8.22422191,10.73744308-16.27569242,14.30971573-1.25049042-2.86838739-5.36292103-11.12547968-9.69386781-11.16415301-1.74746053-.01289439-3.32733331,1.23952379-4.26520112,2.32565252l-.10248632-.03416866c1.28658685-2.96765748,3.44851206-5.33713716,5.45960929-6.14286451,6.60696425-2.64923191,8.95002075-8.18941394,9.94911972-10.94822359,3.06176392,1.90796669,10.22306898,6.4909344,14.92851866,11.65404154M77.47513029,111.87175658c-4.1163009.18177551-7.94898419-.58849964-9.39477891-.94044472.20884292-.82764093.78574153-3.33957855,1.05646474-4.24457108.98428172-3.28543391,4.05764666-8.74311052,7.8735702-8.57551294.81217454.03222123,1.70749873.55626857,2.59057276,1.41356365l.00129337.00064423c-.36161342,1.908606-1.4161504,7.64409724-2.12712216,12.34632086M84.47077537,73.21940662c-2.13807896-.68261591-3.28607814-2.49066335-3.73083629-3.28349631.87018455-1.57923347,1.13510479-3.06176392.81926105-4.18978221-.25783373-.92819948-.75415962-1.53088196-1.75970577-1.97564503-1.57665164-.70259189-2.93865248-.00902902-3.82559679,1.02617128l-.09668827-.02835586c.13085201-1.58116124-.58656695-5.09541896-3.25706822-6.33560173-1.30786112-.60590854-3.81141394-.92368497-5.93208891-1.21374484.63168749-1.2440383,1.39487613-2.01561666,1.82029761-2.3056667,11.6153682-1.73392683,18.80825517,4.70157448,19.80735905,6.24857688,2.14001164,7.18708401-2.51709145,11.49676143-3.84493346,12.05754452M52.5936241,67.74884053c1.45740065-.43445542,3.31250623-1.44450626,5.73742639-3.35633831l-.7580299-.97074802c-2.92704654,2.19932486-6.20539149,3.70829324-7.96252035,2.5332119-1.23115129-.82377556-1.9563059-2.74526611-1.80482877-4.9903459.19143893-2.83680548,2.00207066-6.05263328,5.42931338-8.23582785,1.24146385,1.21954781,3.14491357,2.31662349,5.67489695,3.26609724l.60462008-1.15702329c-2.60733252-.9791279-3.95257852-2.27602239-4.75508227-3.20808723,2.32178469-2.19158429,4.91365082-3.9325927,7.95542893-4.9349128,2.32436406-.76577539,4.90591271-1.09514792,7.660857-1.21826919-.04963505,1.092571.07928428,2.2379982,1.32976978,4.46953444l1.27627428-.25073739c-.95913717-2.28762832-.81023694-3.45109389-.68196676-4.39025016,4.14014716-.51244141,7.78267998-.23849215,10.8289726.56916297,3.68700913.97718046,6.5102809,2.71046798,8.40083869,4.44890932-.38481546.81603499-1.272404,2.15547802-3.30477058,3.4227282l.94431009.7606019c2.28762341-.92626188,3.4027473-2.13614135,3.948064-3.04112896,1.86090855,1.1731339,5.65362514,4.04797341,5.86053537,8.17974561.06961594,1.38712572-.21979479,2.79554539-1.21310062,3.83718797-.79541479.83408321-2.5029086,1.87250957-4.47275066,1.48640565l-.23204987,1.17958602c.51566255.10313546,2.53578389.45829677,4.09954114-.43186868l.07734668.05801001v.00644228l.01934159-.00644228.00322114-.00128846c-.71548628,3.26803484-4.82920535,4.1182385-7.73756437,3.94291018,2.02785699-4.6396991.17855437-9.3793076.16050616-9.42056769,0,0-2.58800077-4.32385044-10.10060177-6.29111559-8.32799669-2.18126681-15.00908647.13535669-16.81069164.83794857l.38674814,1.04422933c.97524778-.27717532,2.78781466-.63491354,2.78781466-.63491354l.02062513.03802419c-1.38971739,1.72039312-2.67178972,4.57524681-2.99408066,5.49700401-.4254264,1.22470163-.27845886,2.82262263-.18177059,3.45431011-.43960925.94044472-1.41034743,2.80586287-2.59508727,5.07350538-1.22212964.32873322-5.219182,1.40840983-7.60155608-1.56568993M67.14699317,80.22665763c-.86180467.10119786-1.87444225-.42929177-1.84930262-1.86993266.00644228-.34807972.08637078-1.21310553.08637078-1.21310553,0,0-.39577225-.45571986-.62782212-.75996259.76576555-.04963013,2.10649212-.25202585,3.5845179-.83086699l-.21529011-1.08289283c-1.39165007.26428093-2.60088532.32615631-4.05828597.01997598.17016958-1.93309649-.41962343-2.30180134-.41962343-2.30180134,0,0-1.69460434.36226257-1.91891856.31133415-.22495845-.05156773-.33002659-.15082799-.39448379-.27330012-.11602493-.21916531-.0908853-.79219365.34743058-1.66237328,1.4567515-2.8877339,2.94573899-6.13642223,2.94573899-6.13642223,0,0-.39641648-1.61209401.02836078-2.91608975.21915548-.67229843.78252531-1.77646553,1.16798008-2.62409228.02771655.00386537,3.71537482.18434751,6.1422252,1.21310553,2.08779968.88565094,2.57832751,4.01960771,2.48486039,5.95786786l1.80483123.4963308s1.42710227-1.79903809,2.75880965-1.26982709c1.88411059.74835665.44991689,3.62512392-.08057273,4.47339981-.32422362.51888369-.9552718,1.08804666-1.59533916,1.12801829-.18886202.0115961-.64458188.05801001-1.07000828-.34162761l-.51566255.85084296c.38674814.56722536.88371825.91143972,1.50638655.99007485,1.02359437.12892424,1.96919783-.57302833,2.38688367-.96944973,1.13188857,1.80354277,3.04500416,2.95798915,3.71021608,3.14621186-.05156773,1.89506246.47763344,4.44761102,2.80715133,5.73483718-3.52006069,3.90616461-10.35907481,6.94859186-14.65198756,5.52407142l-.0709044-5.07286607c2.05621776-1.02488283,4.125325-2.69434753,5.52471073-5.27912716l-.97976721-.59945643c-2.00528934,3.71279791-6.4155204,5.07285623-8.83850541,5.35712298M69.81620598,84.70392281l-.03867334,2.27085873s1.29561095.96043054,3.87393846.9024107c5.32424769-.08378896,9.67452622-2.72141493,11.58184376-4.70480053l.06832749.0573707s-2.94638321,5.55048967-8.13075479,7.41913388c-2.54223108.91595423-4.48628928,3.40339153-6.05907064,6.33624104v.00064915c-1.33557275-.08379879-4.62036243-.41060424-8.37182876-1.67205145,1.27885119-4.32642735,3.00761928-7.96638326,7.07621781-10.60981221M66.75444206,85.15061364l.03158683.05091858c-3.7353508,2.9702344-5.48603739,8.9706508-6.0693832,11.28986104l-.06961594-.00645211c-.25009808-.67100997-.66649546-1.20923033-1.26144721-1.39422698-.71290445-.22238153-2.58606316-.8353815-8.3492685,4.62487694-1.37746968-1.37682791-2.68468165-3.17714463-3.3672951-4.10985862,2.92704654-2.36626346,13.02829008-8.75148548,19.08542312-10.45511885M48.44638551,102.57817553c-1.2234181-1.25500001-2.29793597-2.61635662-2.88901743-3.57162842l1.50123273-1.18281207c.70775063.89726179,1.82738903,2.22832494,2.78717043,3.1848852-.37063261.39319534-1.00490193,1.12544138-1.39938572,1.5695553M56.8929865,106.56942739c-2.40558102-1.31816876-4.76603906-3.50007979-5.74967163-4.45986119,2.73367247-3.06949957,5.28299252-5.0296733,6.47547047-5.21466995.65940895-.10248632,1.31945722-.03029346,1.6114547.82635247.30488695.89532911.03609643,2.46939892-.52598003,4.26326844l-.00837988.00128846.00257691.01675976c-.45829677,1.45933333-1.10868162,3.06240815-1.80547054,4.56686202M62.26944615,97.05926777c3.33506404,1.10803247,6.286606,1.51992517,7.97927765,1.6714023l-.00064423.00128846c-.82441979,1.77839822-1.5205694,3.67862925-2.12583371,5.51504239-2.35272484,2.18126189-4.4469668,2.6511646-5.07027932,2.61957776-.51953284-.43702742-1.91183205-2.22703157-2.36561923-4.74476724.66134164-1.82932172,1.16734077-3.51426264,1.58309884-5.06254367M79.0337288,113.66885215c.57110057-4.04217536,1.54183875-9.46890936,2.07619866-12.37726347,2.15805985,2.50033661,4.35672573,8.20488524,4.35672573,8.20488524,0,0,11.37364999-3.46914211,17.74533832-13.6393549l.0019376-.00257691,1.75455195,1.43419861c-8.68251869,13.09274483-21.8854904,15.94050709-25.93475226,16.38011142M65.59032734,63.73973718c.0844381-.03996179,3.28929928-1.28078388,5.95078135.97138733l-.44025347.93206484s-1.63143559-.66972152-2.1838388-.60139403l-.02578387.10700083c.3525844.44540238.16629929,1.0751621-.18564088,1.33685628l-1.2169709.15341474-.39319534-1.09192186-.12569327-.34614212c-.34549789.11151534-.54402825.23591524-.5807689.26428093l-.79863592-1.72554695"/>
             </g>
        </symbol>
        <symbol id="logo-en" viewBox="0 0 289.133858 158.740157">
            <g id="Ebene_1">
        <rect id="uuid-a4cd2a4b-661b-43bb-a1f1-e540e99b1ee8" style="fill: none" width="100%" height="100%"/>
        <path style="fill:var(--unimr-logo-color)" d="M104.48119232,94.07908181l.00063533-.00128045c.33950037-.65980147.73665931-1.42400332.7686799-1.50086922,0,0-6.30767527-6.96369459-15.53185363-12.27662951,0,0-2.30604948-1.35673589-2.93893021-1.88776938-1.08127652-.90769985-1.33430371-1.87624536-1.28433751-3.6032356.57651237-.32028761,2.79864463-1.74364582,3.64675535-3.58594468,4.41992165.50862079,10.27535005-.75779962,10.50147838-6.65878212,1.1927377-1.48420386,1.72953222-3.39568594,1.51493757-5.10921683-.61302425-4.8869567-3.40653738-7.11423993-7.50617492-9.79696143-5.0041215-5.12460174-13.8061676-7.14433532-21.91511842-5.60695871-3.71850356.04933141-6.70098803.45096159-9.21649576,1.27345798-3.64163362,1.19083496-6.31856628,3.20800765-8.95258246,5.85551198-1.08512271.65594058-6.49664417,3.9856493-6.91109139,9.51061055-.30683223,4.09328502,1.575157,6.99379975,4.52945729,7.35572631,2.01202646,2.69042373,3.74796573,3.42066931,6.50369143,3.37583413.99544355-.01602025,1.79550871-.13516043,2.40469166-.26519908-.14861327.75651917-.07430419,1.42400332.22163703,1.96464505.57651237,1.0569452,1.4002802,1.13830732,1.75964194,1.15687869.35935685.01793603,1.05501299-.13580554,1.05501299-.13580554,0,1.95952326.70078276,2.98059641,1.22092188,3.5949078-.17999853.84107753-.23764733,2.08251457.69309528,3.22529856,1.32661622,1.62770186,4.37892337.64954812,5.35258979.35808522v.00256089l-.02626353,1.67637838c-1.8038413.22420524-3.86455108.70528176-5.89899244,1.47525051-8.86482395,3.35404699-18.60274171,10.68992149-18.60274171,10.68992149,0,0,.66362822.93844035.88142151,1.24335282l-2.72433555,2.00372311c1.80127799,3.39568594,5.31543525,6.44162422,5.31543525,6.44162422,0,0,1.02875191-1.23118858,1.21643792-1.46115582,1.10369876.96855039,3.64483225,3.09077835,6.21543281,4.49107386-.21266667.47787052-.66811218,1.38556548-.78725839,1.58094112l1.49444576.83979219c1.20747245-2.29774201,2.00241588-3.92032209,2.68782368-5.54225705.53487876,1.1030706,1.1888964,1.91980498,1.70968063,2.4578907-.85516287.42085643-1.54121087,1.33495852-1.8,2.22215167-.40355621,1.38171926.28761352,2.56486176,1.49700662,2.96009948.9813539.32156806,2.34576244.10953684,3.03245066-1.35610055.40292089-.85964889.29402058-1.84805598.01024835-2.87874225.80455645-.09736771,1.88071125-.36704835,3.08945924-1.03196671l-.00128043.00320112c-.07686506.24982394-1.18056382,4.11569772-1.63985306,6.75807049l1.74875337.3459112c.10312859-.50541478.23060495-1.10435105.37921333-1.76286229,1.76412834.37601636,6.19557877,1.03196671,9.50539461.78790478-.04740533.34014431-.2786505,2.12094751-.2786505,2.12094751,22.49355632-2.08058901,29.977959-18.61191801,29.977959-18.61191801l-2.91842862-2.69809664ZM103.0917958,92.80305316c-2.56675925,5.44809535-8.17301155,10.67070013-16.17434738,14.22076786-1.2427039-2.85055776-5.32952734-11.05632472-9.6335063-11.09475767-1.73657949-.01281424-3.30661476,1.23181903-4.23864268,2.31119648l-.10184816-.03395627c1.27857556-2.9492108,3.42703896-5.30396201,5.42561355-6.10468104,6.56582418-2.63276453,8.89429101-8.1385093,9.88716881-10.88017045,3.04269901,1.89610694,10.15941225,6.45058735,14.83556216,11.58160109M77.95077386,111.65838311c-4.09066963.18064561-7.89948767-.58484158-9.33627975-.93459901.2075425-.82249639.7808489-3.31882004,1.04988638-4.21818722.97815282-3.26501196,4.03238062-8.68876416,7.82454326-8.52220835.80711732.03202094,1.69686653.55281086,2.57444185,1.40477707l.00128532.00064022c-.35936174,1.89674228-1.40733235,7.59658224-2.11387706,12.26957727M84.90285865,73.24629257c-2.12476562-.67837283-3.26561648-2.47518162-3.70760522-3.2630864.86476611-1.5694171,1.12803675-3.04273228.8141597-4.16373891-.25622826-.92242988-.74946364-1.52136614-1.74874849-1.9633646-1.56683419-.69822464-2.92035416-.0089729-3.80177567,1.0197927l-.09608621-.0281796c.13003722-1.57133288-.58291453-5.06374631-3.23678719-6.29622022-1.29971736-.60214227-3.78768113-.91794343-5.89515114-1.20620032.62775411-1.23630548,1.38619055-2.00308777,1.80896303-2.29133489,11.54304194-1.7231489,18.69114044,4.67234992,19.68402312,6.20973631,2.12668627,7.14240976-2.50141809,11.42529863-3.82099193,11.98259594M53.22419915,67.80973102c1.44832575-.43175489,3.29188001-1.43552734,5.70170073-3.33547562l-.75330982-.96471394c-2.90882049,2.18565406-6.16675193,3.68524283-7.91293955,2.51746569-1.22348519-.81865505-1.94412443-2.72820179-1.79359051-4.95932637.19024688-2.81917216,1.98960422-6.01501067,5.39550627-8.18463471,1.23373354,1.21196722,3.1253309,2.30222358,5.63956065,3.24579548l.60085525-1.14982817c-2.59109725-.9730449-3.92796671-2.26187801-4.72547345-3.18814923,2.30732747-2.1779616,4.88305464-3.90814807,7.90589228-4.90423784,2.30989078-.7610154,4.87536471-1.08834058,7.61315458-1.21069654-.04932598,1.08577968.07879059,2.22408701,1.3214896,4.44175223l1.26832721-.24917883c-.95316484-2.27340864-.80519178-3.42964221-.67772031-4.36296077,4.1143674-.50925612,7.734219-.2370097,10.76154305.5656251,3.66405096.9711064,6.46974286,2.69361996,8.34852857,4.42125531-.3824193.81096259-1.26448103,2.14207977-3.28419253,3.40145284l.93843009.75587406c2.2733789-.92050432,3.38155917-2.1228633,3.92348031-3.02222558,1.8493211,1.16584181,5.6184213,4.02281158,5.82404314,8.12890107.06918246,1.37850348-.21842618,2.77816854-1.20554691,3.81333637-.79046192.82889862-2.48732356,1.86087022-4.44489986,1.47716629l-.23060495,1.17225382c.51245164.10249438,2.51999414.45544804,4.07401423-.42918422l.07686506.05764942v.00640223l.01922115-.00640223.00320108-.00128045c-.71103111,3.24772104-4.79913498,4.09263991-7.68938431,3.91840142,2.01522998-4.61085916.17744256-9.3210067.15950672-9.36201031,0,0-2.57188587-4.29697379-10.03770761-6.2520106-8.27614014-2.16770825-14.9156283.13451532-16.70601528.83273996l.38433995,1.0377385c.96917513-.27545243,2.77045557-.63096698,2.77045557-.63096698l.0204967.03778784c-1.38106393,1.70969932-2.65515309,4.5468075-2.9754372,5.46283515-.42277737,1.217089-.27672496,2.80507747-.18063875,3.43283844-.4368719.93459901-1.40156552,2.78842189-2.57892825,5.04196894-1.21451972.32668984-5.18668334,1.39965529-7.55422291-1.55595775M67.6869477,80.20998716c-.85643841.10056882-1.86277053-.42662333-1.83778743-1.85830933.00640216-.34591609.08583297-1.20556498.08583297-1.20556498,0,0-.39330787-.45288715-.62391281-.75523873.7609973-.04932163,2.09337547-.25045928,3.56219792-.82570239l-.21394955-1.07616167c-1.38298458.26263818-2.5846902.32412895-4.03301595.01985181.16910997-1.92108054-.41701053-2.28749355-.41701053-2.28749355,0,0-1.68405242.36001078-1.90696989.30939892-.22355768-.05124719-.32797159-.14989046-.39202743-.27160131-.11530247-.217803-.09031938-.78726944.34526721-1.65204012,1.44768064-2.86978401,2.92739654-6.0982788,2.92739654-6.0982788,0,0-.39394808-1.60207338.02818418-2.89796361.21779085-.66811948.7776527-1.76542319,1.16070733-2.60778116.02754396.00384134,3.69224003.18320162,6.10397896,1.20556498,2.07479943.88014581,2.56227285,3.9946222,2.46938772,5.92083431l1.79359295.49324565s1.41821603-1.78785544,2.74163117-1.26193396c1.87237866.74370493.44711536,3.60259048-.08007103,4.44559357-.32220476.51565836-.94932354,1.08128346-1.58540535,1.12100663-.18768602.01152402-.64056821.05764942-1.06334558-.33950408l-.51245164.8455542c.38433995.56369954.87821554.9057743,1.49700662.98392064,1.01722068.12812286,1.95693609-.56946644,2.37202108-.96342372,1.12484056,1.79233212,3.02604361,2.93960256,3.68711341,3.1266553-.05124663,1.88328293.47465933,4.41996765,2.78967183,5.69918996-3.49814207,3.88188425-10.29457121,6.90540006-14.56075296,5.4897343l-.07046289-5.0413336c2.04341416-1.01851225,4.09963754-2.67759971,5.49030961-5.24631259l-.97366642-.59573026c-1.99280286,3.6897195-6.37557242,5.04132383-8.78347005,5.3238236M70.33953993,84.65942207l-.03843253,2.25674328s1.28754348.95446059,3.84981633.89680139c5.29109481-.08326813,9.61428514-2.70449887,11.50972625-4.67555593l.06790203.05701409s-2.92803675,5.51598834-8.08012642,7.37301723c-2.52640119.91026075-4.45835418,3.38223636-6.02134218,6.29685556v.00064511c-1.32725644-.08327791-4.59159248-.40805197-8.31969929-1.66165813,1.27088808-4.29953468,2.98889152-7.91686496,7.03215581-10.5438626M67.29684092,85.10333632l.03139015.05060208c-3.71209162,2.95177169-5.45187708,8.91489006-6.03159053,11.21968431l-.06918246-.00641201c-.24854078-.66683904-.66234534-1.20171387-1.25359246-1.3855606-.70846536-.22099923-2.56996034-.83018884-8.2972795,4.59612914-1.36889249-1.36826968-2.66796475-3.15739579-3.34632772-4.08431212,2.90882049-2.35155498,12.94716588-8.69708706,18.96658252-10.3901308M49.10278448,102.4225701c-1.21580015-1.24719905-2.28362724-2.60009359-2.87102818-3.54942751l1.49188489-1.17545982c.70334362.89168449,1.8160103,2.21447388,2.76981535,3.16508825-.36832477.39075127-.99864463,1.11844772-1.39067207,1.55979909M57.4967904,106.3890127c-2.39060202-1.30997515-4.73636201-3.47832362-5.71386973-4.4321391,2.71665052-3.05041985,5.25009653-4.99840932,6.43514919-5.18225605.65530296-.10184927,1.31124126-.03010516,1.60142053.82121594.30298849.88976382.03587166,2.45404936-.52270487,4.23676836l-.0083277.00128045.00256087.01665558c-.45544306,1.45026225-1.10177811,3.0433725-1.79422828,4.53847483M62.83977206,96.93796736c3.31429735,1.10114504,6.24746073,1.51047746,7.9295925,1.66101302l-.00064022.00128045c-.81928631,1.76734386-1.51110116,3.65576323-2.11259663,5.4807614-2.33807496,2.16770337-4.41927654,2.6346852-5.03870784,2.60329471-.51629782-.4343109-1.89992751-2.21318855-2.35088906-4.71527421.65722361-1.81795082,1.16007201-3.49241831,1.57324124-5.03107537M79.49966733,113.4443081c.56754445-4.01704957,1.53223807-9.4100515,2.06327064-12.30032754,2.1446221,2.48479475,4.32959739,8.15388444,4.32959739,8.15388444,0,0,11.30282886-3.44757824,17.63484213-13.55457394l.00192554-.00256089,1.74362675,1.42528377c-8.62845461,13.01136154-21.74921442,15.84142238-25.77326245,16.27829417M66.13997488,63.82554787c.08391232-.0397134,3.26881756-1.27282264,5.91372719.96534928l-.43751212.92627122s-1.62127701-.66555859-2.17024053-.59765582l-.02562331.10633572c.35038894.4426338.16526378,1.06847899-.18448494,1.32854651l-1.2093931.15246112-.390747-1.08513457-.12491061-.34399053c-.34334656.11082217-.54064071.23444881-.57715259.26263818l-.793663-1.71482111"/>
      <path style="fill: var(--unimr-logo-color)" class="uuid-4c64eaf4-67bb-47be-b55e-536a00b822b7" d="M131.15587516,75.32516754l-3.75899887-12.23600006h-.0870018c.01399994.29100037.03699875.72699738.06500244,1.30999756.02899933.58300018.05899811,1.20600128.08699799,1.8690033.03100204.66200256.04500198,1.26300049.04500198,1.80200195v7.25499725h-2.95000076v-15.60299683h4.50099945l3.69300079,11.93299866h.06599808l3.90999985-11.93299866h4.50300217v15.60299683h-3.08200073v-7.38500214c0-.49599457.01099777-1.06399536.03199768-1.70599365.02300262-.64000702.04500198-1.2480011.06600189-1.82400513.02299881-.57499695.04100037-1.00799561.05500031-1.30000305h-.0870018l-4.02099991,12.21500397h-3.03699875ZM149.79568,63.15486419c-.84400177,0-1.65699768.09399414-2.43599701.28199768-.77900696.19100189-1.49000549.45199585-2.13000488.78800201l1.06999969,2.20700073c.5530014-.24700165,1.10600281-.45500183,1.66100311-.62200165.5530014-.16899872,1.12200165-.25299835,1.70400238-.25299835.58299255,0,1.03799438.14599609,1.36499786.43799591.32899475.29100037.49299622.75.49299622,1.37599945v.52500153l-2.07699585.06500244c-1.77700043.05899811-3.11000061.38999939-3.9980011.99399567-.88899994.60500336-1.33300018,1.54000092-1.33300018,2.80799866,0,1.28200531.34999847,2.23400116,1.04899979,2.85300446.69900131.61899567,1.58099747.9280014,2.64400101.9280014.99099731,0,1.76899719-.14600372,2.33899689-.43700409.56700134-.29199982,1.10600281-.75799561,1.61600494-1.39800262h.08699799l.63299561,1.61600494h2.27300262v-7.95400238c0-1.4280014-.42500305-2.48799896-1.27700043-3.18000031-.85399628-.69100189-2.08100128-1.03599548-3.68299866-1.03599548M151.52267738,69.79686248v.98300171c0,.75699615-.23999786,1.34399414-.72200012,1.75899506-.47999573.41600037-1.07099915.62200165-1.76899719.62200165-.46600342,0-.84500122-.10500336-1.13700104-.31600189-.29100037-.20999908-.43699646-.56399536-.43699646-1.05999756,0-.56800079.20399475-1.02600098.61100006-1.3769989.40799713-.34799957,1.13699341-.53900146,2.18599701-.56700134l1.26799774-.04399872ZM164.76377388,63.17586029c-.80000305,0-1.50800323.21900177-2.12000275.65599823-.61100006.43600464-1.09199524.95999908-1.44199371,1.5719986h-.15299988l-.48000336-2.00899506h-2.47000122v11.93000031h3.25600433v-6.07400513c0-.75799561.15699768-1.35499573.47099304-1.79299927.31300354-.43599701.72400665-.7539978,1.23400116-.9489975.50900269-.19799805,1.04100037-.29599762,1.59600067-.29599762.14500427,0,.31600189.01099396.51300049.03199768.19599915.02300262.34500122.04799652.4489975.07700348l.24000549-3.05900574c-.13200378-.02799988-.30599976-.05099487-.52500153-.06599426-.21900177-.01399994-.40899658-.02100372-.56900024-.02100372M171.27627845,58.71766174h-3.25600433v16.60699463h2.49100494l.54599762-1.30999756h.21900177c.31999969.39300537.73199463.74700165,1.23500061,1.05999756.5019989.31300354,1.18999481.46900177,2.06499481.46900177,1.3690033,0,2.47499847-.52399445,3.3219986-1.5739975.84500122-1.0490036,1.26600647-2.59200287,1.26600647-4.63200378,0-2.02399445-.41400146-3.55799866-1.24500275-4.60099792-.83000183-1.04000092-1.91500092-1.56099701-3.2559967-1.56099701-.85900116,0-1.55900574.17099762-2.0980072.51399994-.53899384.34199524-.96899414.76100159-1.28899384,1.2559967h-.13000488c.02799988-.2480011.05699921-.59099579.08700562-1.02700043.02799988-.43699646.04299927-.88199615.04299927-1.33300018v-3.86799622ZM173.61427589,65.7756604c.68499756,0,1.22699738.29499817,1.6289978.88600159.40000153.58999634.60100555,1.46699524.60100555,2.63299561,0,1.16500092-.19700623,2.05800629-.59000397,2.67700195-.39299774.61800385-.92700195.9280014-1.59600067.9280014-.90299988,0-1.52500153-.30999756-1.86899567-.9280014-.34100342-.61899567-.51300049-1.50499725-.51300049-2.65499878v-.35099792c.02999878-1.07700348.21499634-1.87900543.55799866-2.40200043.34099579-.52500153.93499756-.78800201,1.77999878-.78800201M189.54428383,63.39456451v5.61599731c0,1.26599884-.18300629,2.23900604-.54600525,2.91600037-.36499786.6780014-1.04199982,1.01700592-2.03299713,1.01700592-.66999817,0-1.15699768-.21800232-1.46299744-.65600586-.30600739-.43699646-.45900726-1.07699585-.45900726-1.92199707v-6.97100067h-3.2559967v7.77799988c0,1.52999878.38600159,2.64099884,1.15800476,3.33300018.77099609.69200134,1.79899597,1.03800201,3.0799942,1.03800201.74300385,0,1.44499969-.13800049,2.10900116-.41600037.66300201-.27500153,1.18399811-.72000122,1.56300354-1.33200073h.17399597l.43800354,1.52999878h2.49099731v-11.93099976h-3.2559967ZM202.87247749,63.17586029c-.80000305,0-1.50800323.21900177-2.12000275.65599823-.61100006.43600464-1.09199524.95999908-1.44199371,1.5719986h-.15299988l-.48000336-2.00899506h-2.47000122v11.93000031h3.25600433v-6.07400513c0-.75799561.15699768-1.35499573.47099304-1.79299927.31300354-.43599701.72400665-.7539978,1.23400116-.9489975.50900269-.19799805,1.04100037-.29599762,1.59600067-.29599762.14500427,0,.31600189.01099396.51300049.03199768.19599915.02300262.34500122.04799652.4489975.07700348l.24000549-3.05900574c-.13200378-.02799988-.30599976-.05099487-.52500153-.06599426-.21900177-.01399994-.40899658-.02100372-.56900024-.02100372M209.7774839,63.17616546c-1.4280014,0-2.54799652.54599762-3.36399841,1.63700104-.81700134,1.09399414-1.22399902,2.61599731-1.22399902,4.56899261,0,1.93600464.39699554,3.44800568,1.19200134,4.53300476.79299927,1.08599854,1.89699554,1.6289978,3.30899048,1.6289978.7150116,0,1.35501099-.13899994,1.92401123-.41600037.56700134-.27600098,1.05499268-.72799683,1.46398926-1.35399628h.08700562c-.01400757.2029953-.03199768.43599701-.05500793.6989975-.02198792.26200104-.03199768.51799774-.03199768.76499939v.23999786c0,1.80700684-.83799744,2.71000671-2.51300049,2.71000671-1.63299561,0-3.18299103-.30599976-4.6559906-.9180069v2.6000061c.68499756.26200104,1.38899231.44499969,2.10899353.54599762.72200012.10199738,1.50500488.15299988,2.3500061.15299988,1.96600342,0,3.45300293-.44400024,4.45799255-1.33200073,1.0039978-.88899994,1.50801086-2.18499756,1.50801086-3.89099884v-11.95200348h-2.75300598l-.26300049,1.52999878h-.08700562c-.83099365-1.16499329-1.98098755-1.74799347-3.45399475-1.74799347M210.80548378,65.82016266c.8730011,0,1.50799561.27600098,1.90100098.83000183s.58999634,1.47100067.58999634,2.75299835v.39299774c0,1.18099976-.20100403,2.00800323-.60099792,2.48100281-.4019928.47299957-1.01699829.70999908-1.84599304.70999908-1.55900574,0-2.33800507-1.18699646-2.33800507-3.56199646,0-2.40299988.76499939-3.60500336,2.29399872-3.60500336M137.25177665,83.50206268h-3.29899979v9.52799988c0,1.20899963-.24499893,2.09799957-.73200226,2.66500092-.48799896.56900024-1.27199936.85200119-2.34999847.85200119-1.0340004,0-1.81299973-.26100159-2.33799744-.7859993-.52500153-.52400208-.78600311-1.4280014-.78600311-2.7100029v-9.54899979h-3.29999924v10.05200195c0,1.73400116.5379982,3.12799835,1.61800003,4.18499756,1.07699966,1.05599976,2.65100098,1.58399963,4.71900177,1.58399963,1.45699692,0,2.66199875-.25099945,3.61699677-.7539978.95400238-.50299835,1.66800308-1.18799973,2.14100266-2.05400085.47299957-.86599731.70999908-1.8390007.70999908-2.91799927v-10.09500122ZM147.58897682,86.95516479c-.74299622,0-1.44599915.13899994-2.10900116.41400146-.6629982.27799988-1.18399811.72200012-1.56299973,1.33399963h-.17399979l-.43799973-1.52899933h-2.49100113v11.93000031h3.25600052v-5.61600113c0-1.26700211.18300247-2.24000168.54700089-2.91600037.36299896-.67700195,1.04100037-1.01700211,2.03099823-1.01700211.67100525,0,1.16000366.21500015,1.46600342.64500046.30500031.42900085.45800018,1.07400131.45800018,1.93300247v6.97100067h3.2559967v-7.78000259c0-1.52899933-.38700104-2.63899994-1.15899658-3.32999802-.77200317-.69200134-1.79800415-1.03900146-3.08000183-1.03900146M156.80947395,82.49716461c-.49599457,0-.91399384.11399841-1.25499725.33899689-.34400177.22600555-.51399994.64400101-.51399994,1.25600433,0,.59700012.16999817,1.01399994.51399994,1.24699783.34100342.23200226.75900269.34799957,1.25499725.34799957.48000336,0,.89600372-.11599731,1.24500275-.34799957.34999847-.23299789.52400208-.64999771.52400208-1.24699783,0-.61200333-.1740036-1.02999878-.52400208-1.25600433-.34899902-.22499847-.76499939-.33899689-1.24500275-.33899689M158.42547889,87.1731633h-3.2559967v11.93099976h3.2559967v-11.93099976ZM168.01957985,99.10436523l4.54499817-11.93099976h-3.40799713l-2.29400635,6.79499817c-.27799988.84700012-.43799591,1.66100311-.48199463,2.44900131h-.08800507c-.01399994-.34999847-.06199646-.74300003-.14199829-1.18099976-.08000183-.43700027-.18499756-.85900116-.31600189-1.26800156l-2.29399872-6.79499817h-3.40899658l4.54499817,11.93099976h3.34300232ZM179.18577095,86.95546615c-1.12199402,0-2.10599518.23299789-2.94999695.6989975-.84500122.46500015-1.50499725,1.1609993-1.97800446,2.0870018-.47299194.92499924-.70899963,2.08599854-.70899963,3.48600006,0,1.36899948.26100159,2.50499725.78600311,3.40699768.52400208.90299988,1.2460022,1.57700348,2.16400146,2.02200317.91699982.44400024,1.97399902.66699982,3.16899872.66699982.91699982,0,1.69999695-.06999969,2.34899902-.20800018.64700317-.13899994,1.26300049-.35200119,1.84600067-.64400101v-2.51300049c-.67099762.31999969-1.31999969.55699921-1.94599915.70999908s-1.3239975.22900009-2.09600067.22900009c-.91799927,0-1.63600159-.26300049-2.15399933-.7859993-.51699829-.52499771-.78900146-1.24699783-.81999969-2.16399765h7.69300079v-1.57400131c0-1.73200226-.48200226-3.06900024-1.44200134-4.01000214-.96199799-.93899918-2.26499939-1.40799713-3.91200256-1.40799713M179.20877357,89.27046478c.77200317,0,1.33899689.23799896,1.70400238.71099854.36399841.47299957.5530014,1.07400131.56900024,1.8030014h-4.56900024c.07299805-.86000061.31700134-1.49300003.73299408-1.90200043.41400146-.40800095.93500519-.61199951,1.56300354-.61199951M193.84767433,86.95516479c-.80000305,0-1.50800323.21900177-2.12000275.65599823-.61100006.43600082-1.09199524.9600029-1.44199371,1.57200241h-.15299988l-.48000336-2.00899887h-2.47000122v11.93000031h3.25600433v-6.07400131c0-.75799942.15699768-1.35499954.47099304-1.79299927.31300354-.43600082.72400665-.75400162,1.23400116-.94900131.50900269-.19800186,1.04100037-.29600143,1.59600067-.29600143.14500427,0,.31600189.01100159.51300049.0320015.19599915.02299881.34500122.04800034.4489975.07699966l.24000549-3.05899811c-.13200378-.02800369-.30599976-.0510025-.52500153-.06600189-.21900177-.01399994-.40899658-.02099991-.56900024-.02099991M205.42967506,95.56386459c0-.71300125-.13500214-1.29299927-.40399933-1.73699951-.27000427-.44300079-.65200043-.81499863-1.14700317-1.11400223-.49599457-.29799652-1.08599854-.58599854-1.77099609-.86399841-.6989975-.29000092-1.22699738-.52399826-1.58300018-.69900131-.35700226-.17399979-.59700012-.33799744-.72200012-.49099731-.12400055-.15200043-.18399811-.32500076-.18399811-.51300049,0-.52500153.47999573-.7859993,1.44199371-.7859993.53900146,0,1.06999969.08300018,1.59500122.25.52400208.16699982,1.07800293.37599945,1.66100311.62299728l.98099518-2.3390007c-.71299744-.33399963-1.40399933-.5739975-2.07499695-.71999741-.66999817-.14599991-1.37599945-.21900177-2.12000275-.21900177-1.42799377,0-2.57099915.27799988-3.43000031.83100128-.86099243.5530014-1.28899384,1.38299942-1.28899384,2.49100113,0,.67099762.11499786,1.22699738.34999847,1.67199707.23300171.44400024.58899689.82300186,1.07099915,1.13600159.48000336.31299973,1.09200287.63000107,1.83499908.95000076.77200317.31999969,1.33899689.58300018,1.70300293.78699875.36499786.20299911.60199738.38600159.71199799.54600143.10800171.15999985.16300201.34199905.16300201.54599762,0,.30599976-.13500214.5530014-.40299988.7440033-.27100372.18799973-.72600555.28199768-1.36600494.28199768-.56900024,0-1.22499847-.09399796-1.96699524-.28199768-.74300385-.19100189-1.43500519-.43100357-2.07700348-.72200012v2.68799973c.59799957.24799728,1.19499969.42499924,1.79299927.5359993.59700012.10799789,1.31000519.1629982,2.14099884.1629982,1.68900299,0,2.96100616-.32299805,3.81200409-.97200012.85399628-.64799881,1.27899933-1.57799911,1.27899933-2.78699875M209.60347267,82.49716461c-.49599457,0-.91399384.11399841-1.2559967.33899689-.34300232.22600555-.51399994.64400101-.51399994,1.25600433,0,.59700012.17099762,1.01399994.51399994,1.24699783.34200287.23200226.76000214.34799957,1.2559967.34799957.48001099,0,.89601135-.11599731,1.24501038-.34799957.34999084-.23299789.52398682-.64999771.52398682-1.24699783,0-.61200333-.17399597-1.02999878-.52398682-1.25600433-.34899902-.22499847-.76499939-.33899689-1.24501038-.33899689M211.21946998,87.1731633h-3.2559967v11.93099976h3.2559967v-11.93099976ZM219.65597816,96.72326553c-.42300415,0-.76499939-.11399841-1.02799988-.34000015-.26100159-.22599792-.39300537-.56299973-.39300537-1.01499939v-5.74700165h3.34300232v-2.4469986h-3.34300232v-2.5359993h-2.07499695l-.94099426,2.51199722-1.79100037,1.09400177v1.3769989h1.55099487v5.74700165c0,1.01900101.16400146,1.81700134.49299622,2.39199829.32701111.57600021.77101135.97999954,1.33200073,1.21300125.55999756.23199844,1.19799805.34999847,1.91101074.34999847.61199951,0,1.17799377-.05499649,1.69499207-.16399765.51600647-.11000061.94999695-.23600006,1.30000305-.38199997v-2.4260025c-.33599854.10200119-.66999817.18900299-1.00500488.26200104-.33599854.07300186-.68598938.11000061-1.04899597.11000061M227.14976783,99.0168637l-.19599915.59100342c-.19000244.58099747-.48500061,1.08099747-.88499451,1.49499893-.40000916.41600037-.94300842.625-1.6269989.625-.24900818,0-.48600769-.01600266-.71200562-.04500198-.22599792-.02999878-.41799927-.05899811-.57800293-.08699799v2.57799911c.20300293.04299927.44000244.08399963.71000671.11999893.27000427.03700256.58699036.05500031.95100403.05500031,1.13699341,0,2.13798523-.30999756,3.0039978-.92900085.86799622-.61799622,1.52600098-1.54799652,1.97698975-2.7859993l5.04901123-13.45999908h-3.4960022l-2.20700073,6.70800018c-.10299683.31999969-.19400024.65200043-.27400208.99399948-.08000183.34300232-.14199829.70400238-.18499756,1.08300018h-.06600952c-.02999878-.3789978-.07299805-.73999786-.1309967-1.08300018-.05899048-.34199905-.14599609-.67399979-.26199341-.99399948l-2.25100708-6.70800018h-3.56199646l4.74099731,11.8429985Z"/>
    </g>
        </symbol>

        <symbol id="home" viewBox="0 0 32 32">
                 <path d="M 16 2.59375 L 15.28125 3.28125 L 2.28125 16.28125 L 3.71875 17.71875 L 5 16.4375 L 5 27 L 5 28 L 6 28 L 13 28 L 14 28 L 14 27 L 14 18 L 18 18 L 18 27 L 18 28 L 19 28 L 26 28 L 27 28 L 27 27 L 27 16.4375 L 28.28125 17.71875 L 29.71875 16.28125 L 16.71875 3.28125 L 16 2.59375 z M 16 5.4375 L 25 14.4375 L 25 26 L 20 26 L 20 17 L 20 16 L 19 16 L 13 16 L 12 16 L 12 17 L 12 26 L 7 26 L 7 14.4375 L 16 5.4375 z" color="#000" overflow="visible"/>
        </symbol>
        <symbol id="search" viewBox="0 0 32 32">
                 <path d="M 19 3 C 13.488997 3 9 7.4889972 9 13 C 9 15.39499 9.8389508 17.588106 11.25 19.3125 L 3.28125 27.28125 L 4.71875 28.71875 L 12.6875 20.75 C 14.411894 22.161049 16.60501 23 19 23 C 24.511003 23 29 18.511003 29 13 C 29 7.4889972 24.511003 3 19 3 z M 19 5 C 23.430123 5 27 8.5698774 27 13 C 27 17.430123 23.430123 21 19 21 C 14.569877 21 11 17.430123 11 13 C 11 8.5698774 14.569877 5 19 5 z" color="#000" overflow="visible"/>
        </symbol>
        <symbol id="contrast" viewBox="0 0 32 32">
                 <path d="M 16 4 C 9.3844277 4 4 9.3844277 4 16 C 4 22.615572 9.3844277 28 16 28 C 22.615572 28 28 22.615572 28 16 C 28 9.3844277 22.615572 4 16 4 z M 16 6 L 16 26 C 10.465308 26 6 21.534692 6 16 C 6 10.465308 10.465308 6 16 6 z" color="#000" overflow="visible"/>
        </symbol>
        <symbol id="arrow-right-circle" viewBox="0 0 32 32">
                <path d="M 16 3 C 8.8321429 3 3 8.8321429 3 16 C 3 23.167857 8.8321429 29 16 29 C 23.167857 29 29 23.167857 29 16 C 29 8.8321429 23.167857 3 16 3 z M 16 5 C 22.086977 5 27 9.9130231 27 16 C 27 22.086977 22.086977 27 16 27 C 9.9130231 27 5 22.086977 5 16 C 5 9.9130231 9.9130231 5 16 5 z M 16.71875 9.59375 L 15.28125 11 L 19.28125 15 L 9 15 L 9 17 L 19.28125 17 L 15.28125 21 L 16.71875 22.40625 L 22.40625 16.71875 L 23.125 16 L 22.40625 15.28125 L 16.71875 9.59375 z" color="#000" overflow="visible"/>
        </symbol>
        <symbol id="arrow-up-right-circle" viewBox="0 0 32 32">
                <path d="M 16 3 C 8.8321429 3 3 8.8321429 3 16 C 3 23.167857 8.8321429 29 16 29 C 23.167857 29 29 23.167857 29 16 C 29 8.8321429 23.167857 3 16 3 z M 16 5 C 22.086977 5 27 9.9130231 27 16 C 27 22.086977 22.086977 27 16 27 C 9.9130231 27 5 22.086977 5 16 C 5 9.9130231 9.9130231 5 16 5 z M 12 11 L 12 13 L 17.5625 13 L 10.28125 20.28125 L 11.71875 21.71875 L 19 14.4375 L 19 20 L 21 20 L 21 12 L 21 11 L 20 11 L 12 11 z" color="#000" overflow="visible"/>
        </symbol>
        <symbol id="arrow-down-circle" viewBox="0 0 32 32">
                <title>Pfeil im Kreis nach unten</title>
                <path d="M 16 3 C 8.8321429 3 3 8.8321429 3 16 C 3 23.167857 8.8321429 29 16 29 C 23.167857 29 29 23.167857 29 16 C 29 8.8321429 23.167857 3 16 3 z M 16 5 C 22.086977 5 27 9.9130231 27 16 C 27 22.086977 22.086977 27 16 27 C 9.9130231 27 5 22.086977 5 16 C 5 9.9130231 9.9130231 5 16 5 z M 15 9 L 15 19.28125 L 11 15.28125 L 9.59375 16.71875 L 15.28125 22.40625 L 16 23.125 L 16.71875 22.40625 L 22.40625 16.71875 L 21 15.28125 L 17 19.28125 L 17 9 L 15 9 z" color="#000" overflow="visible"/>
        </symbol>
        <symbol id="arrow-dropdown-expand" viewBox="0 0 32 32">
                <path d="M 3.71875 7.78125 L 2.28125 9.21875 L 11.28125 18.21875 L 12 18.90625 L 12.71875 18.21875 L 21.71875 9.21875 L 20.28125 7.78125 L 12 16.0625 L 3.71875 7.78125 z" color="#000" overflow="visible"/>
        </symbol>
        <symbol id="arrow-dropdown-collapse" viewBox="0 0 32 32">
                <path d="M 12 5.09375 L 11.28125 5.78125 L 2.28125 14.78125 L 3.71875 16.21875 L 12 7.9375 L 20.28125 16.21875 L 21.71875 14.78125 L 12.71875 5.78125 L 12 5.09375 z" color="#000" overflow="visible"/>
        </symbol>
        <symbol id="arrow-right" viewBox="0 0 32 32">
                <path d="M 18.71875 6.78125 L 17.28125 8.21875 L 24.0625 15 L 4 15 L 4 17 L 24.0625 17 L 17.28125 23.78125 L 18.71875 25.21875 L 27.21875 16.71875 L 27.90625 16 L 27.21875 15.28125 L 18.71875 6.78125 z" color="#000" overflow="visible"/>
        </symbol>
        <symbol id="arrow-up-right" viewBox="0 0 32 32">
                <path d="M 13 6 L 13 8 L 22.5625 8 L 6.28125 24.28125 L 7.71875 25.71875 L 24 9.4375 L 24 19 L 26 19 L 26 7 L 26 6 L 25 6 L 13 6 z" color="#000" overflow="visible"/>
        </symbol>
        <symbol id="arrow-down" viewBox="0 0 32 32">
                <path d="M15 4v20.063l-6.781-6.781-1.438 1.438 8.5 8.5.719.688.719-.688 8.5-8.5-1.438-1.438-6.781 6.781v-20.063h-2z" color="#000" overflow="visible"/>
        </symbol>
        <symbol id="internal-link" viewBox="0 0 250 250">
        <path d="m 227.82225,179.00236 v 0 c 1.11409,-2.22818 2.67381,-4.90199 2.67381,-5.12481 0,0 -21.83611,-24.28711 -53.92184,-42.78096 0,0 -8.02143,-4.67917 -10.2496,-6.46171 -3.7879,-3.11945 -4.67917,-6.46171 -4.45636,-12.47778 2.00536,-1.11409 9.80398,-6.01608 12.7006,-12.477785 15.37441,1.782535 35.65081,-2.673811 36.54208,-23.173024 4.23353,-5.124803 6.01607,-11.809322 5.34762,-17.825395 C 214.23038,41.746763 204.64923,33.94815 190.38891,24.589813 173.00914,6.7644107 142.26032,-0.36575035 114.18531,4.9818704 c -12.92341,0 -23.395838,1.5597227 -32.085722,4.4563506 -12.700599,4.233533 -22.058935,11.140877 -31.194454,20.276395 -3.787898,2.228176 -22.504571,13.814687 -24.064293,32.976995 -1.114088,14.260315 5.570438,24.287104 15.820044,25.62401 6.907344,9.358336 13.146235,11.809329 22.727389,11.809329 9.581153,0 6.23889,-0.445635 8.467066,-0.89127 -0.445635,2.67381 0,4.90199 0.668452,6.90734 2.005358,3.56508 4.901986,4.01072 6.016074,4.01072 1.114087,0 3.56508,-0.44564 3.56508,-0.44564 0,6.90735 2.450993,10.47243 4.233533,12.47779 -0.668452,2.89662 -0.89127,7.35297 2.450993,11.14087 4.679168,5.57044 15.151588,2.22818 18.716668,1.33691 v 0 5.79325 c -6.23889,0.89127 -13.369047,2.451 -20.499208,5.12481 -30.748819,11.58651 -64.617084,37.21052 -64.617084,37.21052 0,0 2.228175,3.34227 3.119445,4.23354 l -9.581154,6.90734 c 6.238891,11.80933 18.493855,22.50457 18.493855,22.50457 0,0 3.565081,-4.23353 4.233534,-5.1248 3.787898,3.34226 12.700599,10.69524 21.6133,15.59723 -0.668452,1.55972 -2.228175,4.90198 -2.67381,5.57043 l 5.124803,2.89663 c 4.233533,-8.02143 6.907343,-13.59187 9.358336,-19.38512 1.782541,3.78789 4.233533,6.68452 6.016074,8.46706 -2.896628,1.55973 -5.347621,4.67917 -6.238891,7.79862 -1.336905,4.90198 0.89127,8.9127 5.124803,10.2496 3.342263,1.11409 8.244249,0.44564 10.472424,-4.67917 1.336905,-2.89662 1.114088,-6.4617 0,-10.02678 2.896628,-0.44564 6.461708,-1.33691 10.695243,-3.56509 v 0 c 0,0.89128 -4.010717,14.26033 -5.793257,23.61866 l 6.016077,1.11409 c 0.44563,-1.78254 0.89127,-3.7879 1.3369,-6.23889 6.23889,1.33691 21.6133,3.56508 32.977,2.67381 0,1.11409 -0.89127,7.35298 -0.89127,7.35298 78.20895,-7.13016 104.2786,-64.8399 104.2786,-64.8399 l -10.24961,-9.35834 c 0,0 0,0.44564 0,0.44564 z m -4.90198,-4.45635 c -8.9127,18.93949 -28.52065,37.21052 -56.15002,49.46549 -4.23353,-9.80397 -18.49385,-38.54744 -33.42263,-38.54744 -14.92877,0 -11.58651,4.23354 -14.70596,8.02144 h -0.44563 c 4.45635,-10.47243 11.80933,-18.49386 18.93949,-21.39049 22.72739,-9.13552 30.97164,-28.29782 34.3139,-37.87898 10.69524,6.68453 35.42799,22.50457 51.69367,40.32998 m -87.56729,65.50835 c -14.26033,0.66845 -27.40656,-2.00536 -32.53136,-3.34226 0.66845,-2.89663 2.67381,-11.58651 3.56508,-14.70596 3.34226,-11.36369 14.0375,-30.30318 27.18374,-29.63473 2.89662,0 5.79325,2.00536 8.9127,4.90198 v 0 c -1.33691,6.68453 -4.90199,26.51529 -7.35298,42.78097 m 24.28711,-133.4677 c -7.35298,-2.45099 -11.36369,-8.689886 -12.92342,-11.363696 2.89663,-5.570438 4.01072,-10.695241 2.89663,-14.483139 -0.89127,-3.119446 -2.67381,-5.347621 -6.01607,-6.907344 -5.34762,-2.450993 -10.24961,0 -13.14624,3.565081 h -0.44563 C 130.45099,71.827123 128,59.794983 118.64166,55.338633 c -4.45635,-2.005358 -13.14623,-3.119446 -20.499209,-4.233534 2.228179,-4.233533 4.901989,-6.907343 6.238889,-8.021431 40.10716,-6.016073 65.06272,16.26568 68.40498,21.613301 7.35298,24.732739 -8.68988,39.661511 -13.14623,41.889691 M 49.568229,87.647168 c 5.124803,-1.559723 11.363694,-4.901986 19.83076,-11.586512 l -2.67381,-3.342263 C 56.69839,80.294189 45.334696,85.64181 39.095805,81.408277 34.862272,78.511649 32.411279,71.827123 32.856914,64.251334 33.525367,54.447362 39.764257,43.306486 51.573587,35.73069 c 4.233533,4.233533 10.918059,8.021431 19.607942,11.363694 l 2.005358,-4.010716 C 64.274186,39.741405 59.595018,35.285055 56.69839,31.942792 c 8.021431,-7.575796 16.934132,-13.59187 27.406556,-17.15695 8.021431,-2.673811 16.934134,-3.787898 26.515284,-4.233533 0,3.787898 0,7.798613 4.67917,15.374409 l 4.45635,-0.89127 c -3.34226,-7.798613 -2.89663,-12.032146 -2.45099,-15.1515919 14.26032,-1.7825402 26.96092,-0.8912701 37.43334,2.0053579 12.7006,3.342263 22.50457,9.358336 28.96628,15.37441 -1.3369,2.896627 -4.45635,7.352978 -11.36369,11.809329 l 3.34226,2.67381 c 7.79862,-3.119445 11.80933,-7.352978 13.59187,-10.472424 6.46171,4.010716 19.60794,14.037505 20.2764,28.297827 0.22281,4.901985 -0.66846,9.581147 -4.23354,13.369045 -2.67381,2.896628 -8.68988,6.461708 -15.37441,5.124803 L 189.052,82.07673 c 1.78254,0.445635 8.68989,1.559722 14.26033,-1.559723 h 0.22281 c -2.45099,11.363694 -16.71131,14.260322 -26.7381,13.591869 6.90734,-16.042862 0.66845,-32.531353 0.44563,-32.531353 0,0 -8.9127,-14.928774 -34.98235,-21.836118 -28.74346,-7.575796 -51.916483,0.445635 -58.155374,2.896628 l 1.336905,3.565081 c 3.342263,-0.89127 9.581154,-2.228176 9.581154,-2.228176 v 0 c -4.901985,6.016074 -9.135518,16.042863 -10.249606,19.162308 -1.559723,4.233527 -0.89127,9.803965 -0.668453,12.03214 -1.559722,3.342263 -4.901985,9.803972 -8.912701,17.602585 -4.233533,1.114088 -18.04822,4.901986 -26.292469,-5.347621 m 50.802397,43.2266 c -2.896627,0.44564 -6.461708,-1.55972 -6.461708,-6.46171 0,-4.90198 0,-4.23353 0,-4.23353 0,0 -1.336905,-1.55972 -2.228175,-2.67381 2.67381,0 7.352978,-0.89127 12.47778,-2.89663 l -0.66845,-3.7879 c -4.901987,0.89127 -8.912702,1.11409 -14.037506,0 0.668453,-6.68452 -1.559722,-8.02143 -1.559722,-8.02143 0,0 -5.793256,1.33691 -6.684526,1.11409 -0.668453,0 -1.114088,-0.44563 -1.336905,-0.89127 -0.445636,-0.66845 0,-2.67381 1.114087,-5.793256 5.124803,-10.026789 10.249607,-21.167665 10.249607,-21.167665 0,0 -1.336906,-5.570438 0,-10.026789 0.668452,-2.228169 2.67381,-6.238884 4.010715,-9.135512 0,0 12.92342,0.668452 21.16767,4.233533 7.13016,3.119445 8.9127,13.81468 8.68988,20.499206 l 6.23889,1.78254 c 0,0 4.90199,-6.238891 9.58115,-4.45635 6.46171,2.67381 1.55973,12.477781 0,15.374409 -1.11408,1.782541 -3.34226,3.787898 -5.57043,4.010716 -0.66846,0 -2.22818,0 -3.7879,-1.114088 l -1.78254,2.896628 c 1.3369,2.005358 3.11944,3.119448 5.1248,3.342268 3.56508,0.44563 6.90734,-2.00536 8.24425,-3.342268 4.01072,6.238888 10.47242,10.249608 12.92342,10.918058 0,6.46171 1.55972,15.37441 9.80397,19.83076 -12.25497,13.59187 -35.87362,24.0643 -50.57958,19.16231 v -17.60259 c 6.90734,-3.56508 14.0375,-9.35833 18.93949,-18.27103 l -3.34226,-2.00536 c -6.90735,12.92342 -22.28176,17.60258 -30.526007,18.71667 m 9.358337,15.59723 v 7.79861 c 0,0 4.45635,3.34227 13.36905,3.11945 18.49386,0 33.42263,-9.35834 40.10716,-16.26568 v 0 c 0,0 -10.24961,19.38512 -28.07501,25.84683 -8.68989,3.11945 -15.59723,11.80933 -20.94485,21.83612 v 0 c -4.67917,-0.22282 -16.042862,-1.33691 -28.966279,-5.79326 4.456351,-14.92877 10.472424,-27.62937 24.509929,-36.54207 m -10.695242,1.55972 v 0 c -12.923417,10.47243 -18.93949,31.19446 -20.944848,39.21589 v 0 c -0.89127,-2.451 -2.228175,-4.23354 -4.45635,-4.90199 -2.450993,-0.66845 -8.912702,-2.89663 -28.966279,16.04286 C 39.318622,193.4855 34.639454,187.2466 32.411279,183.90434 42.438068,175.66009 77.42042,153.60116 98.365268,147.8079 M 35.085089,207.96864 C 30.851556,203.7351 27.063658,198.83312 25.0583,195.71367 l 5.124804,-4.01071 c 2.450992,3.11944 6.23889,7.79861 9.581153,10.91805 -1.336905,1.33691 -3.56508,3.7879 -4.679168,5.34763 m 29.189097,13.81468 c -8.244249,-4.45635 -16.488497,-12.03214 -19.83076,-15.37441 9.358336,-10.69524 18.271037,-17.37977 22.281753,-18.04822 2.228175,-0.44563 4.45635,0 5.570438,2.89663 1.114088,3.11945 0,8.46707 -1.78254,14.70596 v 0 c -1.559723,5.1248 -3.787898,10.69524 -6.238891,15.82004 m 18.716673,-32.97699 c 11.586511,3.7879 21.836121,5.34762 27.629371,5.79325 v 0 c -2.89663,6.23889 -5.34762,12.7006 -7.35298,19.16231 -8.244245,7.5758 -15.374406,9.13552 -17.602581,9.13552 -1.78254,-1.55972 -6.684526,-7.79861 -8.244249,-16.4885 2.228176,-6.23889 4.010716,-12.25496 5.570439,-17.60258 m 57.932561,57.48692 c 2.00535,-14.0375 5.34762,-32.75418 7.13016,-42.78097 7.35298,8.68989 15.15159,28.29783 15.15159,28.29783 0,0 39.21589,-12.03215 61.27482,-47.23732 v 0 l 6.01607,4.90199 c -30.08036,45.23196 -75.75796,55.03593 -89.57264,56.59565 M 94.354553,73.832481 c 0,0 11.363697,-4.456351 20.499217,3.342263 l -1.55973,3.119445 c 0,0 -5.57044,-2.228175 -7.57579,-2.005357 v 0.445635 c 1.11408,1.559722 0.44563,3.787898 -0.66846,4.679168 l -4.23353,0.445635 -1.336904,-3.787898 -0.445635,-1.114088 c -1.114088,0.445635 -1.78254,0.89127 -2.005358,0.89127 l -2.67381,-6.016073"
        style="stroke-width:2.22818;" overflow="visible"/>

        </symbol>
        <symbol id="checkmark" viewBox="0 0 32 32">
                <path d="M 28.28125 6.28125 L 11 23.5625 L 3.71875 16.28125 L 2.28125 17.71875 L 10.28125 25.71875 L 11 26.40625 L 11.71875 25.71875 L 29.71875 7.71875 L 28.28125 6.28125 z" color="#000" overflow="visible"/>
        </symbol>
        <symbol id="arrow-forward" viewBox="0 0 32 32">
                <path d="M 12.96875 4.28125 L 11.53125 5.71875 L 21.8125 16 L 11.53125 26.28125 L 12.96875 27.71875 L 23.96875 16.71875 L 24.65625 16 L 23.96875 15.28125 L 12.96875 4.28125 z" color="#000" overflow="visible"/>
        </symbol>
        <symbol id="arrow-back" viewBox="0 0 32 32">
                <path d="M 19.03125 4.28125 L 8.03125 15.28125 L 7.34375 16 L 8.03125 16.71875 L 19.03125 27.71875 L 20.46875 26.28125 L 10.1875 16 L 20.46875 5.71875 L 19.03125 4.28125 z" color="#000" overflow="visible"/>
        </symbol>
        <symbol id="document" viewBox="0 0 32 32">
                <path d="M 6 3 L 6 4 L 6 28 L 6 29 L 7 29 L 25 29 L 26 29 L 26 28 L 26 10 L 26 9.59375 L 25.71875 9.28125 L 19.71875 3.28125 L 19.40625 3 L 19 3 L 7 3 L 6 3 z M 8 5 L 18 5 L 18 10 L 18 11 L 19 11 L 24 11 L 24 27 L 8 27 L 8 5 z M 20 6.4375 L 22.5625 9 L 20 9 L 20 6.4375 z M 11 13 L 11 15 L 21 15 L 21 13 L 11 13 z M 11 17 L 11 19 L 21 19 L 21 17 L 11 17 z M 11 21 L 11 23 L 21 23 L 21 21 L 11 21 z" color="#000" overflow="visible"/>
        </symbol>
        <symbol id="event" viewBox="0 0 32 32">
                <path d="M 8 4 L 8 5 L 4 5 L 3 5 L 3 6 L 3 10 L 3 11 L 3 26 L 3 27 L 4 27 L 28 27 L 29 27 L 29 26 L 29 10 L 29 9 L 29 6 L 29 5 L 28 5 L 24 5 L 24 4 L 22 4 L 22 5 L 10 5 L 10 4 L 8 4 z M 5 7 L 8 7 L 8 8 L 10 8 L 10 7 L 22 7 L 22 8 L 24 8 L 24 7 L 27 7 L 27 9 L 5 9 L 5 7 z M 5 11 L 27 11 L 27 25 L 5 25 L 5 11 z M 17 14 L 17 15 L 17 21 L 17 22 L 18 22 L 24 22 L 25 22 L 25 21 L 25 15 L 25 14 L 24 14 L 18 14 L 17 14 z M 8 15 L 8 17 L 10 17 L 10 15 L 8 15 z M 12 15 L 12 17 L 14 17 L 14 15 L 12 15 z M 19 16 L 23 16 L 23 20 L 19 20 L 19 16 z M 8 19 L 8 21 L 10 21 L 10 19 L 8 19 z M 12 19 L 12 21 L 14 21 L 14 19 L 12 19 z" color="#000" overflow="visible"/>
        </symbol>
        <symbol id="news" viewBox="0 0 32 32">
                <path d="M 30 4.65625 L 28.71875 5.03125 L 5.8125 12 L 3 12 L 2 12 L 2 13 L 2 19 L 2 20 L 3 20 L 5.8125 20 L 7.78125 20.59375 L 7.75 20.6875 L 7.75 20.71875 C 7.1079958 22.831899 8.2967012 25.179177 10.5 25.84375 C 10.5092 25.84655 10.522 25.84105 10.53125 25.84375 C 12.653271 26.488523 15.003004 25.314785 15.65625 23.09375 L 15.6875 23 L 28.71875 26.96875 L 30 27.34375 L 30 26 L 30 6 L 30 4.65625 z M 28 7.34375 L 28 24.65625 L 6.28125 18.03125 L 6.15625 18 L 6 18 L 4 18 L 4 14 L 6 14 L 6.15625 14 L 6.28125 13.96875 L 28 7.34375 z M 9.6875 21.1875 L 13.78125 22.40625 L 13.75 22.5 L 13.75 22.53125 C 13.40636 23.699627 12.163861 24.27191 11.09375 23.9375 C 9.9253729 23.59386 9.3218404 22.382611 9.65625 21.3125 L 9.65625 21.28125 L 9.6875 21.1875 z" color="#000" overflow="visible" font-family="Sans"/>
        </symbol>
        <symbol id="clock" viewBox="0 0 32 32">
                <path d="M 16 4 C 9.3844277 4 4 9.3844277 4 16 C 4 22.615572 9.3844277 28 16 28 C 22.615572 28 28 22.615572 28 16 C 28 9.3844277 22.615572 4 16 4 z M 16 6 C 21.534692 6 26 10.465308 26 16 C 26 21.534692 21.534692 26 16 26 C 10.465308 26 6 21.534692 6 16 C 6 10.465308 10.465308 6 16 6 z M 15 8 L 15 16 L 15 17 L 16 17 L 22 17 L 22 15 L 17 15 L 17 8 L 15 8 z" color="#000" overflow="visible"/>
        </symbol>
        <symbol id="marker" viewBox="0 0 32 32">
                <path d="M 16 3 C 11.041484 3 7 7.0414839 7 12 C 7 13.406296 7.5697902 15.019621 8.34375 16.78125 C 9.1177098 18.542879 10.113372 20.412329 11.125 22.15625 C 13.148256 25.644091 15.1875 28.5625 15.1875 28.5625 L 16 29.75 L 16.8125 28.5625 C 16.8125 28.5625 18.851744 25.644091 20.875 22.15625 C 21.886628 20.412329 22.88229 18.542879 23.65625 16.78125 C 24.43021 15.019621 25 13.406296 25 12 C 25 7.0414839 20.958516 3 16 3 z M 16 5 C 19.877484 5 23 8.1225161 23 12 C 23 12.802704 22.56979 14.316192 21.84375 15.96875 C 21.11771 17.621308 20.113372 19.452421 19.125 21.15625 C 17.552794 23.866537 16.578771 25.299905 16 26.15625 C 15.421229 25.299905 14.447206 23.866537 12.875 21.15625 C 11.886628 19.452421 10.88229 17.621308 10.15625 15.96875 C 9.4302098 14.316192 9 12.802704 9 12 C 9 8.1225161 12.122516 5 16 5 z M 16 10 C 14.895431 10 14 10.895431 14 12 C 14 13.104569 14.895431 14 16 14 C 17.104569 14 18 13.104569 18 12 C 18 10.895431 17.104569 10 16 10 z" color="#000" overflow="visible"/>
        </symbol>
        <symbol id="plus" viewBox="0 0 32 32">
                <path d="M 15 5 L 15 15 L 5 15 L 5 17 L 15 17 L 15 27 L 17 27 L 17 17 L 27 17 L 27 15 L 17 15 L 17 5 L 15 5 z" color="#000" overflow="visible"/>
        </symbol>
        <symbol id="minus" viewBox="0 0 32 32">
                <path d="M 5 15 L 5 17 L 27 17 L 27 15 L 5 15 z" color="#000" overflow="visible"/>
        </symbol>
        <symbol id="delete" viewBox="0 0 32 32">
                <path d="M 7.21875 5.78125 L 5.78125 7.21875 L 14.5625 16 L 5.78125 24.78125 L 7.21875 26.21875 L 16 17.4375 L 24.78125 26.21875 L 26.21875 24.78125 L 17.4375 16 L 26.21875 7.21875 L 24.78125 5.78125 L 16 14.5625 L 7.21875 5.78125 z" color="#000" overflow="visible"/>
        </symbol>
        <symbol id="sort" viewBox="0 0 32 32">
                <path d="M 16 3.59375 L 15.28125 4.28125 L 7.28125 12.28125 L 5.59375 14 L 8 14 L 24 14 L 26.40625 14 L 24.71875 12.28125 L 16.71875 4.28125 L 16 3.59375 z M 16 6.4375 L 21.5625 12 L 10.4375 12 L 16 6.4375 z M 5.59375 18 L 7.28125 19.71875 L 15.28125 27.71875 L 16 28.40625 L 16.71875 27.71875 L 24.71875 19.71875 L 26.40625 18 L 24 18 L 8 18 L 5.59375 18 z M 10.4375 20 L 21.5625 20 L 16 25.5625 L 10.4375 20 z" color="#000" overflow="visible"/>
        </symbol>
        <symbol id="sort-up" viewBox="0 0 64 64">
                <path d="M32 7.188l-1.438 1.375-16 16-3.374 3.437h41.623999999999995l-3.375-3.438-16-16-1.437-1.374zm-20.812 28.812l3.375 3.438 16 16 1.437 1.374 1.438-1.375 16-16 3.374-3.437h-41.623999999999995zm9.687 4h22.25l-11.125 11.125-11.125-11.125z" color="#000" overflow="visible"/>
        </symbol>
        <symbol id="sort-down" viewBox="0 0 64 64">
                <path d="M32 7.188l-1.438 1.375-16 16-3.374 3.437h41.623999999999995l-3.375-3.438-16-16-1.437-1.374zm0 5.687l11.125 11.125h-22.25l11.125-11.125zm-20.812 23.125l3.375 3.438 16 16 1.437 1.374 1.438-1.375 16-16 3.374-3.437h-41.623999999999995z" color="#000" overflow="visible"/>
        </symbol>
        <symbol id="dropdown-nav" viewBox="0 0 32 32">
                <path d="M 7 10 L 12 15 L 17 10 L 7 10 z"/>
        </symbol>
        <symbol id="menu" viewBox="0 0 32 32">
                <path d="M 4 7 L 4 9 L 28 9 L 28 7 L 4 7 z M 4 15 L 4 17 L 28 17 L 28 15 L 4 15 z M 4 23 L 4 25 L 28 25 L 28 23 L 4 23 z" color="#000" overflow="visible"/>
        </symbol>
        <symbol id="menu-sub" viewBox="0 0 64 64">
                <path d="M6.25 10.938v3.125h37.5v-3.125h-37.5zm0 12.5v3.125h27.499v-3.125h-27.499zm0 12.5v3.125h16.499v-3.125h-16.499z" color="#000" overflow="visible"/>
        </symbol>
        <symbol id="top" viewBox="0 0 32 32">
                <path d="M 16 4.6875 L 15.28125 5.40625 L 3.78125 16.90625 L 5.21875 18.3125 L 16 7.53125 L 26.78125 18.3125 L 28.21875 16.90625 L 16.71875 5.40625 L 16 4.6875 z M 16 11.6875 L 15.28125 12.40625 L 3.78125 23.90625 L 5.21875 25.3125 L 16 14.53125 L 26.78125 25.3125 L 28.21875 23.90625 L 16.71875 12.40625 L 16 11.6875 z" color="#000" overflow="visible"/>
        </symbol>
        <symbol id="flap" viewBox="16 14 72 72">
                <path id="b" d="M16.024 16v36.022h-.024l35.969 13.076 35.969-13.076h.062v-36.022z" color="#000" overflow="visible"/>
        </symbol>
        <symbol id="flap-small" viewBox="0 0 48 48">
                <path d="M9.45 4.957v33.008h-.011l15.549 5.652 15.547-5.652h.026v-33.008z" color="#000" overflow="visible"/>
        </symbol>
        <symbol id="rss" viewBox="0 0 64 64">
                <path d="M7.812 7.812v34.374h34.374v-34.374h-34.374zm8.019 28.86c-1.429 0-2.588-1.158-2.588-2.588 0-1.429 1.159-2.588 2.588-2.588 1.428 0 2.588 1.159 2.588 2.588 0 1.43-1.16 2.588-2.588 2.588zm12.482 0h-3.598c.242-.826.412-1.684.412-2.588 0-5.126-4.17-9.297-9.297-9.297-.208 0-.416.005-.622.021-.68.044-1.334.178-1.966.363v-3.556c.57-.118 1.145-.213 1.74-.25.281-.017.563-.027.848-.027 7.029 0 12.748 5.717 12.748 12.747.001.886-.092 1.75-.265 2.587zm8.914 0h-3.487c.123-.847.207-1.706.207-2.588 0-9.989-8.126-18.115-18.115-18.115-.881 0-1.741.084-2.588.207v-3.486c.851-.102 1.71-.171 2.588-.171 11.893 0 21.565 9.673 21.565 21.565-.001.878-.069 1.737-.17 2.588z" color="#000" overflow="visible"/>
        </symbol>
        <symbol id="facebook" viewBox="0 0 64 64">
               <path d="M7.812 7.812v34.313h17.156v-14.297h-4.288v-4.289h4.289v-4.289c0-3.574 1.43-5.719 5.719-5.719h4.289v4.289h-1.858c-1.287 0-2.431 1.144-2.431 2.431v3.288h5.719l-.715 4.289h-5.004v14.297h11.438v-34.313h-34.314z" color="#000" overflow="visible"/>
        </symbol>
        <symbol id="twitter" viewBox="-4 0 32 32">
                <path d="M28,8.557c-0.883,0.392-1.832,0.656-2.828,0.775c1.017-0.609,1.797-1.574,2.165-2.724c-0.951,0.564-2.005,0.974-3.127,1.195 c-0.898-0.957-2.178-1.555-3.594-1.555c-2.719,0-4.924,2.205-4.924,4.924c0,0.386,0.044,0.762,0.127,1.122 c-4.092-0.205-7.72-2.166-10.149-5.145C5.247,7.876,5.004,8.722,5.004,9.625c0,1.708,0.869,3.215,2.19,4.098 c-0.807-0.026-1.566-0.247-2.23-0.616c0,0.021,0,0.041,0,0.062c0,2.386,1.697,4.376,3.95,4.828C8.501,18.11,8.066,18.17,7.616,18.17 c-0.317,0-0.626-0.031-0.926-0.088c0.627,1.956,2.445,3.38,4.6,3.42c-1.685,1.321-3.808,2.108-6.115,2.108 c-0.397,0-0.789-0.023-1.175-0.069c2.179,1.397,4.767,2.212,7.548,2.212c9.057,0,14.009-7.503,14.009-14.01 c0-0.213-0.005-0.426-0.014-0.637C26.505,10.411,27.34,9.544,28,8.557z" color="#000" overflow="visible"/>
        </symbol>
        <symbol id="youtube" viewBox="0 0 64 64">
                <path d="M44.482 15.43c-.482-2.618-2.602-4.598-5.225-4.98-3.173-.463-8.372-1.075-14.257-1.075-5.887 0-11.084.612-14.258 1.074-2.622.383-4.742 2.363-5.224 4.981-.411 2.229-.83 5.487-.83 9.57 0 4.082.419 7.342.83 9.57.484 2.617 2.601 4.6 5.225 4.98 3.184.463 8.403 1.074 14.258 1.074 5.854 0 11.073-.611 14.258-1.074 2.625-.381 4.742-2.361 5.225-4.98.41-2.23.83-5.499.83-9.57-.002-4.073-.419-7.338-.832-9.57zm-23.971 17.324v-15.59l12.442 7.796-12.442 7.794z" color="#000" overflow="visible"/>
        </symbol>

  <symbol id="instagram" viewBox="0 -110 880 880">
    <path d="M256,49.5c67.3,0,75.2,0.3,101.8,1.5c24.6,1.1,37.9,5.2,46.8,8.7c11.8,4.6,20.2,10,29,18.8c8.8,8.8,14.3,17.2,18.8,29c3.4,8.9,7.6,22.2,8.7,46.8c1.2,26.6,1.5,34.5,1.5,101.8s-0.3,75.2-1.5,101.8c-1.1,24.6-5.2,37.9-8.7,46.8c-4.6,11.8-10,20.2-18.8,29c-8.8,8.8-17.2,14.3-29,18.8c-8.9,3.4-22.2,7.6-46.8,8.7c-26.6,1.2-34.5,1.5-101.8,1.5s-75.2-0.3-101.8-1.5c-24.6-1.1-37.9-5.2-46.8-8.7c-11.8-4.6-20.2-10-29-18.8c-8.8-8.8-14.3-17.2-18.8-29c-3.4-8.9-7.6-22.2-8.7-46.8c-1.2-26.6-1.5-34.5-1.5-101.8s0.3-75.2,1.5-101.8c1.1-24.6,5.2-37.9,8.7-46.8c4.6-11.8,10-20.2,18.8-29c8.8-8.8,17.2-14.3,29-18.8c8.9-3.4,22.2-7.6,46.8-8.7C180.8,49.7,188.7,49.5,256,49.5 M256,4.1c-68.4,0-77,0.3-103.9,1.5C125.3,6.8,107,11.1,91,17.3c-16.6,6.4-30.6,15.1-44.6,29.1c-14,14-22.6,28.1-29.1,44.6c-6.2,16-10.5,34.3-11.7,61.2C4.4,179,4.1,187.6,4.1,256c0,68.4,0.3,77,1.5,103.9c1.2,26.8,5.5,45.1,11.7,61.2c6.4,16.6,15.1,30.6,29.1,44.6c14,14,28.1,22.6,44.6,29.1c16,6.2,34.3,10.5,61.2,11.7c26.9,1.2,35.4,1.5,103.9,1.5s77-0.3,103.9-1.5c26.8-1.2,45.1-5.5,61.2-11.7c16.6-6.4,30.6-15.1,44.6-29.1c14-14,22.6-28.1,29.1-44.6c6.2-16,10.5-34.3,11.7-61.2c1.2-26.9,1.5-35.4,1.5-103.9s-0.3-77-1.5-103.9c-1.2-26.8-5.5-45.1-11.7-61.2c-6.4-16.6-15.1-30.6-29.1-44.6c-14-14-28.1-22.6-44.6-29.1c-16-6.2-34.3-10.5-61.2-11.7C333,4.4,324.4,4.1,256,4.1L256,4.1z"/>
    <path d="M256,126.6c-71.4,0-129.4,57.9-129.4,129.4S184.6,385.4,256,385.4S385.4,327.4,385.4,256S327.4,126.6,256,126.6z M256,340c-46.4,0-84-37.6-84-84s37.6-84,84-84c46.4,0,84,37.6,84,84S302.4,340,256,340z"/>
    <circle cx="390.5" cy="121.5" r="30.2"/>
  </symbol>
        <symbol id="phone" viewBox="0 0 32 32">
                <path d="M 8.65625 3 C 8.1327819 3 7.6152588 3.189043 7.1875 3.53125 L 7.125 3.5625 L 7.09375 3.59375 L 3.96875 6.8125 L 4 6.84375 C 3.0365432 7.73509 2.7372965 9.0666437 3.15625 10.21875 C 3.1584 10.22495 3.15408 10.24379 3.15625 10.25 C 4.0032406 12.677572 6.1733584 17.360858 10.40625 21.59375 C 14.65572 25.84322 19.403183 27.92543 21.75 28.84375 L 21.78125 28.84375 C 22.997478 29.249159 24.311802 28.96042 25.25 28.15625 L 25.28125 28.125 L 25.3125 28.09375 L 28.40625 25 C 29.236233 24.170017 29.236233 22.736233 28.40625 21.90625 L 24.34375 17.84375 L 24.3125 17.78125 C 23.482517 16.951267 22.017483 16.951267 21.1875 17.78125 L 21.15625 17.8125 L 19.1875 19.78125 C 18.464474 19.43545 16.741138 18.541257 15.09375 16.96875 C 13.458085 15.407433 12.619959 13.61108 12.3125 12.90625 L 14.3125 10.90625 C 15.154265 10.064485 15.167132 8.6695101 14.28125 7.84375 L 14.3125 7.8125 L 14.21875 7.71875 L 10.21875 3.59375 L 10.1875 3.5625 L 10.125 3.53125 C 9.6972412 3.189043 9.1797181 3 8.65625 3 z M 8.65625 5 C 8.7295044 5 8.8027588 5.035957 8.875 5.09375 L 12.875 9.1875 L 12.9375 9.25 L 12.96875 9.28125 C 12.96085 9.27494 13.02913 9.377124 12.90625 9.5 L 10.40625 12 L 9.9375 12.4375 L 10.15625 13.0625 C 10.15625 13.0625 11.306566 16.13496 13.71875 18.4375 L 13.9375 18.625 C 16.260558 20.74677 19 21.90625 19 21.90625 L 19.625 22.1875 L 20.09375 21.71875 L 22.59375 19.21875 C 22.763767 19.048733 22.736233 19.048733 22.90625 19.21875 L 27 23.3125 C 27.170017 23.482517 27.170017 23.423733 27 23.59375 L 23.9375 26.65625 C 23.475698 27.05208 22.990022 27.132091 22.40625 26.9375 C 20.138957 26.047527 15.736488 24.111488 11.8125 20.1875 C 7.8562209 16.231221 5.7887768 11.74039 5.03125 9.5625 C 4.8787539 9.1558438 4.9891373 8.5539537 5.34375 8.25 L 5.375 8.21875 L 5.40625 8.1875 L 8.4375 5.09375 C 8.5097413 5.035957 8.5829956 5 8.65625 5 z" color="#000" overflow="visible"/>
        </symbol>
        <symbol id="mail" viewBox="0 0 32 32">
                <path d="M 3 8 L 3 9 L 3 25 L 3 26 L 4 26 L 28 26 L 29 26 L 29 25 L 29 9 L 29 8 L 28 8 L 4 8 L 3 8 z M 7.3125 10 L 24.6875 10 L 16 15.78125 L 7.3125 10 z M 5 10.875 L 15.4375 17.84375 L 16 18.1875 L 16.5625 17.84375 L 27 10.875 L 27 24 L 5 24 L 5 10.875 z" color="#000" overflow="visible"/>
        </symbol>
        <symbol id="fax" viewBox="0 0 32 32">
                <path d="M 12 5 L 12 6 L 12 10 L 10 10 L 10 9 L 10 8 L 9 8 L 5 8 L 4 8 L 4 9 L 4 25 L 4 26 L 5 26 L 6 26 L 6 27 C 6 28.645455 7.3545455 30 9 30 C 10.645455 30 12 28.645455 12 27 L 12 26 L 27 26 L 28 26 L 28 25 L 28 11 L 28 10 L 27 10 L 24 10 L 24 6 L 24 5 L 23 5 L 13 5 L 12 5 z M 14 7 L 22 7 L 22 12 L 14 12 L 14 7 z M 6 10 L 8 10 L 8 11 L 8 24 L 6 24 L 6 10 z M 10 12 L 12 12 L 12 13 L 12 14 L 13 14 L 23 14 L 24 14 L 24 13 L 24 12 L 26 12 L 26 24 L 10 24 L 10 12 z M 13 16 L 13 18 L 15 18 L 15 16 L 13 16 z M 17 16 L 17 18 L 19 18 L 19 16 L 17 16 z M 21 16 L 21 18 L 23 18 L 23 16 L 21 16 z M 13 20 L 13 22 L 15 22 L 15 20 L 13 20 z M 17 20 L 17 22 L 19 22 L 19 20 L 17 20 z M 21 20 L 21 22 L 23 22 L 23 20 L 21 20 z M 8 26 L 9 26 L 10 26 L 10 27 C 10 27.554545 9.5545455 28 9 28 C 8.4454545 28 8 27.554545 8 27 L 8 26 z"  color="#000" overflow="visible"/>
        </symbol>
        <symbol id="gallery" viewBox="0 0 48 48">
                <path d="M45.312 14.062h-4.688v-6.25h-37.499v28.124000000000002h6.25v6.25h37.498999999999995v-28.124000000000002h-1.562zm-39.062-3.124h31.25v18.795l-8.252-8.301-1.123-1.123-1.123 1.123-5.957 5.958-8.984-9.083-1.123-1.123-1.123 1.123-3.565 3.565v-10.934zm29.936 21.874h-9.741l-3.202-3.227 4.883-4.834 8.06 8.061zm-29.936 0v-6.498l4.688-4.688 11.072 11.186h-15.76zm37.5 6.25h-31.25v-3.125h28.124000000000002v-18.749000000000002h3.125v21.874z" color="#000" overflow="visible"/>
        </symbol>
        <symbol id="display-tile" viewBox="0 0 48 48">
                <path d="M7.812 7.812v9.374h9.374v-9.374h-9.374zm12.5 0v9.375h9.375v-9.375h-9.375zm12.5 0v9.375h9.375v-9.375h-9.375zm-25 12.5v9.375h9.375v-9.375h-9.375zm12.5 0v9.375h9.375v-9.375h-9.375zm12.5 0v9.375h9.375v-9.375h-9.375zm-25 12.5v9.375h9.375v-9.375h-9.375zm12.5 0v9.375h9.375v-9.375h-9.375zm12.5 0v9.375h9.375v-9.375h-9.375z" color="#000" overflow="visible"/>
        </symbol>
        <symbol id="display-list" viewBox="0 0 48 48">
                <path d="M7.812 7.812h34.375v4.723h-34.375zM7.812 17.696h34.376v4.723h-34.376zM7.812 27.581h34.375v4.723h-34.375zM7.812 37.465h34.375v4.723h-34.375z" color="#000" overflow="visible"/>
        </symbol>
        <symbol id="google-share" viewBox="0 0 32 32">
                <path d="M27.49 14.457V12h-2.454v2.457H22.58v2.456h2.456v2.456h2.455v-2.457h2.458v-2.456M11.53 14.457v2.947h4.874c-.197 1.265-1.476 3.707-4.875 3.707-2.937 0-5.33-2.43-5.33-5.426 0-2.997 2.393-5.427 5.33-5.427 1.668 0 2.786.712 3.424 1.327l2.333-2.248c-1.498-1.4-3.438-2.247-5.76-2.247-4.75 0-8.595 3.842-8.595 8.594 0 4.75 3.843 8.595 8.596 8.595 4.96 0 8.253-3.487 8.253-8.4 0-.564-.06-.995-.138-1.423H11.53z" color="#000" overflow="visible"/>
        </symbol>
        <symbol id="facebook-share" viewBox="0 0 32 32">
                <path d="M17.273 28.816v-13.8h3.33l.48-3.85h-3.81V8.678c0-1.123.276-1.886 1.884-1.886h2.086v-3.49c-.355-.048-1.592-.12-3.007-.12-2.96 0-4.975 1.777-4.975 5.093v2.888H9.89v3.85h3.37v13.8" color="#000" overflow="visible"/>
        </symbol>
        <symbol id="mail-share" viewBox="0 0 32 32">
                <path d="M3 7v.03l13 7.814L29 7.03V7H3zm0 2.375V25h26V9.375l-13 7.78-13-7.78z" color="#000" overflow="visible"/>
        </symbol>
        <symbol id="play" viewBox="0 0 32 32">
                <path d="M9 5.156v21.688l1.53-1 14-9L25.845 16l-1.313-.844-14-9-1.53-1zm2 3.657L22.156 16 11 23.188V8.813z" color="#000" overflow="visible"/>
        </symbol>
        <symbol id="account" viewBox="0 0 32 32">
                <path d="M16 5c-3.854 0-7 3.146-7 7 0 2.41 1.23 4.552 3.094 5.813C8.527 19.343 6 22.88 6 27h2c0-4.43 3.57-8 8-8s8 3.57 8 8h2c0-4.12-2.527-7.658-6.094-9.188C21.77 16.552 23 14.41 23 12c0-3.854-3.146-7-7-7zm0 2c2.773 0 5 2.227 5 5s-2.227 5-5 5-5-2.227-5-5 2.227-5 5-5z" color="#000" overflow="visible"/>
        </symbol>
        <symbol id="gallery-info" viewBox="0 0 32 32">
                 <path d="M15 12.544h2v14h-2zM15 6h2v2h-2z" color="#000" overflow="visible"/>
        </symbol>
        <symbol id="orga" viewBox="0 0 32 32">
                 <path d="M12 4v7h3v4H5v6H2v7h8v-7H7v-4h8v4h-3v7h8v-7h-3v-4h8v4h-3v7h8v-7h-3v-6H17v-4h3V4h-8zm2 2h4v3h-4V6zM4 23h4v3H4v-3zm10 0h4v3h-4v-3zm10 0h4v3h-4v-3z" color="#000" overflow="visible"/>
        </symbol>
        <symbol id="link" viewBox="0 0 32 32">
                 <path d="M21.75 4c-1.67 0-3.256.66-4.438 1.844l-1.468 1.468C14.662 8.495 14 10.08 14 11.75c0 .794.152 1.565.438 2.28l1.624-1.624c-.204-1.295.19-2.69 1.188-3.687l1.47-1.47C19.522 6.442 20.61 6 21.75 6c1.137 0 2.196.445 3 1.25 1.66 1.66 1.66 4.37 0 6.03l-1.47 1.47c-.804.805-1.892 1.25-3.03 1.25-.224 0-.44-.024-.656-.063l-1.625 1.626c.713.285 1.485.437 2.28.437 1.67 0 3.254-.66 4.436-1.844l1.468-1.468C27.338 13.505 28 11.92 28 10.25s-.662-3.224-1.844-4.406C24.976 4.66 23.42 4 21.75 4zm-2.47 7.28l-8 8 1.44 1.44 8-8-1.44-1.44zM11.75 14c-1.67 0-3.257.66-4.438 1.844l-1.468 1.47C4.662 18.492 4 20.078 4 21.748c0 1.67.662 3.224 1.844 4.406C7.024 27.34 8.58 28 10.25 28c1.67 0 3.257-.66 4.438-1.844l1.468-1.468C17.338 23.506 18 21.92 18 20.25c0-.794-.152-1.565-.438-2.28l-1.625 1.624c.205 1.295-.19 2.69-1.187 3.687l-1.47 1.47c-.803.808-1.892 1.25-3.03 1.25-1.137 0-2.196-.443-3-1.25-1.66-1.66-1.66-4.37 0-6.03l1.47-1.47c.804-.803 1.892-1.25 3.03-1.25.224 0 .44.026.656.065l1.625-1.625c-.713-.287-1.485-.44-2.28-.44z" color="#000" overflow="visible"/>
        </symbol>
        <symbol id="guetesiegel" viewBox="0 0 311.8 113.4">
                 <path class="cls-1" d="M104.4,104.8H32.6A15,15,0,0,1,17.9,91.3l-6.1-69A12.3,12.3,0,0,1,24.3,8.8h88.4a12.3,12.3,0,0,1,12.5,13.6l-6.1,69a15,15,0,0,1-14.7,13.5ZM24.3,10.4A10.7,10.7,0,0,0,13.4,22.2l6.1,69a13.4,13.4,0,0,0,13.1,12h71.8a13.4,13.4,0,0,0,13.1-12l6.1-69a10.7,10.7,0,0,0-10.9-11.8H24.3Z"/><path class="cls-1" d="M46.3,38.7a10,10,0,1,1-10-10,9.9,9.9,0,0,1,10,10Zm64.4,11.7a7.8,7.8,0,1,1-7.8-7.8,7.8,7.8,0,0,1,7.8,7.8Zm-30,39.4C65.5,89.8,52.5,76,48.1,57.1H26.3C31.3,81,50.2,92,66.2,92c10.9,0,14.9-2.2,14.9-2.2h-.4Z"/><path class="cls-1" d="M94,64.7C89.1,78.2,79.1,83.2,69.3,84.1a25.4,25.4,0,0,0,12.4,3.3c10.3,0,22.1-8.5,27.7-22.6H94Zm49.3-32.5c-3.8,0-6.2-2.8-6.2-7.1s2.6-7.1,6.5-7.1a7.5,7.5,0,0,1,3.4.7l-.8,2.1a5.3,5.3,0,0,0-2.5-.5c-2.2,0-3.9,1.5-3.9,4.8s1.6,4.9,3.4,4.9l1.5-.2V26h-2.1v-2h4.6v7.6a8.7,8.7,0,0,1-3.8.7Zm10.4,0c-2.8,0-4.3-1.1-4.3-3.8V21.8H152v6.7c0,1.1.6,1.6,1.7,1.6a4.4,4.4,0,0,0,1.5-.2V21.8h2.6v9.7a10.3,10.3,0,0,1-4.1.7Zm-2-11.8a1.2,1.2,0,0,1-1.3-1.2,1.2,1.2,0,0,1,1.3-1.2,1.2,1.2,0,0,1,1.3,1.2,1.2,1.2,0,0,1-1.2,1.2Zm3.9,0a1.2,1.2,0,1,1,0-2.4,1.2,1.2,0,0,1,1.3,1.2,1.2,1.2,0,0,1-1.2,1.2Zm8.2,11.7c-2,0-2.9-1.1-2.9-3.2V23.7h-1.3V21.8h1.3V19.5l2.5-.7v3h1.9v1.9h-1.9v5.1a1,1,0,0,0,1.2,1.1h.7v2.1a4,4,0,0,1-1.6.3Zm11.7-5.1-6.6.9a2.6,2.6,0,0,0,2.8,2.2,6.6,6.6,0,0,0,2.9-.6l.7,1.9a9,9,0,0,1-3.8.7c-3.4,0-5.2-2.2-5.2-5.4s1.8-5.3,4.8-5.3,4.4,1.9,4.4,4.7a7,7,0,0,1,0,.9ZM171,23.5c-1.4,0-2.3,1-2.3,2.9l4.3-.6c0-1.5-.8-2.3-2-2.3Zm9.2,8.8a7.7,7.7,0,0,1-3.3-.7l.8-2a5.6,5.6,0,0,0,2.4.7c.9,0,1.5-.4,1.5-1.1s-.7-1.1-1.6-1.4-2.9-1.1-2.9-3.1,1.4-3,3.8-3a6.6,6.6,0,0,1,3.2.7l-.8,1.8a4.6,4.6,0,0,0-2-.6c-.9,0-1.4.5-1.4,1.1s.7,1.1,1.6,1.4,3,1.1,3,3.1-1.4,3.2-4.2,3.2Zm7.4-12.1a1.4,1.4,0,0,1-1.5-1.4,1.5,1.5,0,0,1,3,0,1.4,1.4,0,0,1-1.5,1.4ZM186.2,32V21.8h2.6V32Zm13.7-4.9-6.6.9a2.6,2.6,0,0,0,2.8,2.2,6.6,6.6,0,0,0,2.9-.6l.7,1.9a9,9,0,0,1-3.8.7c-3.4,0-5.2-2.2-5.2-5.4s1.8-5.3,4.8-5.3,4.4,1.9,4.4,4.7a7.2,7.2,0,0,1,0,.9Zm-4.4-3.6c-1.3,0-2.3,1-2.3,2.9l4.3-.6c0-1.5-.8-2.3-1.9-2.3Zm10.4,12.9a8.9,8.9,0,0,1-3.9-.8l.7-2a6.5,6.5,0,0,0,2.9.6,2,2,0,0,0,2.2-2.2v-.6a4.8,4.8,0,0,1-1.9.4c-2.6,0-4.4-1.8-4.4-4.9s2-5.2,5.3-5.2a8.5,8.5,0,0,1,3.6.7v9.6c0,2.9-1.8,4.4-4.5,4.4Zm2-12.5-1.3-.2c-1.4,0-2.4,1-2.4,3.1s.9,3,2.4,3l1.4-.3V23.8Zm13.6,3.3-6.6.9a2.6,2.6,0,0,0,2.8,2.2,6.5,6.5,0,0,0,2.9-.6l.7,1.9a9,9,0,0,1-3.8.7c-3.4,0-5.2-2.2-5.2-5.4s1.8-5.3,4.8-5.3,4.4,1.9,4.4,4.7c0,.3,0,.6,0,.9Zm-4.4-3.6c-1.4,0-2.3,1-2.3,2.9l4.3-.6c0-1.5-.8-2.3-2-2.3Zm6.5,8.6V17.1h2.6V32h-2.6Zm-85.8,63V81.3h1.6V93.6h5.2V95h-6.8Zm12.6.2c-2.8,0-4.2-1.2-4.2-3.1s3.2-3.4,6.3-3.5v-.8c0-1.5-1-2-2.4-2a7.3,7.3,0,0,0-2.8.6l-.4-1.1a8.6,8.6,0,0,1,3.3-.7c2.3,0,3.8.9,3.8,3.3v6.6a8.3,8.3,0,0,1-3.5.7Zm2-5.6c-2.3.1-4.7.3-4.7,2.4s.9,2,2.7,2a6.2,6.2,0,0,0,2.1-.3V89.7Zm10.6,5.4V88.1c0-1.4-.8-2.2-2.5-2.2a6.6,6.6,0,0,0-2.2.4v8.8h-1.6V85.3a9.7,9.7,0,0,1,3.8-.7c2.7,0,4.1,1.3,4.1,3.4v7.1h-1.6Zm8.8.2c-3.1,0-4.9-2-4.9-5.2s1.7-5.3,4.7-5.3a6.5,6.5,0,0,1,1.8.3V80.2H175V94.6a7.3,7.3,0,0,1-3.3.7Zm1.7-9-1.7-.2c-2.1,0-3.3,1.7-3.3,4.1s1.2,3.9,3.3,3.9a4.8,4.8,0,0,0,1.7-.3V86.2Zm17.1,8.8V88.7h-5.8v6.4H183V81.3h1.7v6h5.8v-6h1.6V95h-1.6Zm12.7-5.4-7,1a3.2,3.2,0,0,0,3.4,3.3,6.1,6.1,0,0,0,2.8-.6l.5,1.2a7.3,7.3,0,0,1-3.4.7c-3.1,0-4.9-2-4.9-5.3s1.7-5.3,4.5-5.3,4.1,1.7,4.1,4.4c0,.2,0,.4,0,.7Zm-4.1-3.9c-1.8,0-3,1.4-3,3.8l5.6-.8c0-2-1-3-2.6-3Zm8.9,9.4a7,7,0,0,1-3-.7l.6-1.2a5.8,5.8,0,0,0,2.4.7c1.3,0,2.2-.6,2.2-1.7s-.9-1.5-2.1-1.9-2.9-1.2-2.9-3,1.2-2.7,3.4-2.7a5.5,5.5,0,0,1,2.9.7l-.6,1.1a4.4,4.4,0,0,0-2.1-.6c-1.2,0-1.9.7-1.9,1.5s.8,1.5,2,1.9,3,1.2,3,3.1-1.4,2.9-3.8,2.9Zm8.6,0a7,7,0,0,1-3-.7l.6-1.2a5.8,5.8,0,0,0,2.4.7c1.3,0,2.2-.6,2.2-1.7s-.9-1.5-2.1-1.9-2.9-1.2-2.9-3,1.2-2.7,3.4-2.7a5.5,5.5,0,0,1,2.9.7l-.6,1.1a4.4,4.4,0,0,0-2.1-.6c-1.2,0-1.9.7-1.9,1.5s.8,1.5,2,1.9,3,1.2,3,3.1-1.4,2.9-3.8,2.9ZM231,89.7l-7,1a3.2,3.2,0,0,0,3.4,3.3,6.4,6.4,0,0,0,2.8-.6l.5,1.2a7.3,7.3,0,0,1-3.4.7c-3.1,0-4.9-2-4.9-5.3s1.7-5.3,4.5-5.3S231,86.3,231,89c0,.2,0,.4,0,.7Zm-4.1-3.8c-1.8,0-3,1.4-3,3.8l5.6-.8c0-2-1-3-2.6-3Zm12.8,9.2V88.2c0-1.4-.8-2.2-2.5-2.2a6.6,6.6,0,0,0-2.2.4v8.8h-1.6V85.3a9.8,9.8,0,0,1,3.8-.7c2.7,0,4.1,1.3,4.1,3.4v7.1h-1.6ZM139.3,40.7v4.6h4.9v1.4h-4.9V53h-1.6V39.3h7v1.4Zm11,12.6c-2.8,0-4.2-1.2-4.2-3.1s3.2-3.4,6.3-3.5v-.8c0-1.5-1-2-2.4-2a7.3,7.3,0,0,0-2.8.6l-.4-1.1a8.6,8.6,0,0,1,3.4-.7c2.3,0,3.8.9,3.8,3.3v6.6a8.3,8.3,0,0,1-3.5.7Zm2-5.6c-2.3.1-4.7.3-4.7,2.4s.9,2,2.7,2a6.2,6.2,0,0,0,2.1-.3ZM168.5,53V46a2,2,0,0,0-2.2-2.1,3,3,0,0,0-2.2.9V53h-1.6V45.7c0-1.2-1-1.9-2.4-1.9a5.5,5.5,0,0,0-2,.4V53h-1.6V43.3a9.2,9.2,0,0,1,3.5-.7,4.2,4.2,0,0,1,3.3,1.2,5,5,0,0,1,3.3-1.2,3.2,3.2,0,0,1,3.5,3.3V53h-1.6Zm5.1-12.3a1,1,0,0,1-1-1,1,1,0,1,1,1,1ZM172.9,53V42.8h1.6V53h-1.6Zm4.4,0V38.1h1.6V53h-1.6Zm5.2-12.3a1,1,0,0,1-1-1,1,1,0,0,1,2,0,1,1,0,0,1-1,1ZM181.7,53V42.8h1.6V53h-1.6ZM194,47.7l-7,1a3.2,3.2,0,0,0,3.4,3.3,6.2,6.2,0,0,0,2.8-.6l.5,1.2a7.3,7.3,0,0,1-3.4.7c-3.1,0-4.9-2-4.9-5.3s1.7-5.3,4.5-5.3S194,44.2,194,47c0,.2,0,.4,0,.7Zm-4.1-3.9c-1.8,0-3,1.4-3,3.8l5.6-.8c0-2-1-3-2.6-3ZM202.5,53V46.1c0-1.4-.8-2.2-2.5-2.2a6.4,6.4,0,0,0-2.2.4V53h-1.6V43.3a9.7,9.7,0,0,1,3.8-.7c2.7,0,4.1,1.3,4.1,3.4v7h-1.6Zm8.8-13.6c-1.3,0-2.2.6-2.2,2v1.4h2.3V44h-2.3v9h-1.5V44h-1.4V42.8h1.4V41.4c0-2.3,1.6-3.3,3.5-3.3h.5v1.3h-.2Zm6.4,4.6h-.9a5.3,5.3,0,0,0-1.9.3V53h-1.6V43.3a9.7,9.7,0,0,1,3.7-.7h1l-.3,1.3Zm9.8,3.7-7,1a3.2,3.2,0,0,0,3.4,3.3,6.2,6.2,0,0,0,2.8-.6l.5,1.2a7.3,7.3,0,0,1-3.4.7c-3.1,0-4.9-2-4.9-5.3s1.7-5.3,4.5-5.3,4.1,1.7,4.1,4.4c0,.2,0,.4,0,.7Zm-4.1-3.9c-1.8,0-3,1.4-3,3.8l5.6-.8c0-2-1-3-2.6-3Zm10.1,9.4c-2.5,0-3.9-1.1-3.9-3.6V42.8h1.6v6.9c0,1.5.8,2.2,2.4,2.2a6.2,6.2,0,0,0,2.2-.3V42.8h1.6v9.7a9.2,9.2,0,0,1-3.7.7Zm12.7-.2V46.1c0-1.4-.8-2.2-2.5-2.2a6.4,6.4,0,0,0-2.2.4V53H240V43.3a9.7,9.7,0,0,1,3.8-.7c2.7,0,4.1,1.3,4.1,3.4v7h-1.6Zm8.7.2c-3.1,0-4.9-2-4.9-5.2s1.7-5.3,4.7-5.3a6.4,6.4,0,0,1,1.8.3V38.1h1.6V52.5a7.3,7.3,0,0,1-3.3.7Zm1.7-9L255,44c-2.1,0-3.3,1.7-3.3,4.1S252.9,52,255,52a4.7,4.7,0,0,0,1.7-.3V44.2Zm4.3,8.8V38.1h1.6V53Zm5.2-12.3a1,1,0,0,1-1-1,1,1,0,0,1,2,0,1,1,0,0,1-1,1ZM265.5,53V42.8H267V53h-1.6Zm8.3.2c-2.2,0-4.4-1.6-4.4-5.3s2.2-5.3,4.4-5.3a4.6,4.6,0,0,1,2.5.7l-.5,1.2a3.3,3.3,0,0,0-1.8-.5c-1.5,0-2.9,1.1-2.9,4s1.5,4,2.9,4a3.3,3.3,0,0,0,1.8-.5l.5,1.2a4.5,4.5,0,0,1-2.5.7Zm10.7-.2V46.1c0-1.5-1-2.2-2.5-2.2a4.4,4.4,0,0,0-2.1.6V53h-1.6V38.1h1.6v5.1a5.6,5.6,0,0,1,2.4-.6c2.4,0,3.8,1.2,3.8,3.4v7h-1.6Zm12.4-5.4-7,1a3.2,3.2,0,0,0,3.4,3.3,6.2,6.2,0,0,0,2.8-.6l.5,1.2a7.3,7.3,0,0,1-3.4.7c-3.1,0-4.9-2-4.9-5.3s1.7-5.3,4.5-5.3,4.1,1.7,4.1,4.4c0,.2,0,.4,0,.7Zm-4.1-3.9c-1.8,0-3,1.4-3,3.8l5.6-.8c0-2-1-3-2.6-3ZM145.2,74V67.7h-5.8V74h-1.7V60.3h1.7v6h5.8v-6h1.6V74h-1.6Zm8.5.2c-2.8,0-4.4-2.3-4.4-5.3s1.5-5.3,4.4-5.3,4.4,2.3,4.4,5.3-1.5,5.3-4.4,5.3Zm0-9.4c-1.9,0-2.8,1.7-2.8,4s.9,4,2.8,4,2.8-1.7,2.8-4S155.5,64.9,153.7,64.9Zm10.8,9.4c-2.2,0-4.4-1.6-4.4-5.3s2.2-5.3,4.4-5.3a4.6,4.6,0,0,1,2.5.7l-.6,1.2a3.3,3.3,0,0,0-1.8-.5c-1.5,0-2.9,1.1-2.9,4s1.5,4,2.9,4a3.2,3.2,0,0,0,1.8-.6l.6,1.2a4.5,4.5,0,0,1-2.6.7Zm11-.2V67.1c0-1.5-1-2.2-2.5-2.2a4.4,4.4,0,0,0-2.1.6V74h-1.6V59.1h1.6v5.1a5.6,5.6,0,0,1,2.4-.6c2.4,0,3.8,1.2,3.8,3.4v7h-1.6Zm6.8.2a7,7,0,0,1-3-.7l.6-1.2a5.7,5.7,0,0,0,2.4.6c1.3,0,2.2-.6,2.2-1.7s-.9-1.5-2.1-1.9-2.9-1.2-2.9-3,1.2-2.8,3.4-2.8a5.6,5.6,0,0,1,2.9.7l-.6,1.1a4.4,4.4,0,0,0-2.1-.6c-1.2,0-1.9.7-1.9,1.5s.8,1.5,2,1.9,3,1.2,3,3.1-1.4,2.9-3.8,2.9Zm10.2,0c-2.2,0-4.4-1.6-4.4-5.3s2.2-5.3,4.4-5.3a4.6,4.6,0,0,1,2.5.7l-.6,1.2a3.3,3.3,0,0,0-1.8-.5c-1.5,0-2.9,1.1-2.9,4s1.5,4,2.9,4a3.2,3.2,0,0,0,1.8-.6l.6,1.2a4.5,4.5,0,0,1-2.6.7Zm11-.2V67.1c0-1.5-1-2.2-2.5-2.2a4.4,4.4,0,0,0-2.1.6V74h-1.6V59.1h1.6v5.1a5.6,5.6,0,0,1,2.4-.6c2.4,0,3.8,1.2,3.8,3.4v7h-1.6Zm8.3.2c-2.5,0-4-1.1-4-3.6V63.8h1.6v6.9c0,1.5.8,2.2,2.4,2.2a6.2,6.2,0,0,0,2.2-.3V63.8h1.6v9.7a9.2,9.2,0,0,1-3.7.7Zm6.6-.2V59.1h1.6V74Zm12.6-5.4-7,1a3.2,3.2,0,0,0,3.4,3.3,6.2,6.2,0,0,0,2.8-.6l.5,1.2a7.4,7.4,0,0,1-3.4.7c-3.1,0-4.9-2-4.9-5.3s1.7-5.3,4.5-5.3,4.1,1.7,4.1,4.4c0,.2,0,.4,0,.7Zm-4.1-3.9c-1.8,0-3,1.4-3,3.8l5.6-.8c0-2-1-3-2.6-3Z"/>
        </symbol>
        <symbol id="calendar" viewBox="0 0 18 18">
                 <path d="M17 4v12H1V4h16zm-1 1H2v10h14V5z" /><path d="M1 7h16v1H1zM4 2h1v4H4zM13 2h1v4h-1z"/><path d="M15 14V9h-5v5h5zm-1-1h-3v-3h3v3z" /><path d="M7 12h1v-1H7zM4 12h1v-1H4z"/>
        </symbol>
        <symbol id="map-marker" viewBox="0 0 18 18">
                 <path d="M9 4c-.552 0-1 .452-1 1.01 0 .557.448 1.009 1 1.009s1-.452 1-1.01C10 4.452 9.552 4 9 4z" /><path d="M3.91 5.962C3.91 3.226 6.192 1 9 1s5.09 2.226 5.09 4.962C14.09 8.47 9.766 15.09 9 16c-.765-.91-5.09-7.531-5.09-10.038z" />
        </symbol>
        <symbol id="caption-minus" viewBox="0 0 9 9">
                 <path d="M9 4v1H0V4z" />
        </symbol>
        <symbol id="caption-plus" viewBox="0 0 9 9">
                 <path d="M5 0v3.999L9 4v1H5v4H4V5H0V4h4V0h1z" />
        </symbol>
        <symbol id="play-link" viewBox="0 0 26 26">
                 <path d="M9 6.29v12.42l11.04-6.21L9 6.29zm2 3.42l4.96 2.79L11 15.289V9.71z"/><path d="M13 0C5.82 0 0 5.82 0 13s5.82 13 13 13 13-5.82 13-13S20.18 0 13 0zm0 2c6.075 0 11 4.925 11 11s-4.925 11-11 11S2 19.075 2 13 6.925 2 13 2z"/>
        </symbol>
        <symbol id="play-button" viewBox="0 0 16 18">
                 <path d="M0 0l16 9-16 9V0zm2 3.419V14.58L11.92 9 2 3.419z" />
        </symbol>
        <symbol id="play-teaser" viewBox="0 0 34 34">
                 <path d="M17 1C8.163 1 1 8.163 1 17s7.163 16 16 16 16-7.163 16-16S25.837 1 17 1z" fill-opacity=".524" fill="#010101"/><path d="M17 0C7.611 0 0 7.611 0 17s7.611 17 17 17 17-7.611 17-17S26.389 0 17 0zm0 2c8.284 0 15 6.716 15 15 0 8.284-6.716 15-15 15-8.284 0-15-6.716-15-15C2 8.716 8.716 2 17 2z" /><path d="M13 10.563v12.42l11.04-6.21L13 10.563zm2 3.42l4.96 2.79L15 19.562v-5.579z" />
        </symbol>
        <symbol id="play-teaser-triangle" viewBox="0 0 11 13">
                 <path d="M4-10c-9.389 0-17 7.611-17 17s7.611 17 17 17 17-7.611 17-17-7.611-17-17-17zm0 2c8.284 0 15 6.716 15 15 0 8.284-6.716 15-15 15-8.284 0-15-6.716-15-15C-11-1.284-4.284-8 4-8z"/><path d="M0 .563v12.42l11.04-6.21L0 .563zm2 3.42l4.96 2.79L2 9.562V3.983z"/>
        </symbol>
        <symbol id="load-map" viewBox="0 0 26 26">
                 <path d="M25 1l-1.406.625-6.625 2.844-7.625-2.875-.375-.125-.375.156-7 3-.594.25v19.188l1.406-.625 6.625-2.844 7.625 2.875.375.125.375-.157 7-3 .594-.25V1zM10 3.969l6 2.25v14.875l-6-2.25V3.969zM8 4.03v14.844l-5 2.156V6.188L8 4.03zm15 0v14.844l-5 2.156V6.188l5-2.157z" fill="#fff" />
        </symbol>
        <symbol id="settings" viewBox="0 0 24 24">
                <path d="M12,8.001c-1.199,0-2.215-0.845-2.449-2h-6.03c-0.276,0-0.5-0.224-0.5-0.5s0.224-0.5,0.5-0.5h6.03   c0.234-1.155,1.25-2,2.449-2c1.199,0,2.215,0.845,2.449,2h6.072c0.276,0,0.5,0.224,0.5,0.5s-0.224,0.5-0.5,0.5h-6.072   C14.215,7.156,13.199,8.001,12,8.001z M12,4.001c-0.827,0-1.5,0.673-1.5,1.5s0.673,1.5,1.5,1.5c0.817,0,1.486-0.66,1.499-1.476   c-0.001-0.008-0.001-0.017-0.001-0.024s0-0.016,0.001-0.025C13.487,4.662,12.818,4.001,12,4.001z"/>
                <path d="M8,14.501c-1.199,0-2.215-0.845-2.449-2h-2.03c-0.276,0-0.5-0.224-0.5-0.5c0-0.276,0.224-0.5,0.5-0.5h2.03   c0.234-1.155,1.25-2,2.449-2s2.215,0.845,2.449,2h10.072c0.276,0,0.5,0.224,0.5,0.5c0,0.276-0.224,0.5-0.5,0.5H10.449   C10.215,13.656,9.199,14.501,8,14.501z M8,10.501c-0.827,0-1.5,0.673-1.5,1.5s0.673,1.5,1.5,1.5c0.812,0,1.48-0.655,1.499-1.464   c-0.002-0.013-0.003-0.025-0.003-0.036c0-0.012,0.001-0.027,0.004-0.041C9.487,11.163,8.816,10.501,8,10.501z"/>
                <path d="M10,21.001c-1.199,0-2.215-0.845-2.449-2h-4.03c-0.276,0-0.5-0.224-0.5-0.5s0.224-0.5,0.5-0.5h4.03   c0.234-1.155,1.25-2,2.449-2s2.215,0.845,2.449,2h8.072c0.276,0,0.5,0.224,0.5,0.5s-0.224,0.5-0.5,0.5h-8.072   C12.215,20.156,11.199,21.001,10,21.001z M10,17.001c-0.827,0-1.5,0.673-1.5,1.5s0.673,1.5,1.5,1.5   c0.812,0,1.479-0.655,1.499-1.464c-0.002-0.013-0.003-0.025-0.003-0.036c0-0.012,0.001-0.027,0.004-0.042   C11.487,17.663,10.816,17.001,10,17.001z"/>
        </symbol>
        <symbol id="close" viewBox="0 0 24 24">
            <g id="00-assets" transform="translate(-210.000000, -120.000000)" fill-rule="nonzero">
                <g id="delete" transform="translate(215.472727, 126.000000)">
                    <polygon id="Path" points="1.34188212 0.568181818 0.568181818 1.34188212 5.29448151 6.06818182 0.568181818 10.7944815 1.34188212 11.5681818 6.06818182 6.84188212 10.7944815 11.5681818 11.5681818 10.7944815 6.84188212 6.06818182 11.5681818 1.34188212 10.7944815 0.568181818 6.06818182 5.29448151"/>
                </g>
            </g>
        </symbol>
        <symbol id="linkedin" viewBox="0 0 26 26">
          <svg id="Layer_1" data-name="Layer 1" xmlns="http://www.w3.org/2000/svg" viewBox="0 -20 215 215">
            <path id="Path_2520" data-name="Path 2520" class="cls-1" d="M109.97,109.97h-19.04v-29.81c0-7.11-.13-16.26-9.9-16.26s-11.43,7.75-11.43,15.74v30.33h-19.04v-61.31h18.28v8.38h.26c3.73-6.37,10.66-10.18,18.03-9.9,19.29,0,22.85,12.69,22.85,29.2v33.63ZM29.08,40.28c-6.1,0-11.05-4.94-11.05-11.05,0-6.1,4.94-11.05,11.05-11.05,6.1,0,11.05,4.94,11.05,11.05,0,6.1-4.94,11.05-11.05,11.05h0M38.6,109.97h-19.06v-61.31h19.06v61.31ZM119.46.51H9.98C4.81.45.56,4.6.5,9.77v109.93c.06,5.18,4.3,9.33,9.48,9.27h109.48c5.19.07,9.45-4.08,9.52-9.27V9.76c-.07-5.18-4.33-9.33-9.52-9.26"/>
          </svg>
        </symbol>
</svg>
