<?xml version="1.0" encoding="UTF-8"?>
<svg id="Logo" xmlns="http://www.w3.org/2000/svg" viewBox="0 0 657.38 325.98">
  <defs>
    <style>
      .cls-1 {
        fill: #fff;
        stroke-width: 0px;
      }
    </style>
  </defs>
  <path class="cls-1" d="M215.75,59.28c4.61.27,10.75.67,18.65,2.77,17.43,4.63,29.58,13.88,36.29,19.91,6.12-3.55,14.48-8.12,24.7-12.85,7.92-3.67,31.44-14.43,58.97-20.29,37.21-7.92,70.94-5.67,94.16-.23,7.76,2.05,16.59,4.93,26.05,9.05,7.52,3.28,14.16,6.79,19.91,10.2-14.42-4.57-27.23-7.33-37.55-9.07-16.45-2.77-29.12-3.37-33.01-3.53-6.86-.27-19.16-.48-34.52,1.01-6.37.62-17.92,1.78-32.51,5.29-15.99,3.85-27.48,8.55-36.04,12.1-13.51,5.6-31.62,14.24-51.91,27.47-5.38-5.58-10.6-9.48-14.62-12.1-5.28-3.44-13.49-7.92-23.69-10.58-9.65-2.52-17.31-2.54-22.18-2.52-14.3.06-24.97,3.22-31.75,5.29-16.5,5.03-27.9,12.22-32.26,15.12-8.15,5.43-15.28,10.79-19.6,15.16l-24.75-.04v-41.59l-42.89,22.76v-20.29c38.22-20.41,74.98-40.01,113.2-60.42v21.17c-15.29,8.06-30.58,16.13-45.87,24.19v29.48c7.09-4.46,13.48-7.83,18.65-10.33,13.9-6.72,40.21-19.06,72.58-17.14Z"/>
  <path class="cls-1" d="M92.14,44.92v-10.43c12.07-6.51,24.59-13.33,37.86-20.5v10.32c-12.62,6.87-25.24,13.74-37.86,20.6Z"/>
  <path class="cls-1" d="M536.72,62.63c3.06-2.28,6.07-3.26,12.09-5.21,1.61-.52,8.12-2.59,17.42-4.03,3.18-.49,5.84-.78,7.7-.95-1.16,1.12-2.94,2.69-5.33,4.27-1.76,1.17-3.15,1.87-5.81,3.2-4.6,2.31-5.42,2.35-8.18,4.03-1.1.66-2.62,1.6-4.38,3.08-3.25,2.73-5.12,5.49-6.52,7.58-1.67,2.5-3.07,5.11-4.38,8.18-3.95,9.21-5.89,19.69-6.64,24.17-1.4,1.21-4.49,3.54-9.01,4.27-4.37.7-7.98-.08-9.48-1.07-5.15-3.38-6.89-4.73-13.63-9.95-1.32-1.02-4.5-3.22-6.92-4.71-1.58-.97-4.06-1.14-5.81-.46-3.33,1.3-8.28,3.7-10.38,4.6-4.32,1.95-7.62,3.94-11.84,3.64-2.81-.19-5.05-1.32-6.52-2.25,11.5-9.12,20.75-15.62,25.83-18.84,0,0,4.63-2.93,9.84-3.32,2.66-.2,4.74.71,4.74.71,0,0,0,0,0,0,1.04.39,1.76.84,2.13,1.07,5,3.13,7.48,4.74,9.24,5.92,3.82,2.57,4.97,3.41,8.77,5.57.85-2.5,2.12-6.03,3.91-10.19,2.05-4.78,3.13-7.3,5.21-10.43,1.58-2.38,3.91-5.88,7.94-8.89Z"/>
  <path class="cls-1" d="M410.81,219.06h-26.17v-87.38h26.22v50.08l42.66-34.27h34c-3.36,2.84-6.98,5.36-10.49,8.02-3.34,2.53-6.71,5.01-10.06,7.51-3.35,2.5-6.71,5.01-10.06,7.51-3.33,2.49-6.67,4.99-10.29,7.71,14.35,13.51,28.45,27.52,42.63,40.87l-36.02-.03c-8.77-8.59-17.57-17.21-26.53-25.99-5.09,3.8-10.33,7.7-15.88,11.83v14.14Z"/>
  <path class="cls-1" d="M230.63,176.38c.49-6.27-1.74-9.97-7.14-11.84-2.11-.73-4.35-1.15-6.57-1.43-5.67-.73-11.35-.63-17,.3-.84.14-1.68.38-2.5.63-3.9,1.19-6.8,3.26-6.6,8.08h-24.64c-.78-5.95.6-11.12,4.62-15.51,2.97-3.25,6.73-5.28,10.79-6.8,5.37-2.01,10.95-3.04,16.64-3.5,10.95-.89,21.88-.95,32.66,1.61,4.72,1.12,9.24,2.79,13.36,5.41,8,5.08,12.3,12.4,12.97,21.8.24,3.42.13,6.87.13,10.3.01,9.98,0,19.96,0,29.95,0,1.15,0,2.3,0,3.64h-26.31c.17-3.98.33-9.24.51-13.3,0,0-.82,1.74-.92,1.93-3.69,6.77-9.84,10.04-17.01,11.55-9.77,2.07-19.61,2.13-29.41.07-4.45-.93-8.61-2.64-12.28-5.4-7.97-6-10.56-16.71-6.22-25.7,2.56-5.3,7.02-8.25,12.43-9.97,4.23-1.34,8.61-1.8,13.02-1.81,12.02-.03,24.05-.01,36.07-.01,1.06,0,2.12,0,3.39,0ZM230.74,190.59c-11.8,0-23.26-.03-34.72.03-1.59,0-3.35.24-4.75.75-1.91.69-3.5,1.61-3.81,3.85-.31,2.22.35,4.12,2.24,5.3,1.43.89,3.02,1.68,4.65,2.07,8.31,1.98,16.59,1.69,24.76-.8,3.41-1.04,6.57-2.65,9.06-5.31,1.47-1.57,2.75-3.27,2.57-5.89Z"/>
  <path class="cls-1" d="M342.76,177.82c-.66-5.18-4.03-9.13-8.67-10.77-8.05-2.84-16.24-2.96-24.28,0-7.42,2.72-11.05,8.79-10.79,17.22.25,7.9,4.33,13.53,11.88,15.76,7.6,2.24,15.29,2.02,22.83-.36,5.64-1.78,7.84-4.43,9.41-10.53h23.48c-.18,2.69-.44,4.84-.95,7.08-1.84,8.02-6.75,13.75-13.79,17.75-5.48,3.12-11.45,4.82-17.65,5.7-10.71,1.52-21.39,1.65-31.98-.93-6.11-1.49-11.77-4-16.74-7.93-17.63-13.96-17.36-41.5.54-55.12,6.57-5,14.1-7.73,22.15-8.94,10.7-1.62,21.4-1.42,31.97,1.13,5.8,1.4,11.21,3.68,15.87,7.5,5.86,4.79,10.21,13.02,10.58,22.45"/>
  <path class="cls-1" d="M546.06,153.87v-21.11l101.74-.1v21.22h-37.02v65.29h-28.78v-65.05"/>
  <path class="cls-1" d="M84.8,147.27v19.2c-12.09,0-24.24-.03-36.38-.03l-.02,2.53c-.01,7.08-.04,14.16,0,21.24.05,6.52,2.46,9.38,8.91,10.47,8.13,1.37,16.25.7,24.36-.28.72-.09,1.44-.13,2.41-.22v18.16c-2.88.89-7.33,1.63-11.04,1.91-10.42.79-20.8.82-30.96-2.16-1.13-.33-2.25-.72-3.34-1.15-10.86-4.28-16.47-12.31-16.75-23.93-.18-7.51-.05-15.02-.06-22.53,0-1.16,0-2.32,0-3.82h-13.11c-.15-6.59-.05-12.66.08-19.39,3.49,0,6.69.01,9.88,0,4.57-.02,5.6-.89,6.34-5.41.3-1.8.5-3.61.75-5.42.23-1.69.47-3.38.73-5.22h21.68v16.06"/>
  <path class="cls-1" d="M157.89,167.93c-4.36-1.56-8.63-1.81-12.9-1.2-9.93,1.44-16.98,8.75-18.5,19.13-.32,2.22-.46,4.49-.48,6.73-.06,7.51-.02,15.02-.02,22.53,0,1.16,0,2.33,0,3.73h-25.86l-.11-71.39h25.73v17.92c1.78-3.33,3.59-5.97,5.71-8.33,2.19-2.44,4.75-4.71,7.54-6.42,2.69-1.65,5.84-2.98,8.87-3.66s6.5-1.23,10.01-1.08v22.03Z"/>
  <path class="cls-1" d="M536.01,219.26h-27.85c-.15-38.57-.18-40.72-.12-86.91h27.97v86.91Z"/>
  <path class="cls-1" d="M574.66,295.83h-9.04c0-1.24,0-2.38,0-3.52,0-7.19.03-14.38-.01-21.56-.07-10.27-4.71-14.9-15.04-14.9-2.23,0-4.52.26-6.66.84-8.6,2.32-13.54,8.72-13.68,17.61-.09,5.9-.02,11.8-.03,17.7,0,1.17,0,2.34,0,3.76h-9.01c0-1.27,0-2.42,0-3.57,0-7.19.04-14.38-.02-21.56-.08-10.76-5.42-15.25-17.1-14.8-2.11.08-4.21.53-6.14,1.38-7.79,3.42-11.97,9.14-12.14,17.16-.12,5.9-.03,11.8-.03,17.7,0,1.16,0,2.33,0,3.71h-8.47l-.27-46.87h8.56v11.09c1.11-2.01,3.06-4.62,5.86-7.1,2.15-1.94,5.79-3.68,7.58-4.01,2.93-.57,5.93-1.12,8.89-1.1,2.96.03,6.05.4,8.85,1.32,2.68.88,5.39,2.29,7.51,4.13,2.18,1.89,2.88,2.89,5.42,7.29l.59-1.2c3.01-6.02,8.2-9.9,15.11-11.05,4.27-.71,8.52-.76,12.8-.02,9.98,1.72,16.03,8.32,16.32,18.52"/>
  <path class="cls-1" d="M461.28,274.78h-50.67c.38,4.76,2.23,8.5,6.16,10.78,2.45,1.43,5.26,2.48,8.04,3.07,5.5,1.17,11.1,1.03,16.63-.02,5.14-.98,9.73-2.84,11.63-8.32h8.28c0,.9-.52,2.88-1.03,4.09-1.56,3.71-4.37,6.31-7.81,8.27-3.4,1.93-7.08,3.05-10.92,3.62-7.5,1.12-14.99,1.06-22.33-1-8.37-2.35-14.6-7.21-16.94-15.96-2.96-11.06,1.03-23.36,13.71-28.49,10.46-4.24,21.19-4.31,31.74-.43,8.6,3.17,13.05,9.74,13.5,18.92.08,1.69.01,3.38.01,5.47ZM411,267.97c7.57.65,39.28.37,41.68-.36,0-.4.06-.82,0-1.23-.86-5.18-4.33-7.96-8.98-9.46-5.6-1.81-11.37-1.87-17.15-1.17-3.21.39-6.31,1.19-9.1,2.91-3.42,2.11-5.68,5.04-6.44,9.32Z"/>
  <path class="cls-1" d="M137.27,280.02h8.27c.38,5.77,4.46,7.6,9.3,8.46,8.01,1.42,16.03,1.24,23.98-.43,1.63-.34,3.23-1.17,4.68-2.04,1.97-1.2,2.4-3.19,2.06-5.36-.35-2.17-1.99-3.12-3.86-3.3-5.66-.52-11.33-.8-17-1.24-5.23-.4-10.47-.84-15.69-1.36-1.37-.14-2.74-.52-4.06-.94-7.38-2.35-10.16-10.32-5.9-16.84,1.76-2.7,4.3-4.46,7.16-5.8,4.03-1.88,8.34-2.73,12.74-3.14,7.11-.67,14.15-.4,21.06,1.56,2.82.8,5.43,2.04,7.6,4.05,3.19,2.96,4.47,6.69,4.35,11.22h-8.08c-.07-.09-.29-.24-.3-.4-.34-4.88-3.39-7.27-7.79-8.12-7.78-1.49-15.58-1.52-23.29.43-1.61.41-3.26,1.24-4.52,2.31-3.24,2.74-2.32,7.06,1.77,8.1,2.68.68,5.5.89,8.27,1.08,7.49.5,15,.82,22.49,1.35,2.01.14,4.01.68,5.98,1.18,9.26,2.35,10.45,13.72,4.82,19.01-1.83,1.72-4.1,3.19-6.44,4.1-2.96,1.16-6.15,1.95-9.31,2.36-8.34,1.08-16.7,1.16-24.93-.93-3.14-.8-6.1-2.06-8.59-4.21-3.28-2.83-4.87-6.41-4.76-11.1Z"/>
  <path class="cls-1" d="M636.32,264.8c-.42-4.08-2.92-7.27-6.73-8.16-8.29-1.95-16.6-1.86-24.83.28-1.5.39-3.01,1.27-4.16,2.32-3.01,2.74-2.05,6.91,1.88,7.91,2.67.69,5.49.91,8.26,1.1,7.49.51,15,.82,22.49,1.35,2.12.15,4.23.68,6.29,1.25,9.02,2.5,9.85,13.21,5.13,18.47-1.91,2.13-4.22,3.73-6.88,4.6-3.04.99-6.17,1.91-9.33,2.32-8.34,1.1-16.69,1.18-24.93-.9-3.15-.79-6.09-2.06-8.62-4.17-3.28-2.74-4.85-6.34-4.69-11.13,2.73,0,5.39,0,8.12,0,.24,1.59.33,2.08.33,2.08.5,2.27,1.97,3.88,4.05,4.74,1.97.81,4.03,1.56,6.12,1.85,7.38,1.03,14.78.99,22.1-.52,1.75-.36,3.48-1.1,5.06-1.96,2.12-1.16,2.76-3.18,2.4-5.52-.36-2.33-2.12-3.24-4.11-3.42-5.66-.5-11.34-.76-17-1.2-5.23-.4-10.46-.86-15.69-1.38-1.27-.13-2.53-.5-3.75-.88-7.51-2.36-10.3-10.54-5.84-17.08,1.88-2.76,4.55-4.51,7.54-5.82,3.77-1.66,7.75-2.43,11.83-2.87,6.45-.7,12.88-.52,19.2.95,2.48.58,4.96,1.47,7.18,2.71,4.95,2.75,7.13,7.18,7.03,13.09"/>
  <path class="cls-1" d="M331.34,264.93h-8.22c-1.14-5.78-3.09-7.81-8.78-8.8-6.82-1.19-13.68-1.1-20.49.12-1.76.31-3.54.97-5.09,1.86-1.13.65-2.18,1.79-2.77,2.96-1.29,2.56-.28,5.14,2.49,5.87,2.87.76,5.89,1.09,8.87,1.3,7.49.53,14.99.82,22.48,1.35,2.12.15,4.23.69,6.29,1.23,8.4,2.23,10.21,12.29,5.42,18.17-1.88,2.31-4.29,3.96-7.06,4.88-3.04,1-6.16,1.92-9.32,2.34-8.33,1.11-16.68,1.2-24.92-.86-3.15-.79-6.12-2.02-8.63-4.13-3.4-2.86-5.08-6.48-4.79-11.16h8.23c.33,5.53,4.12,7.42,8.73,8.3,8.11,1.55,16.23,1.34,24.29-.27,1.64-.33,3.25-1.11,4.7-1.98,1.91-1.14,2.68-3.03,2.32-5.26-.37-2.25-2-3.36-4.03-3.54-5.65-.51-11.33-.78-16.99-1.22-5.23-.4-10.46-.84-15.68-1.36-1.37-.14-2.72-.59-4.06-.96-8.5-2.3-9.58-11.99-5.45-17.39,1.95-2.55,4.51-4.24,7.4-5.5,3.88-1.69,7.97-2.47,12.15-2.87,6.88-.66,13.72-.43,20.42,1.42,1.84.51,3.68,1.23,5.34,2.16,5.07,2.83,7.33,7.27,7.15,13.33Z"/>
  <path class="cls-1" d="M267.28,248.92c-8.6,15.7-18.24,33.9-26.94,49.55-2.08,3.73-4.38,7.4-7.04,10.74-5.74,7.19-15.13,9.39-24,5.89v-7.42c1.94.28,3.7.51,5.46.78,5.92.89,10.52-1.13,13.73-6.23,1.14-1.81,2.3-3.61,3.3-5.16-9.92-16-19.7-32.08-29.7-48.21h10.4c7.91,12.93,15.82,25.76,24.08,39.27,7.23-13.34,14.19-26.19,21.23-39.19"/>
  <path class="cls-1" d="M390.58,294.68c-3.31,1.44-6.88,1.41-10.38,1.59-4.61.23-9.21-.17-13.68-1.5-7.91-2.35-13.27-9.77-13.39-18.02-.08-5.48-.01-10.95-.01-16.43,0-1.06,0-2.12,0-3.51h-9.61v-8.03h7.15c1.25,0,2.38-.84,2.68-2.06.72-2.9.91-5.79,1.17-8.53h7.5v10.28c9.68.54,19.08-.06,28.71.35v7.74c-2.95.05-6.01.11-9.07.15-3.22.04-6.44,0-9.65,0s-6.54-.01-9.83-.01v2.26c-.03,5.9-.07,11.8,0,17.7.07,6.68,2.73,10.07,9.32,10.92,4.42.57,8.96.36,13.45.35,1.79,0,3.5-.15,5.67-.69v7.43Z"/>
</svg>