<?xml version="1.0" encoding="UTF-8" standalone="no"?>
<svg xmlns:inkscape="http://www.inkscape.org/namespaces/inkscape" xmlns:sodipodi="http://sodipodi.sourceforge.net/DTD/sodipodi-0.dtd" xmlns="http://www.w3.org/2000/svg" xmlns:svg="http://www.w3.org/2000/svg" version="1.1" id="svg1" width="1365.3333" height="420" viewBox="0 0 1365.3333 420" sodipodi:docname="VCP-WBM_VCP-Blau_RGB.svg" inkscape:export-filename="VCP-WBM_VCP-Schwarz_RGB.svg" inkscape:export-xdpi="96" inkscape:export-ydpi="96">
  <defs id="defs1">
    <clipPath id="clipPath2">
      <path d="M 0,315 H 1024 V 0 H 0 Z" transform="translate(-411.18051,-146.8888)" id="path2"></path>
    </clipPath>
    <clipPath id="clipPath4">
      <path d="M 0,315 H 1024 V 0 H 0 Z" transform="translate(-141.1825,-135.5682)" id="path4"></path>
    </clipPath>
    <clipPath id="clipPath6">
      <path d="M 0,315 H 1024 V 0 H 0 Z" transform="translate(-196.3627,-149.6931)" id="path6"></path>
    </clipPath>
    <clipPath id="clipPath8">
      <path d="M 0,315 H 1024 V 0 H 0 Z" transform="translate(-110.3601,-190.90851)" id="path8"></path>
    </clipPath>
    <clipPath id="clipPath10">
      <path d="M 0,315 H 1024 V 0 H 0 Z" transform="translate(-154.0752,-145.76601)" id="path10"></path>
    </clipPath>
    <clipPath id="clipPath12">
      <path d="M 0,315 H 1024 V 0 H 0 Z" transform="translate(-504.91312,-174.08721)" id="path12"></path>
    </clipPath>
    <clipPath id="clipPath14">
      <path d="M 0,315 H 1024 V 0 H 0 Z" transform="translate(-536.89102,-182.43651)" id="path14"></path>
    </clipPath>
    <clipPath id="clipPath16">
      <path d="M 0,315 H 1024 V 0 H 0 Z" transform="translate(-548.75152,-183.9901)" id="path16"></path>
    </clipPath>
    <clipPath id="clipPath18">
      <path d="M 0,315 H 1024 V 0 H 0 Z" transform="translate(-573.27641,-182.6062)" id="path18"></path>
    </clipPath>
    <clipPath id="clipPath20">
      <path d="M 0,315 H 1024 V 0 H 0 Z" transform="translate(-599.60482,-179.5609)" id="path20"></path>
    </clipPath>
    <clipPath id="clipPath22">
      <path d="M 0,315 H 1024 V 0 H 0 Z" transform="translate(-641.72612,-168.103)" id="path22"></path>
    </clipPath>
    <clipPath id="clipPath24">
      <path d="M 0,315 H 1024 V 0 H 0 Z" transform="translate(-653.52032,-195.7473)" id="path24"></path>
    </clipPath>
    <clipPath id="clipPath26">
      <path d="M 0,315 H 1024 V 0 H 0 Z" transform="translate(-706.82812,-177.94251)" id="path26"></path>
    </clipPath>
    <clipPath id="clipPath28">
      <path d="M 0,315 H 1024 V 0 H 0 Z" transform="translate(-733.85222,-168.103)" id="path28"></path>
    </clipPath>
    <clipPath id="clipPath30">
      <path d="M 0,315 H 1024 V 0 H 0 Z" transform="translate(-745.67112,-183.9901)" id="path30"></path>
    </clipPath>
    <clipPath id="clipPath32">
      <path d="M 0,315 H 1024 V 0 H 0 Z" id="path32"></path>
    </clipPath>
    <clipPath id="clipPath34">
      <path d="M 0,315 H 1024 V 0 H 0 Z" transform="translate(-792.09204,-175.9401)" id="path34"></path>
    </clipPath>
    <clipPath id="clipPath36">
      <path d="M 0,315 H 1024 V 0 H 0 Z" transform="translate(-820.74535,-195.7473)" id="path36"></path>
    </clipPath>
    <clipPath id="clipPath38">
      <path d="M 0,315 H 1024 V 0 H 0 Z" transform="translate(-830.3473,-171.4461)" id="path38"></path>
    </clipPath>
    <clipPath id="clipPath40">
      <path d="M 0,315 H 1024 V 0 H 0 Z" id="path40"></path>
    </clipPath>
    <clipPath id="clipPath42">
      <path d="M 0,315 H 1024 V 0 H 0 Z" transform="translate(-880.30885,-177.94251)" id="path42"></path>
    </clipPath>
    <clipPath id="clipPath44">
      <path d="M 0,315 H 1024 V 0 H 0 Z" transform="translate(-907.3345,-168.103)" id="path44"></path>
    </clipPath>
    <clipPath id="clipPath46">
      <path d="M 0,315 H 1024 V 0 H 0 Z" transform="translate(-930.31825,-182.43651)" id="path46"></path>
    </clipPath>
    <clipPath id="clipPath48">
      <path d="M 0,315 H 1024 V 0 H 0 Z" transform="translate(-942.17875,-183.9901)" id="path48"></path>
    </clipPath>
    <clipPath id="clipPath50">
      <path d="M 0,315 H 1024 V 0 H 0 Z" transform="translate(-499.85141,-132.3115)" id="path50"></path>
    </clipPath>
    <clipPath id="clipPath52">
      <path d="M 0,315 H 1024 V 0 H 0 Z" transform="translate(-536.13041,-130.5219)" id="path52"></path>
    </clipPath>
    <clipPath id="clipPath54">
      <path d="M 0,315 H 1024 V 0 H 0 Z" transform="translate(-545.18932,-128.28651)" id="path54"></path>
    </clipPath>
    <clipPath id="clipPath56">
      <path d="M 0,315 H 1024 V 0 H 0 Z" transform="translate(-570.62602,-144.4729)" id="path56"></path>
    </clipPath>
    <clipPath id="clipPath58">
      <path d="M 0,315 H 1024 V 0 H 0 Z" transform="translate(-607.64092,-130.5219)" id="path58"></path>
    </clipPath>
    <clipPath id="clipPath60">
      <path d="M 0,315 H 1024 V 0 H 0 Z" id="path60"></path>
    </clipPath>
    <clipPath id="clipPath62">
      <path d="M 0,315 H 1024 V 0 H 0 Z" transform="translate(-648.00512,-116.82861)" id="path62"></path>
    </clipPath>
    <clipPath id="clipPath64">
      <path d="M 0,315 H 1024 V 0 H 0 Z" transform="translate(-659.79772,-144.4729)" id="path64"></path>
    </clipPath>
    <clipPath id="clipPath66">
      <path d="M 0,315 H 1024 V 0 H 0 Z" transform="translate(-697.31402,-131.1621)" id="path66"></path>
    </clipPath>
    <clipPath id="clipPath68">
      <path d="M 0,315 H 1024 V 0 H 0 Z" transform="translate(-709.17462,-132.71571)" id="path68"></path>
    </clipPath>
    <clipPath id="clipPath70">
      <path d="M 0,315 H 1024 V 0 H 0 Z" transform="translate(-733.48352,-137.76351)" id="path70"></path>
    </clipPath>
    <clipPath id="clipPath72">
      <path d="M 0,315 H 1024 V 0 H 0 Z" id="path72"></path>
    </clipPath>
    <clipPath id="clipPath74">
      <path d="M 0,315 H 1024 V 0 H 0 Z" transform="translate(-782.53322,-116.82861)" id="path74"></path>
    </clipPath>
    <clipPath id="clipPath76">
      <path d="M 0,315 H 1024 V 0 H 0 Z" transform="translate(-811.01215,-116.82861)" id="path76"></path>
    </clipPath>
    <clipPath id="clipPath78">
      <path d="M 0,315 H 1024 V 0 H 0 Z" transform="translate(-833.99275,-131.1621)" id="path78"></path>
    </clipPath>
    <clipPath id="clipPath80">
      <path d="M 0,315 H 1024 V 0 H 0 Z" transform="translate(-862.51645,-116.82861)" id="path80"></path>
    </clipPath>
  </defs>
  <g id="layer-MC0" inkscape:groupmode="layer" inkscape:label="Ebene 2" style="fill:#ffffff;fill-opacity:1">
    <path id="path1" d="m 0,0 c 1.016,-7.702 -4.091,-14.417 -5.079,-15.662 8.459,2.03 14.118,4.474 21.115,15.662 7.008,11.194 3.057,28.312 -9.164,33.916 -11.411,5.253 -24.527,7.071 -36.928,-4.551 -12.405,-11.636 -17.912,-34.741 -19.519,-46.517 1.21,0 2.355,-0.074 2.355,-0.074 0,0 7.828,30.019 33.208,30.596 C -6.118,13.549 -0.163,6.358 0,0 m -14.037,-35.303 c 0.165,-9.616 -4.819,-17.306 -13.661,-17.458 -8.844,-0.171 -15.928,7.371 -18.979,20.495 -2.732,0 -3.695,0.169 -3.695,0.169 0,0 -2.412,-27.247 17.526,-36.851 12.279,-5.927 21.067,4.802 22.831,8.962 1.773,4.173 4.665,14.911 -4.022,24.683 m -43.557,-46.363 c -3.1,5.33 -9.795,11.185 -12.293,15.376 -6.735,-6.352 -14.143,-10.349 -24.473,-8.034 -10.325,2.31 -25.825,18.788 -12.135,40.662 -18.071,-4.385 -26.082,-1.947 -31.761,2.31 -5.689,4.242 -11.83,12.107 -10.28,24.666 1.684,13.695 2.03,16.846 -0.389,35.166 -2.186,16.587 14.62,39.412 44.822,25.962 2.132,-1.027 3.326,-0.756 2.815,1.299 -0.52,2.059 -5.661,14.178 -4.299,22.28 1.418,8.49 5.164,18.788 21.302,23.927 8.488,2.709 17.11,-1.308 26.691,-1.168 h 0.128 c 9.595,-0.14 18.217,3.877 26.704,1.168 16.134,-5.139 19.882,-15.437 21.301,-23.927 1.35,-8.102 -3.783,-20.221 -4.3,-22.28 -0.514,-2.055 0.677,-2.326 2.821,-1.299 C 19.256,67.892 36.063,45.067 33.867,28.48 31.458,10.16 31.8,7.009 33.482,-6.686 c 1.55,-12.559 -4.585,-20.424 -10.278,-24.666 -5.681,-4.257 -13.692,-6.695 -31.76,-2.31 13.686,-21.874 -1.807,-38.352 -12.137,-40.662 -10.322,-2.315 -17.733,1.682 -24.474,8.034 -2.492,-4.191 -9.187,-10.046 -12.299,-15.376 z m 0.128,175.51 c 0,0 7.457,-8.73 16.121,-23.929 8.268,-14.492 6.501,-32.38 6.501,-34.49 0,-2.104 -0.599,-2.706 -0.151,-3.157 0.459,-0.452 0.459,0.145 2.421,1.953 12.242,11.898 30.949,8.758 37.353,6.114 7.109,-2.931 18.765,-10.726 19.136,-25.642 0.731,-29.06 -26.114,-35.86 -31.858,-35.589 -6.748,0.329 -2.857,6.203 -1.906,7.48 2.766,3.72 5.444,8.676 4.562,14.334 -0.657,4.203 -5.844,8.899 -13.829,6.612 -20.718,-5.935 -22.831,-26.776 -22.831,-26.776 l 3.329,-5.715 c 0,0 -1.813,-2.107 -3.329,-4.514 1.81,-11.453 7.563,-19.279 16.019,-17.929 8.465,1.365 6.201,14.318 5.898,16.562 -0.302,2.27 1.305,8.144 9.77,3.934 27.652,-14.195 40.704,5.947 38.434,20.018 -2.76,17.123 0.052,29.528 0.506,35.061 0.537,6.566 -1.017,15.987 -8.365,20.955 -12.233,8.29 -20.703,3.768 -30.373,0.159 -9.669,-3.617 -9.669,5.867 -8.459,8.882 1.208,3.009 3.629,11.14 3.92,17.62 0.303,6.478 -3.471,13.552 -9.664,18.217 -6.198,4.668 -16.17,4.217 -19.496,3.315 -3.326,-0.908 -13.709,-1.371 -13.709,-1.371 h -0.128 c 0,0 -10.369,0.463 -13.701,1.371 -3.323,0.902 -13.298,1.353 -19.49,-3.315 -6.198,-4.665 -9.978,-11.739 -9.675,-18.217 0.303,-6.48 2.723,-14.611 3.925,-17.62 1.219,-3.015 1.219,-12.499 -8.459,-8.882 -9.675,3.609 -18.134,8.131 -30.373,-0.159 -7.348,-4.968 -8.901,-14.389 -8.362,-20.955 0.457,-5.533 3.263,-17.938 0.505,-35.061 -2.266,-14.071 10.783,-34.213 38.442,-20.018 8.464,4.21 10.069,-1.664 9.766,-3.934 -0.3,-2.244 -2.575,-15.197 5.889,-16.562 8.466,-1.35 14.207,6.476 16.019,17.929 -1.51,2.407 -3.32,4.514 -3.32,4.514 l 3.32,5.715 c 0,0 -2.112,20.841 -22.827,26.776 -7.982,2.287 -13.173,-2.409 -13.829,-6.612 -0.885,-5.658 1.799,-10.614 4.568,-14.334 0.953,-1.277 4.839,-7.151 -1.919,-7.48 -5.738,-0.271 -32.579,6.529 -31.852,35.589 0.371,14.916 12.031,22.711 19.137,25.642 6.406,2.644 25.117,5.784 37.353,-6.114 1.964,-1.808 1.964,-2.405 2.418,-1.953 0.451,0.451 -0.152,1.053 -0.152,3.157 0,2.11 -1.758,19.998 6.501,34.49 8.656,15.199 16.116,23.929 16.116,23.929 z m -43.576,-80.477 c 25.388,-0.577 33.213,-30.596 33.213,-30.596 0,0 1.142,0.074 2.352,0.074 -1.607,11.776 -7.111,34.881 -19.515,46.517 -12.402,11.623 -25.515,9.804 -36.934,4.551 -12.219,-5.604 -16.17,-22.722 -9.17,-33.916 7.003,-11.188 12.665,-13.632 21.138,-15.662 -1.005,1.245 -6.104,7.96 -5.088,15.662 0.157,6.358 6.121,13.549 14.004,13.37 m -3.995,-73.358 c 1.767,-4.159 10.546,-14.888 22.833,-8.961 19.939,9.604 17.53,36.851 17.53,36.851 0,0 -0.968,-0.169 -3.698,-0.169 -3.06,-13.124 -10.134,-20.666 -18.979,-20.495 -8.838,0.152 -13.829,7.842 -13.669,17.458 -8.676,-9.772 -5.79,-20.51 -4.017,-24.684 m 47.571,-12.821 c 1.239,2.27 6.138,5.421 8.804,10.832 -9.138,15.73 -6.7,34.198 -6.7,34.198 l 8.845,0.648 1.61,2.416 -2.413,2.874 -7.559,0.166 c 0.165,7.84 3.383,21.146 3.383,21.146 l -5.97,5.926 h -0.128 l -5.958,-5.926 c 0,0 3.22,-13.306 3.371,-21.146 l -7.554,-0.166 -2.407,-2.874 1.608,-2.416 8.836,-0.648 c 0,0 2.449,-18.468 -6.695,-34.198 2.661,-5.411 7.574,-8.562 8.799,-10.832 z m 0,85.312 c 0,0 1.55,-1.933 7.223,-7.423 1.136,2.912 8.256,21.789 9.227,25.335 0.973,3.557 2.912,15.002 -0.64,27.423 -3.565,12.431 -15.81,28.714 -15.81,28.714 h -0.128 c 0,0 -12.234,-16.283 -15.785,-28.714 -3.572,-12.421 -1.63,-23.866 -0.653,-27.423 0.964,-3.546 8.09,-22.423 9.229,-25.335 5.667,5.49 7.209,7.423 7.209,7.423 z" style="fill:#ffffff;fill-opacity:1;fill-rule:nonzero;stroke:none" transform="matrix(1.3333333,0,0,-1.3333333,548.24067,224.14827)" clip-path="url(#clipPath2)"></path>
    <path id="path3" d="M 0,0 C -0.008,0 -0.017,0 -0.025,0 -0.03,0 -0.035,0 -0.04,0 Z" style="fill:#ffffff;fill-opacity:1;fill-rule:nonzero;stroke:none" transform="matrix(1.3333333,0,0,-1.3333333,188.24333,239.2424)" clip-path="url(#clipPath4)"></path>
    <path id="path5" d="m 0,0 c -2.167,-3.092 -5.165,-4.636 -8.998,-4.636 -4.959,0 -8.531,2.084 -10.709,6.249 v 23.798 c 2.147,4.066 5.684,6.095 10.609,6.095 3.965,0 7.017,-1.567 9.147,-4.707 C 2.181,23.659 3.246,19.411 3.246,14.058 3.246,7.777 2.164,3.092 0,0 m 9.667,34.063 v -0.001 c -3.717,4.876 -8.85,7.311 -15.394,7.311 -6.081,0 -10.891,-2.147 -14.428,-6.443 l -0.226,2.58 c -0.111,1.83 -1.193,2.878 -2.675,2.878 -0.031,0 -5.781,-0.006 -5.781,-0.006 -1.727,0 -2.921,-1.236 -2.921,-2.92 l -0.034,-67.406 c 0,-2.213 1.522,-3.943 3.649,-3.943 l 4.825,0.011 c 2.118,0 3.599,1.733 3.599,3.797 l 0.012,0.226 -0.911,67.704 0.911,-67.412 v 21.109 c 3.534,-3.868 8.245,-5.801 14.128,-5.801 6.347,0 11.406,2.469 15.172,7.411 3.768,4.942 5.652,11.559 5.652,19.859 v 0.742 c 0,8.662 -1.858,15.428 -5.578,20.304" style="fill:#ffffff;fill-opacity:1;fill-rule:nonzero;stroke:none" transform="matrix(1.3333333,0,0,-1.3333333,261.81693,220.4092)" clip-path="url(#clipPath6)"></path>
    <path id="path7" d="m 0,0 h -6.009 c -2.883,0 -3.403,-2.178 -3.754,-3.252 -0.266,-0.799 -10.087,-33.393 -10.292,-34.087 -0.206,-0.693 -0.791,-0.688 -0.993,0 -0.203,0.688 -10.027,33.288 -10.289,34.087 C -31.692,-2.178 -32.211,0 -35.094,0 h -6.01 c -2.73,0 -3.292,-2.121 -2.672,-3.889 l 17.037,-48.45 c 0.42,-1.153 1.808,-2.366 3.292,-2.366 h 5.793 c 1.481,0 2.871,1.213 3.288,2.366 L 2.673,-3.889 C 3.292,-2.121 2.732,0 0,0" style="fill:#ffffff;fill-opacity:1;fill-rule:nonzero;stroke:none" transform="matrix(1.3333333,0,0,-1.3333333,147.1468,165.45533)" clip-path="url(#clipPath8)"></path>
    <path id="path9" d="M 0,0 C -0.305,0.297 -1.119,1.002 -1.439,1.307 -1.867,1.716 -2.683,2.241 -4.316,1.975 -5.652,1.758 -7.028,0.814 -7.982,0.443 c -1.473,-0.575 -3.235,-1.02 -5.059,-1.02 -3.968,0 -7,1.428 -9.098,4.288 -2.099,2.858 -3.149,7.197 -3.149,13.013 v 1.935 c 0.034,5.75 1.104,10.038 3.22,12.864 2.118,2.827 5.124,4.24 9.027,4.24 1.65,0 3.106,-0.297 4.44,-0.871 0.862,-0.371 2.9,-1.385 4.128,-1.385 1.361,0 2.352,0.931 2.489,1.076 0.291,0.303 0.785,0.826 1.062,1.126 0.405,0.442 1.408,1.538 1.408,1.538 0.887,1.105 1.316,3.092 -0.643,4.571 0,0 -0.494,0.474 -1.347,0.951 -3.238,1.807 -6.932,2.663 -11.44,2.663 -7.537,0 -13.483,-2.455 -17.846,-7.363 -4.365,-4.91 -6.546,-11.447 -6.546,-19.61 V 17.22 c 0,-8.558 2.195,-15.27 6.595,-20.129 4.391,-4.854 10.33,-7.283 17.823,-7.288 5.236,0.002 8.622,1.431 12.187,3.265 0.58,0.297 1.094,0.757 1.094,0.757 1.813,1.316 1.764,3.888 0.782,4.993 0,0 -0.7,0.754 -1.145,1.182" style="fill:#ffffff;fill-opacity:1;fill-rule:nonzero;stroke:none" transform="matrix(1.3333333,0,0,-1.3333333,205.4336,225.64533)" clip-path="url(#clipPath10)"></path>
    <path id="path11" d="M 0,0 7.234,25.025 H 11.6 L 1.76,-5.984 h -3.476 l -9.819,31.009 h 4.344 z" style="fill:#ffffff;fill-opacity:1;fill-rule:nonzero;stroke:none" transform="matrix(1.3333333,0,0,-1.3333333,673.21747,187.88373)" clip-path="url(#clipPath12)"></path>
    <path id="path13" d="M 0,0 H -11.188 V -10.99 H 1.847 v -3.344 H -15.162 V 16.675 H 1.629 V 13.311 H -11.188 V 3.343 H 0 Z" style="fill:#ffffff;fill-opacity:1;fill-rule:nonzero;stroke:none" transform="matrix(1.3333333,0,0,-1.3333333,715.85467,176.75133)" clip-path="url(#clipPath14)"></path>
    <path id="path15" d="m 0,0 h 4.823 c 0.911,0 1.707,0.153 2.388,0.458 0.682,0.306 1.249,0.718 1.706,1.236 0.455,0.518 0.799,1.128 1.032,1.831 0.232,0.704 0.347,1.46 0.347,2.268 0,0.895 -0.102,1.708 -0.304,2.439 C 9.789,8.963 9.471,9.591 9.036,10.117 8.602,10.642 8.041,11.046 7.353,11.33 6.665,11.614 5.835,11.757 4.866,11.757 H 0 Z M 5.56,-3.343 H 0 v -12.544 h -3.997 v 31.009 h 8.863 c 3.098,0 5.444,-0.792 7.038,-2.376 1.592,-1.583 2.389,-3.9 2.389,-6.953 0,-1.916 -0.431,-3.588 -1.292,-5.015 C 12.138,-0.65 10.918,-1.725 9.34,-2.448 l 6.126,-13.183 v -0.256 h -4.28 z" style="fill:#ffffff;fill-opacity:1;fill-rule:nonzero;stroke:none" transform="matrix(1.3333333,0,0,-1.3333333,731.66867,174.67987)" clip-path="url(#clipPath16)"></path>
    <path id="path17" d="m 0,0 v -11.16 h 5.432 c 0.782,0 1.476,0.131 2.084,0.395 0.61,0.262 1.123,0.631 1.543,1.107 0.42,0.476 0.739,1.057 0.956,1.747 0.218,0.688 0.326,1.458 0.326,2.309 0,0.853 -0.091,1.626 -0.272,2.322 C 9.887,-2.584 9.605,-1.995 9.222,-1.512 8.838,-1.029 8.346,-0.657 7.745,-0.393 7.144,-0.131 6.424,0 5.583,0 Z m 0,3.28 h 5.105 c 0.666,0 1.282,0.112 1.847,0.341 0.564,0.227 1.05,0.554 1.456,0.979 0.404,0.426 0.723,0.948 0.955,1.565 0.231,0.618 0.349,1.317 0.349,2.098 0,1.705 -0.385,2.942 -1.153,3.716 -0.767,0.775 -1.941,1.162 -3.519,1.162 H 0 Z M -3.974,-14.503 V 16.506 H 5.04 c 1.361,0 2.581,-0.161 3.661,-0.48 1.078,-0.319 1.99,-0.816 2.737,-1.49 0.745,-0.675 1.314,-1.531 1.705,-2.567 C 13.534,10.932 13.73,9.69 13.73,8.241 13.73,6.794 13.36,5.515 12.621,4.409 11.884,3.301 10.884,2.442 9.624,1.831 c 0.768,-0.227 1.445,-0.575 2.031,-1.043 0.587,-0.469 1.079,-1.026 1.477,-1.672 0.398,-0.646 0.699,-1.367 0.902,-2.161 0.202,-0.796 0.304,-1.633 0.304,-2.513 0,-1.449 -0.21,-2.73 -0.631,-3.845 -0.419,-1.114 -1.016,-2.052 -1.791,-2.811 -0.774,-0.759 -1.712,-1.331 -2.814,-1.714 -1.1,-0.384 -2.323,-0.575 -3.67,-0.575 z" style="fill:#ffffff;fill-opacity:1;fill-rule:nonzero;stroke:none" transform="matrix(1.3333333,0,0,-1.3333333,764.36853,176.52507)" clip-path="url(#clipPath18)"></path>
    <path id="path19" d="M 0,0 H 8.624 L 4.301,14.099 Z M 9.645,-3.365 H -1.043 l -2.454,-8.093 H -7.583 L 2.606,19.551 h 3.411 l 10.21,-31.009 h -4.084 z" style="fill:#ffffff;fill-opacity:1;fill-rule:nonzero;stroke:none" transform="matrix(1.3333333,0,0,-1.3333333,799.47307,180.58547)" clip-path="url(#clipPath20)"></path>
    <path id="path21" d="M 0,0 H -3.997 L -16.662,23.895 V 0 h -3.997 v 31.009 h 3.997 L -3.954,7.007 V 31.009 H 0 Z" style="fill:#ffffff;fill-opacity:1;fill-rule:nonzero;stroke:none" transform="matrix(1.3333333,0,0,-1.3333333,855.6348,195.86267)" clip-path="url(#clipPath22)"></path>
    <path id="path23" d="m 0,0 v -24.301 h 3.193 c 2.825,0 4.882,0.802 6.17,2.406 1.29,1.605 1.934,3.976 1.934,7.114 v 5.302 c 0,3.266 -0.641,5.662 -1.923,7.19 C 8.093,-0.764 6.156,0 3.564,0 Z M -3.974,-27.644 V 3.365 h 7.538 c 1.78,0 3.388,-0.275 4.822,-0.821 1.434,-0.546 2.657,-1.362 3.671,-2.448 1.013,-1.086 1.795,-2.436 2.346,-4.047 0.551,-1.612 0.825,-3.476 0.825,-5.591 v -5.239 c 0,-2.115 -0.274,-3.976 -0.825,-5.58 -0.551,-1.604 -1.339,-2.947 -2.368,-4.025 -1.028,-1.078 -2.288,-1.891 -3.78,-2.439 -1.492,-0.546 -3.178,-0.819 -5.062,-0.819 z" style="fill:#ffffff;fill-opacity:1;fill-rule:nonzero;stroke:none" transform="matrix(1.3333333,0,0,-1.3333333,871.3604,159.0036)" clip-path="url(#clipPath24)"></path>
    <path id="path25" d="m 0,0 c -0.086,-1.604 -0.358,-3.039 -0.815,-4.303 -0.455,-1.263 -1.103,-2.338 -1.943,-3.226 -0.84,-0.887 -1.879,-1.565 -3.117,-2.034 -1.239,-0.468 -2.676,-0.702 -4.312,-0.702 -1.593,0 -3.028,0.305 -4.301,0.916 -1.276,0.609 -2.362,1.483 -3.26,2.618 -0.898,1.137 -1.589,2.507 -2.073,4.111 -0.486,1.605 -0.728,3.408 -0.728,5.409 v 5.73 c 0,1.987 0.242,3.787 0.728,5.398 0.484,1.612 1.186,2.985 2.107,4.121 0.92,1.137 2.044,2.013 3.377,2.63 1.333,0.619 2.839,0.927 4.519,0.927 1.535,0 2.893,-0.228 4.073,-0.682 1.18,-0.455 2.183,-1.121 3.008,-2.002 0.826,-0.879 1.47,-1.966 1.933,-3.258 0.465,-1.292 0.731,-2.776 0.804,-4.451 h -4.017 c -0.088,1.22 -0.255,2.271 -0.5,3.152 -0.247,0.881 -0.602,1.607 -1.065,2.183 -0.464,0.575 -1.043,1.001 -1.738,1.277 -0.695,0.278 -1.528,0.417 -2.498,0.417 -1.159,0 -2.158,-0.232 -2.998,-0.693 -0.84,-0.461 -1.535,-1.111 -2.085,-1.949 -0.551,-0.837 -0.96,-1.852 -1.228,-3.045 -0.267,-1.193 -0.401,-2.521 -0.401,-3.983 V 2.789 c 0,-1.362 0.112,-2.633 0.336,-3.812 0.225,-1.178 0.586,-2.207 1.086,-3.088 0.5,-0.88 1.155,-1.572 1.967,-2.075 0.81,-0.505 1.794,-0.758 2.954,-0.758 1.086,0 2.001,0.131 2.748,0.395 0.745,0.262 1.353,0.674 1.825,1.236 0.471,0.56 0.828,1.277 1.075,2.15 0.246,0.874 0.42,1.927 0.522,3.163 z" style="fill:#ffffff;fill-opacity:1;fill-rule:nonzero;stroke:none" transform="matrix(1.3333333,0,0,-1.3333333,942.43747,182.74333)" clip-path="url(#clipPath26)"></path>
    <path id="path27" d="M 0,0 H -3.997 V 14.334 H -16.728 V 0 h -3.974 v 31.009 h 3.974 V 17.677 H -3.997 V 31.009 H 0 Z" style="fill:#ffffff;fill-opacity:1;fill-rule:nonzero;stroke:none" transform="matrix(1.3333333,0,0,-1.3333333,978.4696,195.86267)" clip-path="url(#clipPath28)"></path>
    <path id="path29" d="m 0,0 h 4.823 c 0.911,0 1.707,0.153 2.388,0.458 0.682,0.306 1.249,0.718 1.706,1.236 0.455,0.518 0.799,1.128 1.032,1.831 0.232,0.704 0.347,1.46 0.347,2.268 0,0.895 -0.102,1.708 -0.304,2.439 C 9.789,8.963 9.471,9.591 9.036,10.117 8.602,10.642 8.041,11.046 7.353,11.33 6.665,11.614 5.835,11.757 4.866,11.757 H 0 Z M 5.56,-3.343 H 0 v -12.544 h -3.997 v 31.009 h 8.863 c 3.098,0 5.444,-0.792 7.038,-2.376 1.592,-1.583 2.389,-3.9 2.389,-6.953 0,-1.916 -0.431,-3.588 -1.292,-5.015 C 12.138,-0.65 10.918,-1.725 9.34,-2.448 l 6.126,-13.183 v -0.256 h -4.28 z" style="fill:#ffffff;fill-opacity:1;fill-rule:nonzero;stroke:none" transform="matrix(1.3333333,0,0,-1.3333333,994.22813,174.67987)" clip-path="url(#clipPath30)"></path>
    <path id="path31" d="m 770.369,168.103 h -3.976 v 31.009 h 3.976 z" style="fill:#ffffff;fill-opacity:1;fill-rule:nonzero;stroke:none" transform="matrix(1.3333333,0,0,-1.3333333,0,420)" clip-path="url(#clipPath32)"></path>
    <path id="path33" d="m 0,0 c 0,0.724 -0.083,1.364 -0.25,1.918 -0.167,0.552 -0.474,1.059 -0.922,1.522 -0.449,0.462 -1.059,0.894 -1.826,1.299 -0.768,0.404 -1.76,0.819 -2.976,1.245 -1.303,0.44 -2.483,0.941 -3.54,1.501 -1.058,0.562 -1.959,1.208 -2.705,1.94 -0.746,0.731 -1.322,1.564 -1.727,2.502 -0.406,0.936 -0.608,2.009 -0.608,3.215 0,1.206 0.213,2.325 0.64,3.355 0.427,1.029 1.035,1.923 1.825,2.683 0.79,0.759 1.745,1.353 2.868,1.779 1.122,0.426 2.371,0.639 3.747,0.639 1.535,0 2.893,-0.264 4.073,-0.789 1.18,-0.526 2.172,-1.221 2.976,-2.087 0.804,-0.865 1.409,-1.867 1.814,-3.002 0.405,-1.137 0.608,-2.308 0.608,-3.514 H 0 c 0,0.865 -0.105,1.667 -0.315,2.406 -0.21,0.738 -0.54,1.376 -0.989,1.916 -0.449,0.54 -1.016,0.958 -1.704,1.258 -0.688,0.297 -1.511,0.447 -2.466,0.447 -0.884,0 -1.644,-0.128 -2.281,-0.384 -0.638,-0.256 -1.162,-0.606 -1.576,-1.054 -0.411,-0.447 -0.715,-0.976 -0.911,-1.587 -0.196,-0.61 -0.293,-1.278 -0.293,-2.001 0,-1.307 0.478,-2.401 1.433,-3.28 0.956,-0.881 2.433,-1.669 4.432,-2.365 C -3.135,9.065 -1.817,8.516 -0.717,7.913 0.384,7.308 1.285,6.623 1.987,5.856 2.691,5.089 3.204,4.232 3.53,3.28 3.855,2.328 4.019,1.25 4.019,0.043 4.019,-1.22 3.801,-2.363 3.368,-3.386 2.933,-4.408 2.314,-5.281 1.51,-6.006 c -0.803,-0.723 -1.778,-1.28 -2.922,-1.671 -1.144,-0.39 -2.432,-0.586 -3.867,-0.586 -1.245,0 -2.473,0.199 -3.681,0.596 -1.21,0.398 -2.29,0.99 -3.237,1.778 -0.949,0.789 -1.717,1.771 -2.303,2.95 -0.586,1.179 -0.88,2.541 -0.88,4.09 h 3.998 c 0,-1.066 0.159,-1.978 0.478,-2.737 0.318,-0.761 0.756,-1.388 1.313,-1.885 0.558,-0.497 1.206,-0.863 1.945,-1.097 0.738,-0.235 1.527,-0.352 2.367,-0.352 1.752,0 3.07,0.44 3.954,1.321 C -0.441,-2.718 0,-1.52 0,0" style="fill:#ffffff;fill-opacity:1;fill-rule:nonzero;stroke:none" transform="matrix(1.3333333,0,0,-1.3333333,1056.1227,185.4132)" clip-path="url(#clipPath34)"></path>
    <path id="path35" d="m 0,0 h -8.318 v -27.644 h -3.976 V 0 h -8.298 V 3.365 H 0 Z" style="fill:#ffffff;fill-opacity:1;fill-rule:nonzero;stroke:none" transform="matrix(1.3333333,0,0,-1.3333333,1094.3271,159.0036)" clip-path="url(#clipPath36)"></path>
    <path id="path37" d="M 0,0 H 12.404 V -3.343 H -3.997 V 27.666 H 0 Z" style="fill:#ffffff;fill-opacity:1;fill-rule:nonzero;stroke:none" transform="matrix(1.3333333,0,0,-1.3333333,1107.1297,191.4052)" clip-path="url(#clipPath38)"></path>
    <path id="path39" d="m 852.57,168.103 h -3.976 v 31.009 h 3.976 z" style="fill:#ffffff;fill-opacity:1;fill-rule:nonzero;stroke:none" transform="matrix(1.3333333,0,0,-1.3333333,0,420)" clip-path="url(#clipPath40)"></path>
    <path id="path41" d="m 0,0 c -0.086,-1.604 -0.358,-3.039 -0.815,-4.303 -0.455,-1.263 -1.103,-2.338 -1.943,-3.226 -0.84,-0.887 -1.879,-1.565 -3.117,-2.034 -1.239,-0.468 -2.676,-0.702 -4.312,-0.702 -1.593,0 -3.028,0.305 -4.301,0.916 -1.276,0.609 -2.362,1.483 -3.26,2.618 -0.898,1.137 -1.589,2.507 -2.073,4.111 -0.486,1.605 -0.728,3.408 -0.728,5.409 v 5.73 c 0,1.987 0.242,3.787 0.728,5.398 0.484,1.612 1.186,2.985 2.107,4.121 0.92,1.137 2.044,2.013 3.377,2.63 1.333,0.619 2.839,0.927 4.519,0.927 1.535,0 2.893,-0.228 4.073,-0.682 1.18,-0.455 2.183,-1.121 3.008,-2.002 0.826,-0.879 1.47,-1.966 1.933,-3.258 0.465,-1.292 0.731,-2.776 0.804,-4.451 h -4.017 c -0.088,1.22 -0.255,2.271 -0.5,3.152 -0.247,0.881 -0.602,1.607 -1.065,2.183 -0.464,0.575 -1.043,1.001 -1.738,1.277 -0.694,0.278 -1.528,0.417 -2.498,0.417 -1.159,0 -2.158,-0.232 -2.997,-0.693 -0.841,-0.461 -1.536,-1.111 -2.086,-1.949 -0.551,-0.837 -0.96,-1.852 -1.228,-3.045 -0.267,-1.193 -0.401,-2.521 -0.401,-3.983 V 2.789 c 0,-1.362 0.112,-2.633 0.336,-3.812 0.225,-1.178 0.586,-2.207 1.086,-3.088 0.5,-0.88 1.155,-1.572 1.967,-2.075 0.81,-0.505 1.794,-0.758 2.954,-0.758 1.086,0 2.001,0.131 2.748,0.395 0.745,0.262 1.353,0.674 1.825,1.236 0.471,0.56 0.828,1.277 1.075,2.15 0.246,0.874 0.42,1.927 0.522,3.163 z" style="fill:#ffffff;fill-opacity:1;fill-rule:nonzero;stroke:none" transform="matrix(1.3333333,0,0,-1.3333333,1173.7451,182.74333)" clip-path="url(#clipPath42)"></path>
    <path id="path43" d="M 0,0 H -3.997 V 14.334 H -16.728 V 0 h -3.974 v 31.009 h 3.974 V 17.677 H -3.997 V 31.009 H 0 Z" style="fill:#ffffff;fill-opacity:1;fill-rule:nonzero;stroke:none" transform="matrix(1.3333333,0,0,-1.3333333,1209.7793,195.86267)" clip-path="url(#clipPath44)"></path>
    <path id="path45" d="M 0,0 H -11.188 V -10.99 H 1.847 v -3.344 H -15.162 V 16.675 H 1.629 V 13.311 H -11.188 V 3.343 H 0 Z" style="fill:#ffffff;fill-opacity:1;fill-rule:nonzero;stroke:none" transform="matrix(1.3333333,0,0,-1.3333333,1240.4243,176.75133)" clip-path="url(#clipPath46)"></path>
    <path id="path47" d="m 0,0 h 4.823 c 0.911,0 1.707,0.153 2.388,0.458 0.682,0.306 1.249,0.718 1.706,1.236 0.455,0.518 0.799,1.128 1.032,1.831 0.232,0.704 0.347,1.46 0.347,2.268 0,0.895 -0.102,1.708 -0.304,2.439 C 9.789,8.963 9.471,9.591 9.036,10.117 8.602,10.642 8.041,11.046 7.353,11.33 6.665,11.614 5.835,11.757 4.866,11.757 H 0 Z M 5.56,-3.343 H 0 v -12.544 h -3.997 v 31.009 h 8.863 c 3.098,0 5.444,-0.792 7.038,-2.376 1.592,-1.583 2.389,-3.9 2.389,-6.953 0,-1.916 -0.431,-3.588 -1.292,-5.015 C 12.138,-0.65 10.918,-1.725 9.34,-2.448 l 6.126,-13.183 v -0.256 h -4.28 z" style="fill:#ffffff;fill-opacity:1;fill-rule:nonzero;stroke:none" transform="matrix(1.3333333,0,0,-1.3333333,1256.2383,174.67987)" clip-path="url(#clipPath48)"></path>
    <path id="path49" d="m 0,0 h 6.105 c 0.97,0 1.798,0.15 2.486,0.447 0.689,0.298 1.253,0.713 1.696,1.247 0.441,0.532 0.767,1.163 0.977,1.894 0.209,0.732 0.316,1.537 0.316,2.418 0,0.794 -0.107,1.566 -0.316,2.311 -0.21,0.745 -0.536,1.402 -0.977,1.97 C 9.844,10.855 9.28,11.308 8.591,11.649 7.903,11.99 7.075,12.161 6.105,12.161 H 0 Z m 0,-3.343 v -12.14 H -3.976 V 15.526 H 6.105 c 1.521,0 2.871,-0.234 4.051,-0.703 1.18,-0.469 2.169,-1.125 2.965,-1.97 0.796,-0.844 1.402,-1.846 1.814,-3.003 0.414,-1.157 0.619,-2.425 0.619,-3.801 0,-1.492 -0.205,-2.823 -0.619,-3.994 -0.412,-1.171 -1.021,-2.154 -1.825,-2.95 -0.804,-0.794 -1.791,-1.402 -2.965,-1.82 -1.172,-0.42 -2.519,-0.628 -4.04,-0.628 z" style="fill:#ffffff;fill-opacity:1;fill-rule:nonzero;stroke:none" transform="matrix(1.3333333,0,0,-1.3333333,666.46853,243.58467)" clip-path="url(#clipPath50)"></path>
    <path id="path51" d="m 0,0 h -10.688 v -13.693 h -3.974 V 17.316 H 1.803 V 13.951 H -10.688 V 3.345 H 0 Z" style="fill:#ffffff;fill-opacity:1;fill-rule:nonzero;stroke:none" transform="matrix(1.3333333,0,0,-1.3333333,714.84053,245.9708)" clip-path="url(#clipPath52)"></path>
    <path id="path53" d="M 0,0 H 8.624 L 4.301,14.099 Z M 9.645,-3.365 H -1.043 l -2.454,-8.093 H -7.583 L 2.606,19.551 h 3.411 l 10.21,-31.009 h -4.084 z" style="fill:#ffffff;fill-opacity:1;fill-rule:nonzero;stroke:none" transform="matrix(1.3333333,0,0,-1.3333333,726.91907,248.95133)" clip-path="url(#clipPath54)"></path>
    <path id="path55" d="m 0,0 v -24.301 h 3.193 c 2.825,0 4.882,0.802 6.17,2.406 1.29,1.605 1.934,3.976 1.934,7.114 v 5.302 c 0,3.266 -0.641,5.662 -1.923,7.19 C 8.093,-0.764 6.156,0 3.564,0 Z M -3.974,-27.644 V 3.365 h 7.538 c 1.78,0 3.388,-0.275 4.822,-0.821 1.434,-0.546 2.657,-1.362 3.671,-2.448 1.013,-1.086 1.795,-2.436 2.346,-4.047 0.551,-1.612 0.825,-3.476 0.825,-5.591 v -5.239 c 0,-2.115 -0.274,-3.976 -0.825,-5.58 -0.551,-1.604 -1.339,-2.947 -2.368,-4.025 -1.028,-1.078 -2.288,-1.891 -3.78,-2.439 -1.492,-0.546 -3.178,-0.819 -5.062,-0.819 z" style="fill:#ffffff;fill-opacity:1;fill-rule:nonzero;stroke:none" transform="matrix(1.3333333,0,0,-1.3333333,760.83467,227.36947)" clip-path="url(#clipPath56)"></path>
    <path id="path57" d="m 0,0 h -10.688 v -13.693 h -3.974 V 17.316 H 1.803 V 13.951 H -10.688 V 3.345 H 0 Z" style="fill:#ffffff;fill-opacity:1;fill-rule:nonzero;stroke:none" transform="matrix(1.3333333,0,0,-1.3333333,810.18787,245.9708)" clip-path="url(#clipPath58)"></path>
    <path id="path59" d="m 619.438,116.829 h -3.976 v 31.009 h 3.976 z" style="fill:#ffffff;fill-opacity:1;fill-rule:nonzero;stroke:none" transform="matrix(1.3333333,0,0,-1.3333333,0,420)" clip-path="url(#clipPath60)"></path>
    <path id="path61" d="M 0,0 H -3.997 L -16.662,23.895 V 0 h -3.997 v 31.009 h 3.997 L -3.954,7.007 V 31.009 H 0 Z" style="fill:#ffffff;fill-opacity:1;fill-rule:nonzero;stroke:none" transform="matrix(1.3333333,0,0,-1.3333333,864.0068,264.22853)" clip-path="url(#clipPath62)"></path>
    <path id="path63" d="m 0,0 v -24.301 h 3.193 c 2.825,0 4.882,0.802 6.17,2.406 1.29,1.605 1.934,3.976 1.934,7.114 v 5.302 c 0,3.266 -0.641,5.662 -1.923,7.19 C 8.093,-0.764 6.156,0 3.564,0 Z M -3.974,-27.644 V 3.365 h 7.538 c 1.78,0 3.388,-0.275 4.822,-0.821 1.434,-0.546 2.657,-1.362 3.67,-2.448 1.014,-1.086 1.796,-2.436 2.347,-4.047 0.551,-1.612 0.825,-3.476 0.825,-5.591 v -5.239 c 0,-2.115 -0.274,-3.976 -0.825,-5.58 -0.551,-1.604 -1.339,-2.947 -2.368,-4.025 -1.028,-1.078 -2.288,-1.891 -3.78,-2.439 -1.492,-0.546 -3.178,-0.819 -5.062,-0.819 z" style="fill:#ffffff;fill-opacity:1;fill-rule:nonzero;stroke:none" transform="matrix(1.3333333,0,0,-1.3333333,879.73027,227.36947)" clip-path="url(#clipPath64)"></path>
    <path id="path65" d="M 0,0 H -11.188 V -10.99 H 1.847 v -3.344 H -15.162 V 16.675 H 1.629 V 13.311 H -11.188 V 3.343 H 0 Z" style="fill:#ffffff;fill-opacity:1;fill-rule:nonzero;stroke:none" transform="matrix(1.3333333,0,0,-1.3333333,929.752,245.1172)" clip-path="url(#clipPath66)"></path>
    <path id="path67" d="m 0,0 h 4.823 c 0.911,0 1.707,0.153 2.388,0.458 0.682,0.306 1.249,0.718 1.706,1.236 0.455,0.518 0.799,1.128 1.032,1.831 0.232,0.704 0.347,1.46 0.347,2.268 0,0.895 -0.102,1.708 -0.304,2.439 C 9.789,8.963 9.471,9.591 9.036,10.117 8.602,10.642 8.041,11.046 7.353,11.33 6.665,11.614 5.835,11.757 4.866,11.757 H 0 Z M 5.56,-3.343 H 0 v -12.544 h -3.997 v 31.009 h 8.863 c 3.098,0 5.444,-0.792 7.038,-2.376 1.592,-1.583 2.389,-3.9 2.389,-6.953 0,-1.916 -0.431,-3.588 -1.292,-5.015 -0.863,-1.427 -2.083,-2.503 -3.661,-3.226 l 6.126,-13.183 v -0.256 h -4.28 z" style="fill:#ffffff;fill-opacity:1;fill-rule:nonzero;stroke:none" transform="matrix(1.3333333,0,0,-1.3333333,945.56613,243.04573)" clip-path="url(#clipPath68)"></path>
    <path id="path69" d="m 0,0 -6.561,1.916 0.999,3.217 6.56,-2.385 -0.194,7.326 h 3.323 l -0.218,-7.433 6.452,2.342 1,-3.237 -6.67,-1.937 4.302,-5.772 -2.694,-2.002 -4.04,6.134 -3.91,-5.985 -2.716,1.938 z" style="fill:#ffffff;fill-opacity:1;fill-rule:nonzero;stroke:none" transform="matrix(1.3333333,0,0,-1.3333333,977.978,236.31533)" clip-path="url(#clipPath70)"></path>
    <path id="path71" d="m 753.966,116.829 h -3.976 v 31.009 h 3.976 z" style="fill:#ffffff;fill-opacity:1;fill-rule:nonzero;stroke:none" transform="matrix(1.3333333,0,0,-1.3333333,0,420)" clip-path="url(#clipPath72)"></path>
    <path id="path73" d="M 0,0 H -3.997 L -16.661,23.895 V 0 h -3.998 v 31.009 h 3.998 L -3.954,7.007 V 31.009 H 0 Z" style="fill:#ffffff;fill-opacity:1;fill-rule:nonzero;stroke:none" transform="matrix(1.3333333,0,0,-1.3333333,1043.3776,264.22853)" clip-path="url(#clipPath74)"></path>
    <path id="path75" d="M 0,0 H -3.997 L -16.662,23.895 V 0 h -3.997 v 31.009 h 3.997 L -3.954,7.007 V 31.009 H 0 Z" style="fill:#ffffff;fill-opacity:1;fill-rule:nonzero;stroke:none" transform="matrix(1.3333333,0,0,-1.3333333,1081.3495,264.22853)" clip-path="url(#clipPath76)"></path>
    <path id="path77" d="M 0,0 H -11.188 V -10.99 H 1.847 v -3.344 H -15.162 V 16.675 H 1.629 V 13.311 H -11.188 V 3.343 H 0 Z" style="fill:#ffffff;fill-opacity:1;fill-rule:nonzero;stroke:none" transform="matrix(1.3333333,0,0,-1.3333333,1111.9903,245.1172)" clip-path="url(#clipPath78)"></path>
    <path id="path79" d="M 0,0 H -3.997 L -16.662,23.895 V 0 h -3.997 v 31.009 h 3.997 L -3.954,7.007 V 31.009 H 0 Z" style="fill:#ffffff;fill-opacity:1;fill-rule:nonzero;stroke:none" transform="matrix(1.3333333,0,0,-1.3333333,1150.0219,264.22853)" clip-path="url(#clipPath80)"></path>
  </g>
</svg>
